<?xml version="1.0" encoding="UTF-8"?>
<svg width="180px" height="188px" viewBox="0 0 180 188" version="1.1" xmlns="http://www.w3.org/2000/svg" xmlns:xlink="http://www.w3.org/1999/xlink">
    <!-- Generator: Sketch 64 (93537) - https://sketch.com -->
    <title>Group</title>
    <desc>Created with Sketch.</desc>
    <g id="Page-1" stroke="none" stroke-width="1" fill="none" fill-rule="evenodd">
        <g id="Desktop-HD-Copy-5" transform="translate(-428.000000, -1624.000000)">
            <g id="Group" transform="translate(428.000000, 1624.000000)">
                <path d="M162.400959,22 L64.5986702,22 C56.8071436,22 50.5738481,28.2389391 50.5,35.8716916 L50.5,101.78728 C50.5,109.49455 56.8071436,115.733856 64.5986702,115.733856 L138.877198,115.733856 C139.693238,115.733856 140.435429,116.100939 140.955706,116.761688 L150.453531,129.900683 C151.345274,131.07498 152.975868,131.369014 154.163004,130.487281 C154.831347,129.973732 155.276291,129.166517 155.276291,128.357834 L155.276291,118.230019 C155.276291,116.835105 156.389578,115.733856 157.800113,115.733856 L162.400959,115.733856 C170.192856,115.733856 176.5,109.49455 176.5,101.78728 L176.5,35.8716916 C176.424668,28.2389391 170.192856,22 162.400959,22 Z" id="Fill-1" fill="#FFCD29"></path>
                <path d="M66.2767833,115.678054 C58.4851648,115.678054 52.2517959,109.443037 52.1779469,101.741065 L52.1779469,68 L17.5988363,68 C9.8072179,68 3.5,74.2346503 3.5,81.9366225 L3.5,147.806899 C3.5,155.509238 9.8072179,161.743888 17.5988363,161.743888 L22.1982514,161.743888 C23.608803,161.743888 24.7221034,162.84438 24.7221034,164.236868 L24.7221034,174.359188 C24.7221034,175.826509 25.9092528,177 27.3936533,177 C28.2839225,177 29.0999717,176.56017 29.5449208,175.899509 L39.044342,162.769546 C39.4892911,162.110719 40.3053403,161.743888 41.1217606,161.743888 L115.401164,161.743888 C123.192782,161.743888 129.5,155.509238 129.5,147.806899 L129.5,115.678054 L66.2767833,115.678054 Z" id="Fill-2" fill="#EA4647"></path>
                <path d="M87.6614267,175.161243 L86.3387571,175.161243 L86.3387571,173.837102 C86.3387571,172.808605 85.5297849,172 84.501287,172 C83.471686,172 82.6627137,172.808605 82.6627137,173.837102 L82.6627137,175.161243 L81.3385733,175.161243 C80.3086045,175.161243 79.5,175.969847 79.5,176.999816 C79.5,178.029785 80.3086045,178.838389 81.3385733,178.838389 L82.6627137,178.838389 L82.6627137,180.161427 C82.6627137,181.189925 83.471686,182 84.501287,182 C85.5297849,182 86.3387571,181.189925 86.3387571,180.161427 L86.3387571,178.838389 L87.6614267,178.838389 C88.6913955,178.838389 89.5,178.029785 89.5,176.999816 C89.5,175.969847 88.6913955,175.161243 87.6614267,175.161243 Z" id="Fill-3" fill="#6DCC6D"></path>
                <path d="M60.4603134,11.1780355 C60.4603134,11.0588806 60.3998942,10.9994525 60.3998942,10.8794017 C60.3391714,10.819675 60.3391714,10.7008188 60.2787522,10.6413906 C60.2171185,10.580768 60.1566993,10.4628077 60.0962801,10.4033795 C59.4890519,9.86554015 58.5782096,9.86554015 57.9709814,10.4033795 C57.9102586,10.4628077 57.8498393,10.5210412 57.7882057,10.6413906 C57.6673673,10.819675 57.6066445,10.9994525 57.5462252,11.1780355 C57.4845916,11.3575144 57.4845916,11.59672 57.5462252,11.775303 C57.5462252,11.8953538 57.6066445,11.9547819 57.6066445,12.0739367 C57.6673673,12.1939875 57.6673673,12.2534156 57.7277865,12.3128437 C57.7882057,12.3725705 57.8498393,12.4926213 57.9102586,12.5520494 C58.5174868,13.1493169 59.4283291,13.1493169 60.0355573,12.5520494 C60.0962801,12.4926213 60.1566993,12.4331931 60.2171185,12.3128437 C60.2787522,12.2534156 60.3391714,12.1345594 60.3391714,12.0739367 C60.3998942,12.01421 60.3998942,11.8953538 60.3998942,11.775303 C60.5207326,11.59672 60.5207326,11.3575144 60.4603134,11.1780355 Z" id="Fill-4" fill="#55ACD5"></path>
                <g id="Group-8" transform="translate(63.500000, 138.000000)">
                    <path d="M78.7846132,1.71211084 C78.7846132,1.56614497 78.7104575,1.49406753 78.7104575,1.34991265 C78.6359292,1.27747301 78.6359292,1.13186934 78.5617736,1.0597919 C78.4861274,0.987714459 78.4119717,0.84174859 78.337816,0.76967115 C77.592533,0.117352213 76.4746085,0.117352213 75.7293255,0.76967115 C75.6547972,0.84174859 75.5806415,0.915274822 75.5049953,1.0597919 C75.356684,1.27747301 75.2821557,1.49406753 75.208,1.71211084 C75.1323538,1.92834315 75.1323538,2.2184639 75.208,2.43650721 C75.208,2.58066209 75.2821557,2.65273953 75.2821557,2.7987054 C75.356684,2.94286028 75.356684,3.01493772 75.4308396,3.08846395 C75.5049953,3.16090359 75.5806415,3.30505847 75.6547972,3.37713591 C76.4000802,4.10153228 77.5180047,4.10153228 78.2632877,3.37713591 C78.337816,3.30505847 78.4119717,3.23298103 78.4861274,3.08846395 C78.5617736,3.01493772 78.6359292,2.87078284 78.6359292,2.7987054 C78.7104575,2.72626576 78.7104575,2.58066209 78.7104575,2.43650721 C78.8587689,2.2184639 78.8587689,2.00186939 78.7846132,1.71211084 Z" id="Fill-5" fill="#231F20"></path>
                    <path d="M3.67536321,47.7746654 C3.67536321,47.6305106 3.59971698,47.5569843 3.59971698,47.4124672 C3.52556132,47.3403898 3.52556132,47.1947861 3.45140566,47.1227087 C3.37687736,47.0502691 3.3027217,46.9061142 3.22707547,46.8325879 C2.48179245,46.1817178 1.36386792,46.1817178 0.618584906,46.8325879 C0.544429245,46.9061142 0.470273585,46.9781916 0.395745283,47.1227087 C0.245943396,47.3403898 0.171787736,47.5569843 0.0976320755,47.7746654 C0.0231037736,47.9927087 0.0231037736,48.2813807 0.0976320755,48.4990618 C0.0976320755,48.6435789 0.171787736,48.7171051 0.171787736,48.86126 C0.245943396,49.0057771 0.245943396,49.0793033 0.321589623,49.1513807 C0.395745283,49.2234582 0.470273585,49.3665265 0.544429245,49.4400527 C1.28971226,50.1644491 2.40763679,50.1644491 3.15291981,49.4400527 C3.22707547,49.3665265 3.3027217,49.294449 3.37687736,49.1513807 C3.45140566,49.0793033 3.52556132,48.9336996 3.52556132,48.86126 C3.59971698,48.7891826 3.59971698,48.6435789 3.59971698,48.4990618 C3.67536321,48.2813807 3.67536321,47.9927087 3.67536321,47.7746654 Z" id="Fill-7" fill="#FFCD29"></path>
                </g>
                <path d="M49.2689697,6.34443651 C46.0956896,5.72605227 43.6967672,3.24980651 43.0772036,0.154015598 C43.0772036,0.077007799 42.9998065,0 42.9227964,0 C42.8457863,0 42.8457863,0.077007799 42.7672283,0.154015598 C42.1488256,3.32874918 39.6728932,5.72605227 36.5770101,6.34443651 C36.5,6.34443651 36.5,6.4229922 36.5,6.5 C36.5,6.5770078 36.5770101,6.5770078 36.6555681,6.6540156 C39.8284613,7.27394773 42.2258357,9.74980651 42.8457863,12.8440495 C42.8457863,12.9214443 42.9227964,13 42.9998065,13 C43.0772036,13 43.0772036,12.9214443 43.1542137,12.8440495 C43.7737773,9.67279871 46.2500967,7.27394773 49.3459798,6.6540156 C49.4245379,6.6540156 49.5,6.5770078 49.5,6.5 C49.4245379,6.34443651 49.3459798,6.34443651 49.2689697,6.34443651 Z" id="Fill-9" fill="#EA4647"></path>
                <path d="M159.581788,64 L71.3447891,64 C70.3113382,64 69.5,63.3388355 69.5,62.4993998 C69.5,61.6602641 70.3113382,61 71.3447891,61 L159.656687,61 C160.688662,61 161.5,61.6602641 161.5,62.4993998 C161.5,63.3388355 160.615239,64 159.581788,64 Z" id="Fill-10" fill="#231F20"></path>
                <path d="M159.581788,73 L71.3447891,73 C70.3113382,73 69.5,72.3391 69.5,71.5 C69.5,70.66 70.3113382,70 71.3447891,70 L159.656687,70 C160.688662,70 161.5,70.66 161.5,71.5 C161.5,72.3391 160.615239,73 159.581788,73 Z" id="Fill-11" fill="#231F20"></path>
                <path d="M159.581788,47 L71.3447891,47 C70.3113382,47 69.5,46.3403 69.5,45.5 C69.5,44.66 70.3113382,44 71.3447891,44 L159.656687,44 C160.688662,44 161.5,44.66 161.5,45.5 C161.5,46.3403 160.615239,47 159.581788,47 Z" id="Fill-12" fill="#231F20"></path>
                <path d="M159.581788,55 L71.3447891,55 C70.3113382,55 69.5,54.3410023 69.5,53.5004501 C69.5,52.6601981 70.3113382,52 71.3447891,52 L159.656687,52 C160.688662,52 161.5,52.6601981 161.5,53.5004501 C161.5,54.3410023 160.615239,55 159.581788,55 Z" id="Fill-13" fill="#231F20"></path>
                <path d="M159.581788,83 L71.3447891,83 C70.3113382,83 69.5,82.3388 69.5,81.5 C69.5,80.6597 70.3113382,80 71.3447891,80 L159.656687,80 C160.688662,80 161.5,80.6597 161.5,81.5 C161.5,82.3388 160.615239,83 159.581788,83 Z" id="Fill-14" fill="#231F20"></path>
                <path d="M159.581788,92 L71.3447891,92 C70.3113382,92 69.5,91.340036 69.5,90.5006002 C69.5,89.659964 70.3113382,89 71.3447891,89 L159.656687,89 C160.688662,89 161.5,89.659964 161.5,90.5006002 C161.5,91.340036 160.615239,92 159.581788,92 Z" id="Fill-15" fill="#231F20"></path>
                <path d="M159.581788,101 L71.3447891,101 C70.3113382,101 69.5,100.340036 69.5,99.4993998 C69.5,98.6611645 70.3113382,98 71.3447891,98 L159.656687,98 C160.688662,98 161.5,98.6611645 161.5,99.4993998 C161.5,100.340036 160.615239,101 159.581788,101 Z" id="Fill-16" fill="#231F20"></path>
                <path d="M42.5461385,108 L20.3775711,108 C19.3249136,108 18.5,107.340036 18.5,106.4994 C18.5,105.660264 19.3249136,105 20.3775711,105 L42.6209257,105 C43.6735831,105 44.5,105.660264 44.5,106.4994 C44.5,107.340036 43.5987959,108 42.5461385,108 Z" id="Fill-17" fill="#231F20"></path>
                <path d="M47.5959171,118 L22.3297362,118 C21.3038973,118 20.5,117.34 20.5,116.5 C20.5,115.6597 21.3038973,115 22.3297362,115 L47.6687989,115 C48.6946377,115 49.5,115.6597 49.5,116.5 C49.5,117.34 48.6217559,118 47.5959171,118 Z" id="Fill-18" fill="#231F20"></path>
                <path d="M42.5461385,90 L20.3775711,90 C19.3249136,90 18.5,89.3403 18.5,88.5 C18.5,87.66 19.3249136,87 20.3775711,87 L42.6209257,87 C43.6735831,87 44.5,87.66 44.5,88.5 C44.5,89.3403 43.5987959,90 42.5461385,90 Z" id="Fill-19" fill="#231F20"></path>
                <path d="M42.5461385,99 L20.3775711,99 C19.3249136,99 18.5,98.3410023 18.5,97.5004501 C18.5,96.6601981 19.3249136,96 20.3775711,96 L42.6209257,96 C43.6735831,96 44.5,96.6601981 44.5,97.5004501 C44.5,98.3410023 43.5987959,99 42.5461385,99 Z" id="Fill-20" fill="#231F20"></path>
                <path d="M108.581396,127 L20.3433354,127 C19.3098721,127 18.5,126.34 18.5,125.5 C18.5,124.6597 19.3098721,124 20.3433354,124 L108.655189,124 C109.688283,124 110.5,124.6597 110.5,125.5 C110.5,126.34 109.61486,127 108.581396,127 Z" id="Fill-21" fill="#231F20"></path>
                <path d="M108.581396,137 L20.3433354,137 C19.3098721,137 18.5,136.340936 18.5,135.5006 C18.5,134.659964 19.3098721,134 20.3433354,134 L108.655189,134 C109.688283,134 110.5,134.659964 110.5,135.5006 C110.5,136.340936 109.61486,137 108.581396,137 Z" id="Fill-22" fill="#231F20"></path>
                <path d="M108.581396,144 L20.3433354,144 C19.3098721,144 18.5,143.339736 18.5,142.4994 C18.5,141.659964 19.3098721,141 20.3433354,141 L108.655189,141 C109.688283,141 110.5,141.659964 110.5,142.4994 C110.5,143.339736 109.61486,144 108.581396,144 Z" id="Fill-23" fill="#231F20"></path>
                <path d="M153.890436,133 C152.415665,133 151.087781,132.264665 150.274738,131.088497 L140.828971,117.928578 C140.680609,117.780776 140.533722,117.634444 140.311547,117.634444 L66.3667029,117.634444 C57.6575836,117.634444 50.5734433,110.576701 50.5,101.82732 L50.5,35.8067566 C50.5,27.1320121 57.5841404,20.0746365 66.3667029,20 L163.632928,20 C172.340571,20 179.42508,27.0588463 179.5,35.8067566 L179.5,101.82732 C179.5,110.503535 172.414014,117.560911 163.632928,117.634444 L159.0573,117.634444 C158.688239,117.634444 158.39262,117.928578 158.39262,118.296246 L158.39262,128.440189 C158.39262,130.426328 157.138548,132.116863 155.29324,132.705866 C154.850735,132.926834 154.332941,133 153.890436,133 Z M66.3667029,23.7513104 C59.6512552,23.7513104 54.2640608,29.1902142 54.1906175,35.8813931 L54.1906175,101.900853 C54.1906175,108.590562 59.6512552,113.95777 66.3667029,114.030936 L140.238103,114.030936 C141.640907,114.030936 142.969899,114.693105 143.781465,115.869273 L153.227232,129.029192 C153.521374,129.39686 154.038799,129.470025 154.40786,129.25016 C154.628559,129.102358 154.776922,128.882493 154.776922,128.587991 L154.776922,118.442945 C154.776922,116.017075 156.696043,114.104102 159.130744,114.104102 L163.70674,114.104102 C170.421819,114.104102 175.809382,108.665198 175.882826,101.974019 L175.882826,35.8067566 C175.882826,29.1170484 170.421819,23.7513104 163.70674,23.6766739 L66.3667029,23.6766739 L66.3667029,23.7513104 Z" id="Fill-24" fill="#231F20"></path>
                <path d="M26.1080119,180 C25.5920576,180 25.1495475,179.926418 24.7055612,179.77999 C22.8602313,179.1906 21.5323319,177.424636 21.605776,175.511508 L21.605776,165.361261 C21.605776,164.993352 21.3101542,164.698656 20.9410882,164.698656 L16.3668845,164.698656 C7.65766556,164.698656 0.573444129,157.636639 0.5,148.881504 L0.5,82.8171524 C0.5,74.1367027 7.58422143,67.0732139 16.3668845,67 L50.7564522,67 C51.789837,67 52.6017821,67.8090323 52.6017821,68.839546 L52.6017821,102.680202 C52.6017821,109.37431 58.0624823,114.745049 64.7780068,114.818263 L127.65467,114.818263 C128.688424,114.818263 129.5,115.627295 129.5,116.657809 L129.5,148.954718 C129.5,157.636639 122.414302,164.698656 113.708036,164.77187 L39.7608696,164.77187 C39.5401681,164.77187 39.3179904,164.845084 39.2445463,165.066566 L29.7971954,178.23514 C28.9121752,179.264182 27.5827995,180 26.1080119,180 Z M16.3668845,70.6776204 C9.65172903,70.6776204 4.26262764,76.1230445 4.18918351,82.8171524 L4.18918351,148.881504 C4.18918351,155.575612 9.65172903,160.94635 16.3668845,161.019564 L20.9410882,161.019564 C23.3776618,161.019564 25.2964358,162.932324 25.2964358,165.361261 L25.2964358,175.511508 C25.2964358,175.952999 25.6655018,176.320908 26.1080119,176.320908 C26.4021575,176.320908 26.6243352,176.174112 26.7712234,175.952999 L36.2185743,162.785896 C37.0301504,161.682169 38.3580498,160.94635 39.7608696,160.94635 L113.633116,160.94635 C120.349747,160.94635 125.735896,155.502398 125.80934,148.807922 L125.80934,118.350559 L64.7780068,118.350559 C56.0687879,118.350559 48.9845665,111.288542 48.9111223,102.533406 L48.9111223,70.6776204 L16.3668845,70.6776204 Z" id="Fill-25" fill="#231F20"></path>
                <path d="M144.031081,34 C143.601766,34 143.234613,33.8196033 142.928396,33.5779683 C142.867459,33.5179366 142.806216,33.4579049 142.745279,33.3366349 C142.683117,33.2763016 142.62218,33.1562382 142.62218,33.0949999 C142.561243,32.9146032 142.5,32.7333015 142.5,32.4916665 C142.5,32.0696347 142.683117,31.709143 142.928396,31.4074763 C143.540829,30.8641746 144.459477,30.8641746 145.070685,31.4074763 C145.376901,31.709143 145.5,32.0696347 145.5,32.4916665 C145.5,32.6129365 145.5,32.6729681 145.437838,32.7933332 C145.437838,32.9146032 145.376901,32.9746349 145.376901,33.0949999 C145.315964,33.2162699 145.315964,33.2763016 145.255027,33.3366349 C145.193784,33.3966666 145.131622,33.5179366 145.070685,33.5779683 C144.826631,33.8196033 144.459477,34 144.031081,34 Z" id="Fill-26" fill="#231F20"></path>
                <path d="M151.9931,35 C151.873055,35 151.812731,35 151.691479,35 C151.571434,35 151.51111,34.9411547 151.389858,34.8820138 C151.269813,34.8231685 151.209489,34.8231685 151.148259,34.7643232 C151.088237,34.7042951 150.968192,34.6454498 150.907867,34.5863089 C150.846638,34.5274636 150.786616,34.4686183 150.726593,34.349745 C150.66657,34.290604 150.606246,34.1729134 150.606246,34.1128853 C150.545017,33.9948991 150.545017,33.9360538 150.545017,33.8171805 C150.484994,33.6403489 150.484994,33.4034893 150.545017,33.2257707 C150.545017,33.1077844 150.606246,33.0489392 150.606246,32.9300658 C150.66657,32.8132624 150.66657,32.7544171 150.726593,32.6955718 C150.786616,32.6355437 150.846638,32.5175575 150.907867,32.4587122 C150.968192,32.3998669 151.028214,32.3398388 151.148259,32.2809936 C151.209489,32.2218526 151.329835,32.1630073 151.389858,32.1630073 C151.51111,32.104162 151.571434,32.104162 151.691479,32.044134 C151.873055,31.9852887 152.114352,31.9852887 152.294722,32.044134 C152.476298,32.104162 152.656365,32.1630073 152.837941,32.2809936 C152.897964,32.3398388 153.019216,32.3998669 153.07954,32.4587122 C153.138356,32.5175575 153.198379,32.5766985 153.258401,32.6955718 C153.319631,32.7544171 153.379955,32.8712205 153.379955,32.9300658 C153.439977,33.0489392 153.439977,33.1077844 153.439977,33.2257707 C153.439977,33.344644 153.5,33.4034893 153.5,33.5214756 C153.5,33.6403489 153.5,33.6991942 153.439977,33.8171805 C153.439977,33.9360538 153.379955,33.9948991 153.379955,34.1128853 C153.319631,34.2317587 153.319631,34.290604 153.258401,34.349745 C153.198379,34.4085902 153.138356,34.5274636 153.07954,34.5863089 C153.019216,34.6454498 152.957987,34.7042951 152.837941,34.7643232 C152.777919,34.8231685 152.656365,34.8820138 152.596343,34.8820138 C152.476298,34.9411547 152.415973,34.9411547 152.294722,35 C152.174676,35 152.053123,35 151.9931,35 Z" id="Fill-27" fill="#231F20"></path>
                <path d="M156.999885,34 C156.571893,34 156.204824,33.8177424 155.898678,33.5736148 C155.837449,33.5129639 155.775302,33.452313 155.714379,33.329792 C155.653456,33.2688363 155.592533,33.1475345 155.592533,33.0856644 C155.469156,32.720235 155.469156,32.2938498 155.592533,31.9284204 C155.653456,31.8665503 155.653456,31.7461628 155.714379,31.6855119 C155.775302,31.624861 155.837449,31.50234 155.898678,31.4413843 C156.265747,31.0759549 156.755887,30.9534339 157.245108,31.0153039 C157.368179,31.0153039 157.429408,31.0759549 157.551254,31.1366058 C157.674325,31.1975615 157.735554,31.1975615 157.796477,31.2582124 C157.8574,31.3200825 157.98047,31.3807334 158.0417,31.4413843 C158.652767,32.0497222 158.652767,33.0250135 158.0417,33.5736148 C157.98047,33.6345706 157.918323,33.6952215 157.796477,33.7570915 C157.612177,33.8783934 157.429408,33.9393491 157.245108,34 C157.245108,33.9393491 157.123262,34 156.999885,34 Z" id="Fill-28" fill="#231F20"></path>
            </g>
        </g>
    </g>
</svg>