<svg id="Capa_1" data-name="Capa 1" xmlns="http://www.w3.org/2000/svg" viewBox="0 0 200 200"><defs><style>.cls-1{fill:#eaf0fa;}.cls-2{fill:#ecebe4;}.cls-3{fill:#fafaf8;}.cls-4{fill:#d3d2cd;}.cls-5{fill:#f8af31;}.cls-6{fill:#f4ae7f;}.cls-7{fill:#4e4b9a;}.cls-8{fill:#6380bf;}.cls-9{fill:#ffd989;}.cls-10{fill:#a94f68;}.cls-11{fill:#c86377;}.cls-12{fill:#181c24;}.cls-13{fill:#f9c092;}</style></defs><title>icons people</title><path class="cls-1" d="M173.6,163.29c0,2.28-33.76,4.12-75.39,4.12s-75.39-1.84-75.39-4.12,33.75-4.11,75.39-4.11S173.6,161,173.6,163.29Z"/><rect class="cls-2" x="91.57" y="78.5" width="79.67" height="74.68"/><rect class="cls-3" x="93.44" y="80.72" width="74.34" height="6.59"/><rect class="cls-3" x="94.5" y="90.6" width="28.25" height="59.42"/><rect class="cls-4" x="96.9" y="129.13" width="22.12" height="17.27"/><rect class="cls-4" x="96.9" y="95.11" width="22.12" height="2.44"/><rect class="cls-4" x="96.9" y="100.59" width="22.12" height="2.44"/><rect class="cls-4" x="96.9" y="107.18" width="22.12" height="2.44"/><rect class="cls-4" x="96.9" y="112.66" width="22.12" height="2.44"/><rect class="cls-4" x="130.74" y="90.6" width="37.04" height="2.93"/><rect class="cls-4" x="130.74" y="96.08" width="37.04" height="2.93"/><rect class="cls-4" x="130.74" y="102.67" width="37.04" height="2.93"/><rect class="cls-3" x="130.74" y="109.62" width="37.04" height="38.68"/><rect class="cls-4" x="133.94" y="113.89" width="31.44" height="17.41"/><rect class="cls-4" x="94.5" y="82.36" width="40.37" height="3.11"/><rect class="cls-4" x="150.33" y="82.36" width="15.99" height="3.11"/><path class="cls-5" d="M104.94,101.07s1.39-3.33,2.21-3.46,3.28.63-1,4.33Z"/><path class="cls-6" d="M79.43,113.39l15,6.5,12.16-18.13-1.48-1.08L93.56,113.15,80,108.1s-6-2.25-5.59,1C74.57,110.75,76.38,112,79.43,113.39Z"/><path class="cls-7" d="M68.75,89.09c4.81,4.8,11.67,5.73,15.32,2.07S86.77,80.65,82,75.85s-11.68-5.73-15.32-2.07S63.94,84.29,68.75,89.09Z"/><path class="cls-8" d="M76.46,82.73c6.4,6.39,12.86,10.31,14.42,8.74s-2.37-8-8.78-14.4-12.86-10.3-14.42-8.74S70.05,76.34,76.46,82.73Z"/><path class="cls-7" d="M117.18,43.35C130,56.13,142.91,64,146,60.84s-4.75-16-17.56-28.8S102.74,11.43,99.63,14.55,104.37,30.57,117.18,43.35Z"/><path class="cls-7" d="M128.47,32c12.81,12.78,20.67,25.67,17.56,28.8L99.63,14.55C102.74,11.43,115.66,19.26,128.47,32Z"/><path class="cls-7" d="M145,61.39l1-.55A2.33,2.33,0,0,1,145,61.39Z"/><path class="cls-7" d="M99.63,14.55l-.51.85A2.15,2.15,0,0,1,99.63,14.55Z"/><rect class="cls-8" x="99.72" y="71.53" width="13.15" height="51.43" transform="translate(-34.93 125.72) rotate(-53.85)"/><path class="cls-9" d="M107.66,52.9c6.37,6.35,15.8,7.23,21.06,2s4.36-14.7-2-21.06-15.8-7.23-21.06-2S101.29,46.54,107.66,52.9Z"/><path class="cls-8" d="M67.68,68.33,99.12,15.4c-1.42,4.18,6.19,16.11,18.06,28s23.55,19.25,27.85,18L90.88,91.47Z"/><path class="cls-8" d="M121.6,116.47a6.62,6.62,0,1,0,.15-9.19A6.49,6.49,0,0,0,121.6,116.47Z"/><path class="cls-9" d="M109.9,98.07a3.14,3.14,0,1,0,0-4.44A3.14,3.14,0,0,0,109.9,98.07Z"/><polygon class="cls-10" points="81.54 132.86 97.88 159.59 100.15 159.19 93.11 134.01 81.54 132.86"/><path class="cls-11" d="M71.2,128.91s-6.11,11.13,6.2,11,15,.38,15,.38l-9.3,13.94.8,2.1s18.39-19.56,18.65-21.85S106.21,130,71.2,128.91Z"/><polygon class="cls-7" points="83 153.28 85.21 155.5 83.69 156.98 83.45 158.03 84.47 163.54 83.74 162.64 81.32 158.63 80.86 158.53 79.8 157.2 83 153.28"/><polygon class="cls-7" points="97.38 159.37 100.48 158.94 100.76 161.04 101.47 161.86 106.47 164.35 105.32 164.39 100.67 163.92 100.31 164.24 98.6 164.28 97.38 159.37"/><path class="cls-5" d="M81.79,108c-.16.64,2.46,1.14,2.61.49a13.35,13.35,0,0,0,.37-3.33L83,104S82.13,106.6,81.79,108Z"/><path class="cls-5" d="M84.24,106.1c.17.05,1.75.64,2.16-.12a10.88,10.88,0,0,0,.63-4.5,2.16,2.16,0,0,0-2.06-1.3c-.64.14-2.55,1.53-2.22,4.59A2.88,2.88,0,0,0,84.24,106.1Z"/><path class="cls-12" d="M87.39,101.55s-.34,1-1,.76-1.88-.66-2.11-.14-.07,2.48-.54,2.87-1.54.75-1.62,0,.28-5,2.65-5.52C84.73,99.56,87,99.52,87.39,101.55Z"/><polygon class="cls-7" points="89.64 109.68 84.9 130.02 69.69 130.98 75.47 107.12 89.64 109.68"/><path class="cls-13" d="M112.07,106.65s1.41-2.62,2.09-2.66,2.63.77-1.2,3.46Z"/><path class="cls-13" d="M90.19,114.71l11.75,6.51,11.41-13.88-1.13-1-10.43,9.3L91,110.41s-4.74-2.32-4.66.38C86.42,112.16,87.8,113.33,90.19,114.71Z"/></svg>