<svg id="Capa_1" data-name="Capa 1" xmlns="http://www.w3.org/2000/svg" viewBox="0 0 200 200"><defs><style>.cls-1{fill:#eaf0fa;}.cls-2{opacity:0.6;}.cls-3{fill:#dae2f2;}.cls-4{fill:#ffd989;}.cls-5{fill:#fff;}.cls-6{fill:#40bac2;}.cls-7{fill:#6fc2b6;}.cls-8{fill:#6380bf;}.cls-9{fill:#bb5b72;}.cls-10{fill:#7a91ca;}.cls-11{fill:#c86377;}.cls-12{fill:#2e3b57;}.cls-13{fill:#f9c092;}</style></defs><title>icons people</title><path class="cls-1" d="M170.32,163.8c0,2.07-33.3,3.75-74.39,3.75s-74.39-1.68-74.39-3.75,33.31-3.75,74.39-3.75S170.32,161.73,170.32,163.8Z"/><g class="cls-2"><path class="cls-3" d="M73.87,51.7A44.43,44.43,0,1,0,118.3,96.13,44.43,44.43,0,0,0,73.87,51.7Zm0,67.79A23.37,23.37,0,1,1,97.24,96.13,23.36,23.36,0,0,1,73.87,119.49Z"/><path class="cls-3" d="M84.19,62h-20s-3.43-16,0-19.4,16.88-3.89,20,0S84.19,62,84.19,62Z"/><path class="cls-3" d="M82.32,130.7h-20s-3.43,16,0,19.4,16.88,3.89,20,0S82.32,130.7,82.32,130.7Z"/><path class="cls-3" d="M55.57,64.58,43.32,80.42S28.59,73.36,28,68.55s7.25-15.73,12.25-15.84S55.57,64.58,55.57,64.58Z"/><path class="cls-3" d="M40.47,88.73l-3.26,19.76s-16.32.77-19.15-3.17S17,88,21.33,85.56,40.47,88.73,40.47,88.73Z"/><path class="cls-3" d="M107.9,107.36l.82-20s16.1-2.78,19.39.79,3.2,17-.82,20S107.9,107.36,107.9,107.36Z"/><path class="cls-3" d="M91.77,64,104,79.79s14.73-7.06,15.35-11.86c.63-5-7.25-15.74-12.25-15.85S91.77,64,91.77,64Z"/><path class="cls-3" d="M52.59,129.3,40.34,113.46S25.61,120.51,25,125.33s7.24,15.73,12.24,15.84S52.59,129.3,52.59,129.3Z"/><path class="cls-3" d="M92.55,129.93l12.24-15.85s14.74,7.06,15.35,11.87c.64,5-7.24,15.73-12.25,15.84C103,141.9,92.55,129.93,92.55,129.93Z"/></g><g class="cls-2"><path class="cls-4" d="M168.41,40.14a16.16,16.16,0,1,0,8.4,21.25A16.15,16.15,0,0,0,168.41,40.14Zm-9.8,22.62a8.49,8.49,0,1,1,11.17-4.42A8.49,8.49,0,0,1,158.61,62.76Z"/><path class="cls-4" d="M170.36,45.08l-6.68-2.9s1.16-5.82,2.8-6.47,6.19,1.14,6.68,2.9S170.36,45.08,170.36,45.08Z"/><path class="cls-4" d="M159.81,67.72l-6.69-2.9s-3.45,4.83-2.8,6.47,5.07,3.74,6.68,2.9S159.81,67.72,159.81,67.72Z"/><path class="cls-4" d="M160.44,41.79l-6.38,3.52s-3.89-4.49-3.4-6.18,4.69-4.2,6.37-3.52S160.44,41.79,160.44,41.79Z"/><path class="cls-4" d="M151.91,47.67,148,53.79S142.41,51.69,142,50s2.14-5.92,4-6.12S151.91,47.67,151.91,47.67Z"/><path class="cls-4" d="M171.71,63.63l3.17-6.56s5.77,1.4,6.35,3.07-1.39,6.14-3.16,6.55S171.71,63.63,171.71,63.63Z"/><path class="cls-4" d="M172.61,46.82l1.79,7s5.94-.22,6.84-1.74-.15-6.3-1.8-7.05S172.61,46.82,172.61,46.82Z"/><path class="cls-4" d="M150.09,63l-1.8-7.05s-5.93.22-6.83,1.74.14,6.29,1.8,7S150.09,63,150.09,63Z"/><path class="cls-4" d="M163.33,68.94l6.38-3.52s3.89,4.49,3.4,6.18-4.69,4.2-6.38,3.51S163.33,68.94,163.33,68.94Z"/></g><circle class="cls-4" cx="143.54" cy="80.11" r="7.97" transform="translate(-19.69 60.72) rotate(-22.39)"/><polygon class="cls-5" points="143.54 74.5 145.24 77.94 149.03 78.49 146.28 81.16 146.93 84.94 143.54 83.15 140.15 84.94 140.8 81.16 138.05 78.49 141.84 77.94 143.54 74.5"/><circle class="cls-4" cx="116.41" cy="79.13" r="7.97"/><path class="cls-5" d="M119.91,76.24c-1.19-.64-2.76.16-3.49,1.27-.73-1.11-2.37-1.91-3.57-1.27A2.26,2.26,0,0,0,112,79.5c.68,1.26,4.45,4.34,4.45,4.3s3.78-3,4.46-4.3A2.27,2.27,0,0,0,119.91,76.24Z"/><circle class="cls-6" cx="129.59" cy="63.66" r="7.97"/><rect class="cls-5" x="128.68" y="59.25" width="1.82" height="8.83"/><rect class="cls-5" x="125.17" y="62.75" width="8.83" height="1.82"/><circle class="cls-7" cx="130.64" cy="97.1" r="10.43" transform="matrix(0.92, -0.39, 0.39, 0.92, -27.32, 57.79)"/><path class="cls-5" d="M136.45,101.75H125.09a.85.85,0,0,1-.85-.85V93.64a.85.85,0,0,1,.85-.85h11.36a.85.85,0,0,1,.85.85v7.26A.85.85,0,0,1,136.45,101.75Zm-10.51-1.7h9.66V94.49h-9.66Z"/><path class="cls-5" d="M132.53,97.08a1.62,1.62,0,1,1-3.23,0,1.62,1.62,0,0,1,3.23,0Z"/><path class="cls-5" d="M133.83,94.27a1.06,1.06,0,0,1-1.06-1.07v-.86a1.06,1.06,0,1,1,2.12,0v.86A1.06,1.06,0,0,1,133.83,94.27Z"/><circle class="cls-6" cx="155.34" cy="97.41" r="9.66" transform="translate(27.33 228.68) rotate(-77.81)"/><path class="cls-5" d="M162.4,98s-2.66,3.94-7.29,3.68A9,9,0,0,1,148.58,98s1.9-4.31,6.53-4.43A7.71,7.71,0,0,1,162.4,98Z"/><path class="cls-6" d="M158.53,97.7a2.92,2.92,0,1,1-2.91-2.91A2.91,2.91,0,0,1,158.53,97.7Z"/><path class="cls-8" d="M158.12,150.08H129a6.51,6.51,0,0,1-6.5-6.5v-.1A6.5,6.5,0,0,1,129,137h29.14a1.7,1.7,0,0,1,0,3.4H129a3.1,3.1,0,0,0-3.1,3.1v.1a3.1,3.1,0,0,0,3.1,3.1h29.14a1.7,1.7,0,0,1,0,3.4Z"/><path class="cls-8" d="M126,140.35a1.28,1.28,0,0,1-1.22-.91L115.89,110h49.68L160,139.31a1.27,1.27,0,1,1-2.5-.48l5-26.28H119.32l7.91,26.15a1.28,1.28,0,0,1-.85,1.59A1.19,1.19,0,0,1,126,140.35Z"/><path class="cls-8" d="M117.6,112.55a1.29,1.29,0,0,1-1.2-.85l-2.84-8h-6.43a1.27,1.27,0,0,1,0-2.54h8.23l3.44,9.66a1.29,1.29,0,0,1-1.2,1.71Z"/><path class="cls-8" d="M107.12,104.57h-6.9a2.12,2.12,0,0,1,0-4.24h6.9a2.12,2.12,0,0,1,0,4.24Z"/><path class="cls-8" d="M134,157a5.84,5.84,0,1,1-5.84-5.85A5.84,5.84,0,0,1,134,157Z"/><circle class="cls-8" cx="155.67" cy="157" r="5.84"/><path class="cls-5" d="M130.92,157a2.73,2.73,0,1,1-2.73-2.73A2.72,2.72,0,0,1,130.92,157Z"/><path class="cls-5" d="M158.68,157a2.73,2.73,0,1,1-2.73-2.73A2.72,2.72,0,0,1,158.68,157Z"/><path class="cls-8" d="M131.87,139.65a1.28,1.28,0,0,1-1.25-1.06l-4.53-26.06a1.27,1.27,0,0,1,2.51-.43l4.53,26.05a1.27,1.27,0,0,1-1,1.48Z"/><path class="cls-8" d="M138.25,139.08a1.27,1.27,0,0,1-1.27-1.19l-1.7-25.77a1.27,1.27,0,1,1,2.54-.17l1.7,25.77a1.28,1.28,0,0,1-1.19,1.36Z"/><path class="cls-8" d="M151.56,139.65l-.2,0a1.28,1.28,0,0,1-1.06-1.46l4.11-26a1.28,1.28,0,0,1,2.52.39l-4.11,26.06A1.28,1.28,0,0,1,151.56,139.65Z"/><path class="cls-8" d="M144.76,139.08h-.06a1.28,1.28,0,0,1-1.21-1.34L144.76,112a1.28,1.28,0,1,1,2.55.13L146,137.87A1.28,1.28,0,0,1,144.76,139.08Z"/><path class="cls-8" d="M161.19,121.52H120.41a1.28,1.28,0,1,1,0-2.55h40.78a1.28,1.28,0,0,1,0,2.55Z"/><path class="cls-8" d="M159.77,130.58h-36a1.27,1.27,0,1,1,0-2.54h36a1.27,1.27,0,1,1,0,2.54Z"/><path class="cls-9" d="M67,92.82,56.3,98.4l13.44,24.32S68.48,130.16,73,144l3.56,12.27,2.23-.25-4.12-34.61S72.28,104.72,67,92.82Z"/><polygon class="cls-10" points="75.79 155.67 78.97 154.28 79.95 156.79 80.96 157.59 87.14 159.28 85.92 159.64 80.78 160.34 80.5 160.83 78.69 161.34 75.79 155.67"/><path class="cls-11" d="M63.05,97.34l-12.16.52,1.93,25.55s-5.47,5.2-10.13,19l-4.49,12,1.93,1.12,17.43-30.17S63.42,107.84,63.05,97.34Z"/><polygon class="cls-10" points="38.55 152.27 41.81 154.51 40.27 156.72 40.24 158.07 42.8 164.69 41.68 163.74 37.73 159.33 37.12 159.32 35.5 157.91 38.55 152.27"/><path class="cls-12" d="M60.77,56.73s-3.42.67-4,2.94S55.33,63.19,52.71,65,46,69.82,46.39,72.51c.7,4.27-2.24,6.5-1.09,8.82s4.13,1.22,5,0S58,74.25,59,72.06s3.86-.71,5.05-2.2.48-3.87,1-4.71c2-3.09.64-5.74-1.12-7.55S60.77,56.73,60.77,56.73Z"/><path class="cls-13" d="M99.08,67.45s2.61-3.53,3.62-3.45c.85.07,3.69,1.7-2.5,4.82Z"/><path class="cls-7" d="M66.14,76.09,82.33,87.65l18.5-18.92-1.49-2L82.9,79.4,67.81,70.17s-4.82-3.51-6.91-.1A19.51,19.51,0,0,0,66.14,76.09Z"/><path class="cls-8" d="M53.5,69s-2.43,2.17-3.78,7.73.82,13,.82,13l-.14,12.8,19.11-1.91L71.4,87.46l-2.49-3.9,1.86-3.92L65.48,67.37Z"/><path class="cls-13" d="M60.13,63.74,58,68.31s5.16,5.37,5,2.85a57.67,57.67,0,0,1,.36-6.83Z"/><path class="cls-13" d="M60.2,57.29c-.59.94-1.77,2.77-1.44,4.21s.75,4,2.17,4.85,2.14-.8,2.58-1.31,2.27-6,.07-7.79C61.91,55.89,60.65,56.57,60.2,57.29Z"/><path class="cls-12" d="M62.44,58.34s-2,2.72-4.1,3c0,0-1.63-4.63,3.47-5.24,0,0,5.41,1.39,3.07,5.16C64.88,61.23,62.36,59.84,62.44,58.34Z"/><path class="cls-13" d="M69.32,104.42s4.29,1,4.61,1.94c.28.8-.07,4.06-5.41-.35Z"/><path class="cls-7" d="M49.22,76.39,44.55,95.7l24.28,10.81,1-2L52.46,93.29,55.69,75.9s1.55-5.76-2.38-6.49A17.34,17.34,0,0,0,49.22,76.39Z"/></svg>