<?xml version="1.0" encoding="UTF-8"?>
<svg width="253px" height="225px" viewBox="0 0 253 225" version="1.1" xmlns="http://www.w3.org/2000/svg" xmlns:xlink="http://www.w3.org/1999/xlink">
    <!-- Generator: Sketch 64 (93537) - https://sketch.com -->
    <title>Group 14</title>
    <desc>Created with Sketch.</desc>
    <defs>
        <polygon id="path-1" points="0.417989418 0 157.582011 0 157.582011 161 0.417989418 161"></polygon>
    </defs>
    <g id="Page-1" stroke="none" stroke-width="1" fill="none" fill-rule="evenodd">
        <g id="Desktop-HD-Copy-5" transform="translate(-833.000000, -1619.000000)">
            <g id="Group-14" transform="translate(837.000000, 1619.000000)">
                <g id="Group-11">
                    <path d="M224.888333,7.33520695 C221.277232,6.67877217 218.431376,3.83239653 217.663395,0.108949558 C217.663395,0 217.554465,0 217.445535,0 C217.336605,0 217.336605,0.108949558 217.336605,0.108949558 C216.677554,3.72344697 213.831697,6.56982261 210.10893,7.33520695 C210,7.33520695 210,7.44689393 210,7.55584349 C210,7.66479305 210.10893,7.66479305 210.10893,7.66479305 C213.722768,8.32122783 216.568624,11.1676035 217.336605,14.8910504 C217.336605,15 217.445535,15 217.554465,15 C217.663395,15 217.663395,14.8910504 217.663395,14.8910504 C218.31971,11.2792905 221.168303,8.43017739 224.888333,7.66479305 C225,7.66479305 225,7.55584349 225,7.44689393 C225,7.44689393 225,7.33520695 224.888333,7.33520695 Z" id="Fill-11" fill="#FFCD29"></path>
                    <path d="M150.933854,221.964104 C150.933854,221.766089 150.833153,221.667081 150.833153,221.466579 C150.732452,221.367571 150.732452,221.169556 150.63175,221.070549 C150.528519,220.969054 150.427818,220.771039 150.327116,220.672032 C149.315044,219.775989 147.796935,219.775989 146.784862,220.672032 C146.684161,220.771039 146.58346,220.870047 146.480228,221.070549 C146.278826,221.367571 146.178125,221.667081 146.077424,221.964104 C145.974192,222.263614 145.974192,222.662131 146.077424,222.959153 C146.077424,223.159656 146.178125,223.258663 146.178125,223.456678 C146.278826,223.657181 146.278826,223.756188 146.379527,223.855195 C146.480228,223.954203 146.58346,224.154705 146.684161,224.253713 C147.696234,225.248762 149.214343,225.248762 150.226415,224.253713 C150.327116,224.154705 150.427818,224.055698 150.528519,223.855195 C150.63175,223.756188 150.732452,223.558173 150.732452,223.456678 C150.833153,223.357671 150.833153,223.159656 150.833153,222.959153 C151.034555,222.662131 151.034555,222.362621 150.933854,221.964104 Z" id="Fill-13" fill="#6DCC6D"></path>
                    <polygon id="Path-5" fill="#ACDEF9" points="167.179727 40 242 71.1662327 242 160.416633 167.179727 193 92 160.416633 92.4153576 74.4468888"></polygon>
                    <polygon id="Path-6" fill="#55ACD5" points="97.839314 73 96 161.788808 169.994657 195 173 106.632432 139.204341 94.7621622 139.204341 123.778378 120.976892 117.183784 120.976892 85.5297297"></polygon>
                    <polygon id="Path-7" stroke="#55ACD5" fill="#55ACD5" points="118 85.5915663 118 118.794951 138.757051 127 140.292867 94.3678876 212 59.6300346 190.611416 49"></polygon>
                    <g id="Group-3" transform="translate(91.000000, 38.000000)">
                        <mask id="mask-2" fill="white">
                            <use xlink:href="#path-1"></use>
                        </mask>
                        <g id="Clip-2"></g>
                        <path d="M151.542484,121.665848 L82.0214674,153.311714 L82.0214674,72.7120042 L151.542484,41.0661378 L151.542484,121.665848 Z M79,67.4744657 L55.1367129,56.6107313 L120.969937,25.0208723 L147.006023,36.5176598 L79,67.4744657 Z M75.9819409,153.311714 L6.45751591,121.665848 L6.45751591,41.0661378 L23.6797097,48.9054737 L23.6797097,81.2522809 C23.6797097,82.4165555 24.3545552,83.4756042 25.4111315,83.9711846 L46.206939,93.7453209 C46.6159363,93.9388009 47.0556083,94.0338437 47.4935763,94.0338437 C48.0576517,94.0338437 48.6200229,93.8760047 49.1108197,93.5671156 C49.9850513,93.0138305 50.5150437,92.0566135 50.5150437,91.0264172 L50.5150437,61.1201739 L75.9819409,72.7120042 L75.9819409,153.311714 Z M79,6.48921861 L93.6489192,12.9572223 L28.214467,44.3569957 L10.9939774,36.5176598 L79,6.48921861 Z M46.184785,54.2312663 C45.1401377,54.7319383 44.4755172,55.7841982 44.4755172,56.9399868 L44.4755172,86.2810647 L29.7192362,79.3463329 L29.7192362,50.3107498 L100.894988,16.1564317 L113.723869,21.8216629 L46.184785,54.2312663 Z M80.2610749,0.267307946 C79.4584178,-0.0891026486 78.5415822,-0.0891026486 77.7389251,0.267307946 L2.24654809,33.5984873 C0.965023279,34.1653498 0.417989418,35.3279273 0.417989418,36.8061826 L0.417989418,123.597254 C0.417989418,124.775106 1.10817233,125.842641 2.18349434,126.33313 L77.7440375,160.728449 C78.1462182,160.910049 78.572257,161 79,161 C79.4805718,161 79.8196987,160.947387 80.2525542,160.723357 C80.2525542,160.725055 155.816506,126.33313 155.816506,126.33313 C156.891828,125.842641 157.582011,124.775106 157.582011,123.597254 L157.582011,36.8061826 C157.582011,35.4059982 157.036681,34.1653498 155.753452,33.5984873 L80.2610749,0.267307946 Z" id="Fill-1" fill="#000000" mask="url(#mask-2)"></path>
                    </g>
                    <g id="Group-10" transform="translate(0.000000, 85.000000)" stroke="#000000" stroke-linecap="round" stroke-linejoin="round" stroke-width="8">
                        <line x1="10.7532184" y1="0.4375" x2="74.7118978" y2="0.4375" id="Line"></line>
                        <line x1="34.8837209" y1="21" x2="74.7134551" y2="21" id="Line-Copy"></line>
                        <line x1="0" y1="55.125" x2="74.7115385" y2="55.125" id="Line-Copy-2"></line>
                    </g>
                </g>
            </g>
        </g>
    </g>
</svg>