<svg id="Capa_1" data-name="Capa 1" xmlns="http://www.w3.org/2000/svg" viewBox="0 0 200 200"><defs><style>.cls-1{fill:#dae2f2;}.cls-2{fill:#6380bf;}.cls-3{fill:#d8dade;}.cls-4{fill:#eaf0fa;}.cls-5{fill:#ffd989;}.cls-6{fill:#4e4b9a;}.cls-7{fill:#6fc2b6;}.cls-8{fill:#f0c542;}.cls-9{fill:#fbd77d;}.cls-10{fill:#fbd785;}.cls-11{fill:#dbab35;}.cls-12{fill:#f9c092;}.cls-13{fill:#2e3b57;}.cls-14{fill:#c86377;}</style></defs><title>icons people</title><path class="cls-1" d="M148,122.5a16.77,16.77,0,1,0,23.55,2.8A16.78,16.78,0,0,0,148,122.5Zm15.83,20.11a8.82,8.82,0,1,1,1.47-12.39A8.83,8.83,0,0,1,163.78,142.61Z"/><path class="cls-1" d="M153.42,123.15l-5.94,4.68s-4.74-3.93-4.53-5.75,4.1-5.1,5.94-4.68S153.42,123.15,153.42,123.15Z"/><path class="cls-1" d="M168.9,144,163,148.64s2.72,5.53,4.53,5.75,5.92-2.79,5.94-4.68S168.9,144,168.9,144Z"/><path class="cls-1" d="M145.53,130.59l.06,7.57s-6,1.34-7.32.06-1.52-6.36-.06-7.56S145.53,130.59,145.53,130.59Z"/><path class="cls-1" d="M146.69,141.28l3.65,6.63s-4.66,4-6.42,3.53-4.36-4.88-3.65-6.63S146.69,141.28,146.69,141.28Z"/><path class="cls-1" d="M171,131.06l-4.43-6.12s4.13-4.58,5.93-4.3,4.93,4.31,4.43,6.13S171,131.06,171,131.06Z"/><path class="cls-1" d="M156.12,122l7.33,1.83s2.72-5.53,1.78-7.1-5.82-3-7.33-1.84S156.12,122,156.12,122Z"/><path class="cls-1" d="M159.76,150.49l-7.33-1.84s-2.72,5.53-1.78,7.1,5.82,3,7.33,1.84S159.76,150.49,159.76,150.49Z"/><path class="cls-1" d="M171.76,141.34l-.07-7.56s6-1.34,7.32-.06,1.53,6.36.07,7.56S171.76,141.34,171.76,141.34Z"/><path class="cls-2" d="M67.84,149.26a3,3,0,0,1-1,4.17h0a3,3,0,0,1-4.18-1L35.92,108a3,3,0,0,1,1-4.18h0a3,3,0,0,1,4.17,1Z"/><path class="cls-2" d="M34.67,94.06l4.24,7.06-5.22,3.14L29.45,97.2a8,8,0,1,0,5.22-3.14Z"/><path class="cls-3" d="M88.83,135.35h-1.1v-1.27h1.09c1.71,0,2.69,0,2.69,0l0,1.27S90.58,135.35,88.83,135.35Zm-4.93-.09c-1.17,0-2.45-.1-3.82-.18l.07-1.26c1.36.08,2.63.13,3.8.18Zm-7.64-.45c-1.23-.1-2.5-.23-3.81-.37l.13-1.26c1.3.14,2.57.26,3.78.37ZM68.64,134c-1.24-.17-2.5-.37-3.78-.58l.21-1.25q1.91.31,3.75.57Zm-7.55-1.28c-1.24-.25-2.49-.53-3.74-.83l.29-1.23c1.24.3,2.47.57,3.7.82Zm-7.45-1.8c-1.27-.36-2.5-.74-3.67-1.14l.4-1.2c1.16.39,2.37.77,3.62,1.12Zm-7.28-2.46c-1.2-.48-2.39-1-3.53-1.54l.55-1.14c1.11.53,2.27,1,3.45,1.5Zm-6.94-3.32c-1.15-.65-2.25-1.34-3.27-2.06l.73-1c1,.69,2,1.37,3.16,2Zm-6.32-4.43A31,31,0,0,1,30.34,118l.95-.84a29.63,29.63,0,0,0,2.64,2.61ZM28,114.88a25.63,25.63,0,0,1-1.89-3.39l1.16-.53A22.11,22.11,0,0,0,29,114.18Zm-3.21-7A24,24,0,0,1,24,104l1.25-.15A24.16,24.16,0,0,0,26,107.5Zm.31-7.67H23.8a34.73,34.73,0,0,1,.28-3.87l1.26.16A34.48,34.48,0,0,0,25.07,100.17Zm.93-7.4-1.23-.28c.27-1.21.62-2.46,1-3.72l1.21.38C26.61,90.38,26.27,91.6,26,92.77Zm2.23-7.18L27,85.15c.46-1.21.94-2.4,1.44-3.56l1.17.51C29.15,83.23,28.67,84.41,28.23,85.59Zm3-6.9-1.14-.57c.58-1.15,1.19-2.28,1.83-3.38l1.09.64C32.41,76.45,31.81,77.57,31.25,78.69ZM35,72.18,34,71.48c.72-1.07,1.47-2.13,2.24-3.13l1,.77C36.45,70.1,35.72,71.13,35,72.18Zm4.57-6-1-.84c.85-1,1.74-1.9,2.64-2.79l.89.91C41.29,64.35,40.42,65.27,39.59,66.21Zm35.59-.4a9.08,9.08,0,0,1-3.67-1.72l.78-1a7.78,7.78,0,0,0,3.15,1.48Zm4.1-.6-.54-1.14a4.61,4.61,0,0,0,2.35-2.27l1.17.49A5.82,5.82,0,0,1,79.28,65.21ZM68.87,61.05a10.9,10.9,0,0,1-1.32-3.79l1.26-.19A9.54,9.54,0,0,0,70,60.42ZM45,61l-.82-1c1-.83,2-1.62,3-2.35l.74,1C46.91,59.39,45.91,60.16,45,61Zm35.9-2.3a10.34,10.34,0,0,0-2.21-2.8l.87-.92A11.26,11.26,0,0,1,82,58.09Zm-29.79-2-.64-1.09q1.69-1,3.42-1.8l.53,1.15C53.27,55.41,52.15,56,51.06,56.63Zm24.68-3a12.5,12.5,0,0,0-3.32-1.38L72.74,51a13.66,13.66,0,0,1,3.67,1.52Zm-6.85-.11-1.25-.23a12.9,12.9,0,0,1,.4-1.6,24.71,24.71,0,0,0-3,.13L65,50.54a25,25,0,0,1,3.54-.13c.12-.3.26-.6.41-.9l1.13.56A13.59,13.59,0,0,0,68.89,53.5Zm-11.06,0-.42-1.2a38.1,38.1,0,0,1,3.72-1.09l.29,1.24A33.06,33.06,0,0,0,57.83,53.47ZM72,47l-1-.77A25.62,25.62,0,0,1,73.6,43.3l.88.91A24.83,24.83,0,0,0,72,47Zm5.32-5.16-.77-1c.74-.56,1.51-1.11,2.32-1.64l.7,1.05C78.79,40.72,78,41.25,77.32,41.8Z"/><path class="cls-4" d="M192.83,160c0,1.83-40.64,3.3-90.76,3.3s-90.75-1.47-90.75-3.3,40.63-3.3,90.75-3.3S192.83,158.22,192.83,160Z"/><path class="cls-5" d="M40.5,119.2a12.06,12.06,0,1,0,14.74,8.59A12.07,12.07,0,0,0,40.5,119.2ZM45.19,137a6.34,6.34,0,1,1,4.52-7.75A6.35,6.35,0,0,1,45.19,137Z"/><path class="cls-5" d="M43.92,121.2l-5.25,1.39s-2-4-1.35-5.1,4.16-2.19,5.26-1.38S43.92,121.2,43.92,121.2Z"/><path class="cls-5" d="M48.19,139.35l-5.26,1.39s.21,4.43,1.35,5.09,4.7-.14,5.25-1.39S48.19,139.35,48.19,139.35Z"/><path class="cls-5" d="M36.59,123.85l-2.12,5s-4.36-.83-4.85-2.05.81-4.63,2.12-5S36.59,123.85,36.59,123.85Z"/><path class="cls-5" d="M34.3,131.24l.51,5.41s-4.23,1.33-5.24.5-1.49-4.47-.51-5.42S34.3,131.24,34.3,131.24Z"/><path class="cls-5" d="M53.29,131.45l-1.18-5.3s4-1.85,5.15-1.14,2,4.25,1.17,5.31S53.29,131.45,53.29,131.45Z"/><path class="cls-5" d="M46,121.18l4.32,3.31s3.37-2.87,3.2-4.18-3-3.63-4.31-3.31S46,121.18,46,121.18Z"/><path class="cls-5" d="M40.29,141.05,36,137.74s-3.38,2.87-3.21,4.18,3,3.62,4.31,3.3S40.29,141.05,40.29,141.05Z"/><path class="cls-5" d="M50.82,138.44l2.12-5s4.35.84,4.85,2-.81,4.64-2.12,5S50.82,138.44,50.82,138.44Z"/><path class="cls-5" d="M116.28,51.41A21.91,21.91,0,1,0,143.07,67,21.91,21.91,0,0,0,116.28,51.41Zm8.54,32.33A11.53,11.53,0,1,1,133,69.65,11.53,11.53,0,0,1,124.82,83.74Z"/><path class="cls-5" d="M122.51,55,113,57.55s-3.65-7.18-2.44-9.25,7.55-4,9.55-2.52S122.51,55,122.51,55Z"/><path class="cls-5" d="M130.26,88l-9.55,2.53s.38,8,2.44,9.25,8.54-.27,9.55-2.53S130.26,88,130.26,88Z"/><path class="cls-5" d="M109.18,59.85,105.33,69s-7.91-1.51-8.81-3.73,1.47-8.42,3.85-9.1S109.18,59.85,109.18,59.85Z"/><path class="cls-5" d="M105,73.27,106,83.1s-7.68,2.43-9.52.9-2.7-8.11-.93-9.83S105,73.27,105,73.27Z"/><path class="cls-5" d="M139.53,73.66,137.39,64s7.33-3.36,9.34-2.07,3.68,7.72,2.14,9.65S139.53,73.66,139.53,73.66Z"/><path class="cls-5" d="M126.36,55l7.84,6s6.14-5.22,5.82-7.6-5.43-6.59-7.83-6S126.36,55,126.36,55Z"/><path class="cls-5" d="M115.91,91.09l-7.84-6s-6.14,5.22-5.82,7.59,5.43,6.59,7.83,6S115.91,91.09,115.91,91.09Z"/><path class="cls-5" d="M135,86.36l3.85-9.1s7.91,1.51,8.81,3.73-1.47,8.41-3.85,9.1S135,86.36,135,86.36Z"/><rect class="cls-6" x="85.05" y="134.56" width="31.49" height="20.67"/><path class="cls-6" d="M149,70h-96a4.88,4.88,0,0,0-4.88,4.88V131h105.8V74.9A4.89,4.89,0,0,0,149,70Z"/><path class="cls-2" d="M149,149.69h-96a4.88,4.88,0,0,1-4.88-4.88V131h105.8v13.84A4.89,4.89,0,0,1,149,149.69Z"/><rect class="cls-2" x="53.4" y="155.24" width="86.86" height="4.81"/><rect class="cls-4" x="51.66" y="75.16" width="97.69" height="55.81"/><path class="cls-7" d="M173.2,131c-1.08-.42,3.34-6.7-1.48-9.26-6.32-3.36.65-13.95-2-13.69-4,.39-5.09,6.58-4.37,13.5.92,8.84-3.6,6.45-3.69,6.4-2.57-1.16-3.69,0-2.56,7.6s4.08,13.52,6.58,13.14a1.53,1.53,0,0,0,.45-.13,2.64,2.64,0,0,0,.49.08,2.37,2.37,0,0,0,1.09-.24c3.16.16,3.35-1.18,6-8C176.58,132.91,176.38,132.23,173.2,131Z"/><polygon class="cls-5" points="173.24 159.48 162.01 159.48 160.78 146.61 174.46 146.61 173.24 159.48"/><path class="cls-5" d="M172.72,91.82c0,11.72-14.52,18.2-26.24,18.2s-20.23-6.64-20.23-18.36,10-18.11,21.75-18.11S172.72,80.1,172.72,91.82Z"/><polygon class="cls-5" points="128.64 115.51 136.36 106.13 129.81 96.76 128.64 115.51"/><path class="cls-7" d="M35.19,80c0,9.72,13.37,17.23,23.09,17.23a17.59,17.59,0,1,0,0-35.18C48.56,62.09,35.19,70.32,35.19,80Z"/><polygon class="cls-7" points="73.89 99.46 67.69 94.55 72.92 83.91 73.89 99.46"/><polygon class="cls-8" points="107.81 73.97 106.48 73.58 108 72 113.61 73.94 107.81 73.97"/><polygon class="cls-9" points="107.69 76.15 113.61 73.94 107.85 73.19 107.69 76.15"/><polygon class="cls-10" points="113.61 73.94 107.94 72.41 108.37 69.72 113.61 73.94"/><polygon class="cls-11" points="106.48 73.58 107.85 73.19 107.81 73.97 106.48 73.58"/><path class="cls-2" d="M115.77,84.11a5.38,5.38,0,0,1-5.38,5.39h0A5.39,5.39,0,0,1,105,84.11V79a5.39,5.39,0,0,1,5.39-5.39h0A5.38,5.38,0,0,1,115.77,79Z"/><path class="cls-12" d="M87.07,86.23c.46,10.52,6.37,18.87,13.2,18.63s12-9,11.55-19.49-6.38-18.88-13.2-18.64S86.61,75.69,87.07,86.23Z"/><path class="cls-13" d="M110.18,76.15s-6.59,1.07-17.94-3.22c0,0-8.72,8.34-3,21.39,0,0-8.35-7.56-4.24-20.76S97.67,62.82,102.29,61.2s9.85,1.28,13.25-1.8S120.08,68.18,110.18,76.15Z"/><path class="cls-12" d="M84.79,86.14c.08,2.88,1.37,5.16,2.9,5.08s2.68-2.48,2.6-5.36-1.39-5.16-2.9-5.09S84.71,83.25,84.79,86.14Z"/><path class="cls-14" d="M98.61,107.07c-14.41,0-26.51,13.41-29.89,31.53h59.79C125.13,120.48,113,107.07,98.61,107.07Z"/><polygon class="cls-12" points="103.86 112.04 99.44 117.28 95.03 112.04 95.03 102.1 103.86 102.1 103.86 112.04"/><path class="cls-2" d="M90.44,84.84a5.38,5.38,0,0,1-5.38,5.39h0a5.38,5.38,0,0,1-5.38-5.39V79.7a5.38,5.38,0,0,1,5.38-5.38h0a5.38,5.38,0,0,1,5.38,5.38Z"/><path class="cls-2" d="M101,61H92.54a9.39,9.39,0,0,0-9.39,9.39v5.79h2.69V71.32a7.54,7.54,0,0,1,7.54-7.54h6.78a7.53,7.53,0,0,1,7.53,7.54v4.83h2.7V70.36A9.39,9.39,0,0,0,101,61Z"/><path class="cls-13" d="M95,67.69s3.22-6.12,7.5-6.56,9.1.52,11.06-.61,4.79-3.37,4.37.61,1.15,13-7.25,17.49c0,0-15.58-.29-18.47-5.69Z"/><path class="cls-2" d="M107.48,96.42a1.9,1.9,0,0,1-1.89,1.9H103.7a1.9,1.9,0,0,1-1.9-1.9h0a1.9,1.9,0,0,1,1.9-1.89h1.89a1.89,1.89,0,0,1,1.89,1.89Z"/><path class="cls-2" d="M108.31,97.72a36.93,36.93,0,0,1-3.81-.23l.28-2.53c3,.35,6.3.21,7-.27a13.27,13.27,0,0,0-.06-6.56l2.44-.7a15.69,15.69,0,0,1,0,8.18C113.6,97.24,111.11,97.72,108.31,97.72Z"/></svg>