<?xml version="1.0" encoding="UTF-8"?>
<svg width="192px" height="296px" viewBox="0 0 192 296" version="1.1" xmlns="http://www.w3.org/2000/svg" xmlns:xlink="http://www.w3.org/1999/xlink">
    <!-- Generator: Sketch 64 (93537) - https://sketch.com -->
    <title>Group 13</title>
    <desc>Created with Sketch.</desc>
    <defs>
        <polygon id="path-1" points="0.000887677208 0.197027358 23.9672846 0.197027358 23.9672846 37.3442623 0.000887677208 37.3442623"></polygon>
    </defs>
    <g id="Page-1" stroke="none" stroke-width="1" fill="none" fill-rule="evenodd">
        <g id="Desktop-HD-Copy-5" transform="translate(-592.000000, -2368.000000)">
            <g id="Group-13" transform="translate(592.000000, 2368.000000)">
                <path d="M158,293.571283 C158,293.412871 157.918369,293.333665 157.918369,293.173263 C157.834688,293.094057 157.834688,292.935645 157.753057,292.854449 C157.671427,292.775243 157.589796,292.616831 157.508166,292.537625 C156.687758,291.820792 155.457147,291.820792 154.636739,292.537625 C154.553057,292.616831 154.471427,292.696037 154.389796,292.854449 C154.226535,293.094057 154.142853,293.333665 154.061223,293.571283 C153.979592,293.810891 153.979592,294.129705 154.061223,294.367323 C154.061223,294.527725 154.142853,294.606931 154.142853,294.765342 C154.226535,294.925744 154.226535,295.00495 154.308166,295.084156 C154.389796,295.163362 154.471427,295.323764 154.553057,295.40297 C155.373465,296.19901 156.604076,296.19901 157.424484,295.40297 C157.508166,295.323764 157.589796,295.242568 157.671427,295.084156 C157.753057,295.00495 157.834688,294.844548 157.834688,294.765342 C157.918369,294.686136 157.918369,294.527725 157.918369,294.367323 C158,294.129705 158,293.810891 158,293.571283 Z" id="Fill-10" fill="#EA4647"></path>
                <g id="Group-12">
                    <path d="M189.801527,219.891088 L185.920323,150.710734 C185.607331,145.277796 181.830457,140.679287 176.483382,139.319746 L151.946812,133.156355 L137.162796,125.945355 L132.235664,140.260766 C131.920051,141.097808 131.187115,141.620307 130.242897,141.620307 L114.934606,141.620307 C114.094719,141.620307 113.257452,141.097808 112.941839,140.260766 L108.014708,125.945355 L93.22807,133.156355 L68.6941214,139.319746 C63.3444245,140.679287 59.5701725,145.277796 59.2571807,150.710734 L58.6259542,162.728197 C86.9367762,165.028757 108.014708,189.794136 105.601996,218.009049 C105.286383,221.56256 104.657778,225.009482 103.609229,228.459016 L181.621796,228.459016 C186.131605,228.459016 189.801527,224.801528 189.801527,220.306997 C189.801527,220.203019 189.801527,220.099042 189.801527,219.891088 Z" id="Fill-1" fill="#55ACD5"></path>
                    <path d="M88.7547421,61.5241397 C89.383417,61.5241397 90.11339,61.630373 90.7394541,61.7340025 L90.7394541,60.2753781 C90.7394541,59.337505 91.4720379,58.6094946 92.4098287,58.6094946 L92.7241661,58.6094946 C98.4678736,59.7546268 115.384659,61.837632 126.872074,47.3602248 C127.500748,46.6322145 128.545059,46.5285849 129.275032,47.0493363 L129.378941,47.1529658 C131.989717,49.7567223 138.881644,54.9642354 152.042044,55.275124 C152.979835,55.275124 153.60851,56.0057381 153.712419,56.9436112 L153.712419,61.630373 C157.785752,61.0033884 161.856474,62.2547538 164.885496,65.1693989 L164.885496,41.6319604 C164.885496,31.7376854 156.84535,23.7191567 146.924401,23.7191567 C143.68756,23.7191567 140.554629,24.6570298 137.733424,26.3229133 C134.496584,20.9055374 128.648968,17.5737705 122.279196,17.5737705 L113.08822,17.5737705 C95.1271245,17.6774 80.610687,32.1548072 80.610687,49.9639813 L80.610687,64.5450181 C82.9071257,62.5656423 85.7283304,61.5241397 88.7547421,61.5241397 Z" id="Fill-2" fill="#6D6C6B"></path>
                    <path d="M155.273818,62.2404372 C154.532503,62.2404372 153.898978,62.3472924 153.160305,62.4515286 C153.160305,63.1838014 153.265453,63.9186931 153.265453,64.5467295 L153.265453,86.3352472 C153.265453,87.0701389 153.265453,87.8024116 153.160305,88.4304481 C160.452452,89.5849038 167.213579,84.7638466 168.378124,77.5374987 C169.540028,70.3085319 164.679477,63.6033653 157.38733,62.4515286 C156.646016,62.3472924 156.012491,62.2404372 155.273818,62.2404372 Z" id="Fill-3" fill="#F9D0B4"></path>
                    <path d="M90.765796,86.3452759 L90.765796,64.5345449 C90.765796,63.7989039 90.765796,63.0658847 90.870229,62.4372079 C83.63024,61.1772328 76.807983,66.1075476 75.6513481,73.2369201 C74.497337,80.3689144 79.324871,87.2896019 86.463051,88.4426129 C87.932985,88.6539196 89.402919,88.6539196 90.870229,88.4426129 C90.870229,87.8139361 90.765796,87.0809169 90.765796,86.3452759 Z" id="Fill-4" fill="#F9D0B4"></path>
                    <path d="M126.97454,48.1687645 C115.496954,62.6770789 98.4882156,60.5896267 92.8532428,59.4420499 C91.9136459,59.2317391 91.0804775,59.8600622 90.870229,60.6934775 L90.870229,86.3686172 C90.870229,103.696558 104.956357,117.78686 122.382984,117.89071 C139.703182,117.89071 153.78931,103.800408 153.89313,86.3686172 L153.89313,58.3983238 C153.89313,58.188013 153.89313,58.0841623 153.89313,57.8764608 C153.89313,56.9365854 153.163781,56.2070209 152.224184,56.2070209 C139.181474,55.7890086 132.295444,50.674229 129.583082,48.0649138 C128.954945,47.4392 127.807708,47.4392 127.18218,48.0649138 C127.07836,48.0649138 126.97454,48.1687645 126.97454,48.1687645 Z" id="Fill-5" fill="#F9D0B4"></path>
                    <path d="M122.011815,117.368959 C117.036366,117.368959 112.16886,116.218905 107.725191,114.020257 L107.725191,125.736792 L112.697994,139.961586 C113.016533,140.799415 113.756263,141.322404 114.709233,141.322404 L130.054125,141.322404 C130.899153,141.322404 131.746826,140.799415 132.065365,139.961586 L137.038168,125.632718 L137.038168,113.497268 C132.486555,116.008141 127.303157,117.368959 122.011815,117.368959 Z" id="Fill-6" fill="#F9D0B4"></path>
                    <path d="M105.526718,213.814208 C105.526718,242.122673 82.5605721,265.071038 54.2290076,265.071038 C25.8979656,265.071038 2.93129771,242.122673 2.93129771,213.814208 C2.93129771,185.505221 25.8979656,162.557377 54.2290076,162.557377 C82.5605721,162.557377 105.526718,185.505221 105.526718,213.814208 Z" id="Fill-7" fill="#6DCC6D"></path>
                    <path d="M118.356439,258.484886 L116.515069,258.484886 L116.515069,256.644983 C116.515069,255.212243 115.386802,254.087432 113.955478,254.087432 C112.521595,254.087432 111.395887,255.212243 111.395887,256.644983 L111.395887,258.484886 L109.551958,258.484886 C108.118075,258.484886 106.992366,259.612254 106.992366,261.042437 C106.992366,262.475177 108.118075,263.599989 109.551958,263.599989 L111.395887,263.599989 L111.395887,265.442449 C111.395887,266.875189 112.521595,268 113.955478,268 C115.386802,268 116.515069,266.875189 116.515069,265.442449 L116.515069,263.599989 L118.356439,263.599989 C119.790322,263.599989 120.916031,262.475177 120.916031,261.042437 C120.916031,259.612254 119.790322,258.484886 118.356439,258.484886 Z" id="Fill-11" fill="#FFCD29"></path>
                    <path d="M137.770992,246.581781 C137.770992,246.378788 137.666306,246.277292 137.666306,246.07175 C137.558989,245.970253 137.558989,245.767261 137.454302,245.665765 C137.349616,245.561719 137.244929,245.358726 137.140243,245.25723 C136.088117,244.338665 134.509928,244.338665 133.457803,245.25723 C133.350486,245.358726 133.245799,245.460223 133.141113,245.665765 C132.93174,245.970253 132.824423,246.277292 132.719736,246.581781 C132.61505,246.888819 132.61505,247.297354 132.719736,247.601842 C132.719736,247.807385 132.824423,247.908881 132.824423,248.111873 C132.93174,248.317416 132.93174,248.418912 133.036426,248.520408 C133.141113,248.621904 133.245799,248.827447 133.350486,248.928943 C134.402612,249.949005 135.9808,249.949005 137.032926,248.928943 C137.140243,248.827447 137.244929,248.72595 137.349616,248.520408 C137.454302,248.418912 137.558989,248.21592 137.558989,248.111873 C137.666306,248.010377 137.666306,247.807385 137.666306,247.601842 C137.770992,247.195858 137.770992,246.888819 137.770992,246.581781 Z" id="Fill-13" fill="#EA4647"></path>
                    <path d="M88.4634056,8.57611715 C84.1712885,7.74088974 80.9261568,4.39213513 80.0875214,0.208153106 C80.0875214,0.104076553 79.9833464,0 79.8791713,0 C79.7723788,0 79.7723788,0.104076553 79.6682037,0.208153106 C78.8321858,4.49882667 75.4802617,7.74088974 71.2923196,8.57611715 C71.1881445,8.57611715 71.0839695,8.68280869 71.0839695,8.78688525 C71.0839695,8.8909618 71.1881445,8.8909618 71.2923196,8.99503835 C75.5844367,9.83288075 78.8321858,13.1790204 79.6682037,17.3630024 C79.6682037,17.467079 79.7723788,17.5737705 79.8791713,17.5737705 C79.9833464,17.5737705 79.9833464,17.467079 80.0875214,17.3630024 C80.9261568,13.0749438 84.2754635,9.83288075 88.4634056,8.99503835 C88.5675807,8.99503835 88.6717557,8.8909618 88.6717557,8.78688525 C88.6717557,8.57611715 88.5675807,8.57611715 88.4634056,8.57611715 Z" id="Fill-14" fill="#55ACD5"></path>
                    <path d="M155.681899,90.7978142 C154.843129,90.7978142 154.006976,90.694034 153.168206,90.5876462 C151.805858,90.3800857 150.865514,89.2332878 150.969706,87.8763219 C150.969706,87.1472526 151.073898,86.5219635 151.073898,85.8940669 L151.073898,64.2008651 C151.073898,63.5755761 151.073898,62.9476795 150.969706,62.2186102 C150.865514,60.8616443 151.805858,59.7148464 153.168206,59.5072859 C161.753822,58.15032 169.92267,63.9906971 171.285018,72.545006 C172.644747,81.0967074 166.781208,89.2332878 158.195592,90.5876462 C157.356822,90.7978142 156.518052,90.7978142 155.681899,90.7978142 Z M156.309668,64.6185937 L156.309668,85.6865064 C162.173207,85.3725581 166.572825,80.3676381 166.257631,74.6310412 C165.942438,69.1020049 161.64963,64.8261542 156.309668,64.6185937 Z" id="Fill-16" fill="#231F20"></path>
                    <path d="M88.3512272,90.7978142 C79.6668568,90.7978142 72.5496183,83.8112175 72.5496183,75.055948 C72.5496183,66.401805 79.5627302,59.3114754 88.3512272,59.3114754 C89.1894728,59.3114754 90.0277183,59.4178147 90.8633476,59.5215477 C92.2248426,59.7290136 93.1672148,60.8752887 93.0604719,62.2316362 C93.0604719,62.9603732 92.9563453,63.5879836 92.9563453,64.2129876 L92.9563453,85.896302 C92.9563453,86.4175731 92.9563453,87.0451835 93.0604719,87.8776535 C93.1672148,89.2340009 92.2248426,90.380276 90.8633476,90.587742 C90.0277183,90.7978142 89.1894728,90.7978142 88.3512272,90.7978142 Z M87.7238512,64.6305258 C81.8639811,64.9417247 77.4697325,69.9469698 77.7821124,75.680952 C78.0971086,80.9973961 82.3872305,85.2712979 87.7238512,85.5851031 L87.7238512,64.6305258 Z" id="Fill-17" fill="#231F20"></path>
                    <path d="M122.01657,120.087432 C103.259097,120.087432 88.0426184,104.87445 87.9389313,86.0117916 L87.9389313,60.7959326 C87.9389313,58.3982429 89.8157206,56.5241687 92.2109457,56.5241687 C92.5246123,56.5241687 92.838279,56.5241687 93.1493404,56.6278498 C99.194457,57.8772326 114.304643,59.4402636 124.725461,46.3113238 C126.184897,44.4372495 128.893789,44.1236013 130.767973,45.5829513 C130.874265,45.6866324 130.977952,45.7903134 131.081639,45.8939945 C133.26949,47.9780359 139.521981,52.9807773 151.923276,53.2944255 C154.214814,53.3981066 155.987916,55.1684998 156.091603,57.4625083 L156.091603,86.0117916 C155.987916,104.87445 140.774042,120.087432 122.01657,120.087432 Z M93.1493404,61.8379533 L93.1493404,86.0117916 C93.1493404,101.95575 106.071676,114.877328 122.01657,114.877328 C137.958858,114.877328 150.777507,101.95575 150.881194,86.0117916 L150.881194,58.5045291 C138.689879,57.9835187 131.60268,53.3981066 128.162768,50.3757255 C116.388807,64.339324 99.6118108,62.9836551 93.1493404,61.8379533 Z" id="Fill-18" fill="#231F20"></path>
                    <path d="M164.573327,68.0983607 C163.947951,68.0983607 163.21878,67.7822632 162.800993,67.361675 C160.818461,65.4729664 158.210553,64.4228087 155.49885,64.4228087 C154.977268,64.4228087 154.455686,64.4228087 153.83031,64.5272994 C152.36936,64.7362808 151.115999,63.7906138 150.804615,62.3224933 C150.804615,62.2153772 150.804615,62.0063958 150.804615,61.9019052 L150.804615,58.1218625 C138.59804,57.5967837 131.506094,52.9755647 128.062612,49.9295823 C116.276431,64.0022206 99.4794159,62.7404561 93.1166414,61.5858077 L93.1166414,62.0063958 C93.1166414,63.4771417 91.9696833,64.6317901 90.5087331,64.6317901 C90.4049384,64.6317901 90.1973489,64.6317901 90.0909462,64.6317901 C89.5693646,64.5272994 89.0477829,64.5272994 88.4224065,64.5272994 C86.0246957,64.5272994 83.7281717,65.3658503 81.8520425,66.8365962 C80.7024766,67.7822632 79.0339369,67.5732818 78.200971,66.416008 C77.7831841,65.9980453 77.6793893,65.3658503 77.6793893,64.7362808 L77.6793893,49.9295823 C77.6793893,30.3971742 93.4306335,14.6448087 112.729155,14.6448087 L121.907427,14.6448087 C128.272809,14.6448087 134.321592,17.6907911 138.182861,22.7299729 C140.790769,21.5753245 143.606267,20.9457549 146.528167,20.9457549 C157.896561,20.9457549 167.077441,30.1855674 167.077441,41.6328114 L167.077441,65.3658503 C167.181236,66.9410869 166.034278,68.0983607 164.573327,68.0983607 Z M156.124226,59.0649041 C158.210553,59.1720202 160.193085,59.589983 162.069214,60.4311593 L162.069214,41.5283207 C162.069214,33.0225685 155.288652,26.0920527 146.839551,26.0920527 C144.024054,26.0920527 141.312351,26.826113 138.912032,28.2968588 C137.661279,29.030919 136.096534,28.6103309 135.364755,27.3511918 C132.549257,22.7299729 127.644825,19.7911065 122.221419,19.7911065 L113.040539,19.7911065 C96.5601234,19.7911065 83.20659,33.2315498 83.20659,49.8250916 L83.20659,60.0105711 C84.8751297,59.3810016 86.6500721,59.0649041 88.4224065,58.9604134 C89.0477829,56.860098 91.2405122,55.600959 93.4306335,56.0215471 C99.4794159,57.2806862 114.605284,58.8559228 125.036917,45.6244608 C126.497867,43.7331268 129.20957,43.4196548 131.088307,44.8877752 C131.192102,44.9948913 131.295897,45.099382 131.402299,45.2038727 C133.592421,47.3041881 139.8514,52.3459952 152.265565,52.6594673 C154.559481,52.7639579 156.331816,54.5508013 156.438218,56.860098 L156.124226,59.0649041 Z" id="Fill-19" fill="#231F20"></path>
                    <path d="M122.11735,161.825137 C121.400208,161.825137 120.785148,161.515028 120.272171,161.102408 C120.170089,160.999897 120.065441,160.897386 119.963359,160.692363 C119.759194,160.382254 119.657111,160.072146 119.552464,159.764612 C119.552464,159.557014 119.450382,159.454503 119.450382,159.249481 C119.450382,158.526752 119.759194,157.90911 120.170089,157.393979 C120.272171,157.291468 120.374253,157.188957 120.578418,157.086446 C120.683066,156.981359 120.887231,156.878848 120.989313,156.878848 C121.196043,156.776337 121.298125,156.776337 121.50229,156.776337 C121.811102,156.673826 122.11735,156.673826 122.528244,156.776337 C122.734974,156.776337 122.837056,156.878848 123.041221,156.878848 C123.143304,156.981359 123.350034,156.981359 123.452116,157.086446 C123.554198,157.188957 123.760928,157.291468 123.863011,157.393979 C123.965093,157.49649 124.067176,157.601577 124.169258,157.806599 C124.273905,157.90911 124.375988,158.116708 124.375988,158.219219 C124.47807,158.32173 124.47807,158.526752 124.47807,158.73435 C124.47807,158.939372 124.47807,159.041883 124.580153,159.249481 C124.580153,159.454503 124.580153,159.557014 124.47807,159.764612 C124.47807,159.969634 124.375988,160.072146 124.375988,160.279743 C124.273905,160.382254 124.273905,160.587277 124.169258,160.692363 C124.067176,160.794874 123.965093,160.999897 123.863011,161.102408 C123.760928,161.207494 123.656281,161.310006 123.452116,161.412517 C123.350034,161.515028 123.143304,161.617539 123.041221,161.617539 C122.837056,161.722626 122.734974,161.722626 122.528244,161.722626 C122.528244,161.825137 122.324079,161.825137 122.11735,161.825137 Z" id="Fill-20" fill="#231F20"></path>
                    <path d="M122.800169,178.666667 C122.591859,178.666667 122.487704,178.666667 122.276777,178.564742 C122.068466,178.564742 121.964311,178.462817 121.753384,178.462817 C121.649229,178.358332 121.440919,178.358332 121.336763,178.256407 C121.229991,178.154482 121.021681,178.052557 120.917526,177.950633 C120.394133,177.438448 120.183206,176.821778 120.183206,176.105744 C120.183206,175.901895 120.183206,175.797409 120.289978,175.59356 C120.289978,175.38971 120.394133,175.285225 120.394133,175.081375 C120.498288,174.877526 120.498288,174.77304 120.602444,174.671116 C120.706599,174.569191 120.813371,174.365341 120.917526,174.260856 C121.649229,173.544822 122.800169,173.340972 123.742799,173.748671 C123.953726,173.853157 124.057882,173.853157 124.162037,173.955082 C124.266192,174.057006 124.477119,174.158931 124.581274,174.260856 C124.685429,174.365341 124.789584,174.467266 124.89374,174.671116 C125.000512,174.77304 125.104667,174.979451 125.104667,175.081375 C125.208822,175.285225 125.208822,175.38971 125.208822,175.59356 C125.208822,175.797409 125.208822,175.901895 125.312977,176.105744 C125.312977,176.821778 125.000512,177.438448 124.581274,177.950633 C124.477119,178.052557 124.370347,178.154482 124.162037,178.256407 C124.057882,178.358332 123.846954,178.462817 123.742799,178.462817 C123.534489,178.564742 123.430334,178.564742 123.219407,178.564742 C123.219407,178.666667 123.011096,178.666667 122.800169,178.666667 Z" id="Fill-21" fill="#231F20"></path>
                    <path d="M122.800169,195.508197 C122.591859,195.508197 122.487704,195.508197 122.276777,195.406177 C122.068466,195.406177 121.964311,195.304157 121.753384,195.304157 C121.545074,195.202137 121.440919,195.202137 121.336763,195.097553 C121.229991,194.995534 121.021681,194.893514 120.917526,194.791494 C120.813371,194.689474 120.706599,194.58489 120.602444,194.38085 C120.498288,194.27883 120.394133,194.072227 120.394133,193.970207 C120.289978,193.766167 120.289978,193.664147 120.289978,193.457544 C120.289978,193.253504 120.183206,193.151484 120.183206,192.944881 C120.183206,192.740841 120.183206,192.638821 120.289978,192.432217 C120.289978,192.228178 120.394133,192.126158 120.394133,191.919554 C120.498288,191.715514 120.498288,191.613494 120.602444,191.508911 C120.706599,191.406891 120.813371,191.202851 120.917526,191.100831 C121.021681,190.996248 121.125836,190.894228 121.336763,190.792208 C121.440919,190.690188 121.649229,190.588168 121.753384,190.588168 C122.696014,190.177525 123.846954,190.381565 124.581274,191.202851 C124.685429,191.304871 124.789584,191.406891 124.89374,191.613494 C125.000512,191.715514 125.104667,191.919554 125.104667,192.021574 C125.208822,192.126158 125.208822,192.330198 125.208822,192.534237 C125.208822,192.740841 125.208822,192.842861 125.312977,193.046901 C125.312977,193.253504 125.312977,193.355524 125.208822,193.559564 C125.208822,193.766167 125.104667,193.868187 125.104667,194.072227 C125.000512,194.17681 125.000512,194.38085 124.89374,194.48287 C124.789584,194.58489 124.685429,194.791494 124.581274,194.893514 C124.162037,195.304157 123.534489,195.508197 122.800169,195.508197 Z" id="Fill-22" fill="#231F20"></path>
                    <path d="M122.747768,212.349727 C122.541525,212.349727 122.438404,212.349727 122.22957,212.245264 C122.023327,212.245264 121.920206,212.143362 121.711372,212.143362 C121.60825,212.04146 121.402008,212.04146 121.298886,211.939558 C121.193174,211.837656 120.986931,211.733193 120.88381,211.631291 C120.780688,211.529389 120.674976,211.427487 120.571855,211.221123 C120.468733,211.119221 120.365612,210.915416 120.365612,210.813514 C120.26249,210.60715 120.26249,210.505248 120.26249,210.301443 C120.156778,209.993177 120.156778,209.583008 120.26249,209.277302 C120.365612,208.969035 120.468733,208.660768 120.674976,208.355062 C120.780688,208.25316 120.88381,208.046796 120.986931,207.944893 C121.090053,207.842991 121.193174,207.741089 121.402008,207.636627 C121.505129,207.534725 121.711372,207.432823 121.817084,207.432823 C122.747768,207.022654 123.889876,207.229018 124.614317,207.944893 C124.717438,208.046796 124.82056,208.148698 124.926272,208.355062 C125.029393,208.456964 125.132515,208.660768 125.132515,208.765231 C125.235636,208.969035 125.235636,209.070937 125.235636,209.277302 C125.338757,209.583008 125.338757,209.993177 125.235636,210.301443 C125.235636,210.505248 125.132515,210.60715 125.132515,210.813514 C125.029393,210.915416 125.029393,211.119221 124.926272,211.221123 C124.82056,211.325585 124.717438,211.529389 124.614317,211.631291 C124.511195,211.733193 124.408074,211.837656 124.19924,211.939558 C124.096119,212.04146 123.889876,212.143362 123.784164,212.143362 C123.577921,212.245264 123.474799,212.245264 123.265966,212.245264 C123.162844,212.245264 122.956602,212.349727 122.747768,212.349727 Z" id="Fill-23" fill="#231F20"></path>
                    <path d="M159.389313,231.387978 C157.952464,231.387978 156.824427,230.240115 156.824427,228.778012 L156.824427,181.276633 C156.824427,179.81453 157.952464,178.666667 159.389313,178.666667 C160.826162,178.666667 161.954198,179.81453 161.954198,181.276633 L161.954198,228.778012 C161.954198,230.240115 160.826162,231.387978 159.389313,231.387978 Z" id="Fill-24" fill="#231F20"></path>
                    <path d="M130.279908,144.251366 L115.006663,144.251366 C113.004814,144.251366 111.215211,142.99931 110.583742,141.125132 L105.631524,126.847102 C105.526718,126.536042 105.526718,126.326063 105.526718,126.015003 L105.526718,114.342167 C105.526718,112.882737 106.684851,111.736972 108.160036,111.736972 C108.581893,111.736972 109.003751,111.840659 109.318169,112.050638 C113.321866,114.031107 117.744787,115.073185 122.275148,115.073185 C127.119926,115.073185 131.859899,113.821128 136.073208,111.633286 C137.336147,110.904873 138.916138,111.425912 139.655047,112.675363 C139.86466,113.092716 139.969466,113.510068 139.969466,113.924815 L139.969466,126.015003 C139.969466,126.326063 139.969466,126.639728 139.86466,126.847102 L134.915075,141.125132 C134.07136,142.99931 132.281757,144.251366 130.279908,144.251366 Z M115.323714,139.040977 L129.858051,139.040977 L134.598023,125.597651 L134.598023,117.98944 C130.59696,119.552557 126.383651,120.283574 122.170342,120.283574 C118.271451,120.283574 114.375193,119.656243 110.583742,118.303105 L110.583742,125.493964 L115.323714,139.040977 Z" id="Fill-25" fill="#231F20"></path>
                    <path d="M53.9896676,268 C24.1695041,268 -1.66624984e-13,243.819142 -1.66624984e-13,213.98497 C-1.66624984e-13,184.150799 24.1695041,159.969941 53.9896676,159.969941 C83.8098311,159.969941 107.979335,184.150799 107.979335,213.98497 C107.979335,243.819142 83.8098311,268 53.9896676,268 Z M53.9896676,165.308164 C27.1002507,165.308164 5.23160763,187.080305 5.23160763,214.089128 C5.23160763,241.097952 27.1002507,262.765935 53.9896676,262.765935 C80.8817003,262.765935 102.747728,240.991177 102.747728,213.98497 C102.747728,187.080305 80.8817003,165.308164 53.9896676,165.308164 Z" id="Fill-29" fill="#231F20"></path>
                    <path d="M181.117733,231.361543 L103.270888,231.361543 C101.808131,231.361543 100.655084,230.210573 100.655084,228.744511 C100.655084,228.536195 100.655084,228.221104 100.761809,228.012789 C108.502496,202.259094 93.8539946,175.041955 68.0108992,167.40179 C64.7678256,166.459135 61.4180272,165.83157 58.0708447,165.51648 C56.6054714,165.412322 55.5591499,164.157193 55.6632589,162.795289 L56.2931444,150.756939 C56.6054714,144.16097 61.2098093,138.614431 67.6959564,136.940054 L91.9721853,130.867491 L106.516578,123.748116 C107.771117,123.120551 109.340599,123.643958 109.967869,124.901704 C109.967869,125.005862 110.071978,125.11002 110.071978,125.214177 L114.88715,139.137838 L129.324817,139.137838 L134.137373,125.214177 C134.660534,123.854891 136.125907,123.120551 137.487172,123.643958 C137.591281,123.643958 137.69539,123.748116 137.799499,123.748116 L152.343891,130.867491 L176.62012,136.940054 C183.002158,138.510273 187.606496,144.16097 188.022932,150.756939 L191.895891,220.054916 C192.208218,226.02332 187.710605,231.046453 181.745003,231.361543 C181.432676,231.361543 181.328567,231.361543 181.117733,231.361543 Z M106.620687,226.127478 L181.117733,226.127478 C184.152589,226.127478 186.664283,223.614604 186.664283,220.578322 C186.664283,220.474164 186.664283,220.370007 186.664283,220.265849 L182.791324,150.965255 C182.583106,146.673845 179.548251,143.009999 175.362965,141.963186 L150.878518,135.786466 C150.6703,135.786466 150.566191,135.682308 150.355357,135.57815 L138.21855,129.612362 L134.244098,141.127306 C133.614213,143.009999 131.836512,144.267745 129.847978,144.267745 L114.676316,144.267745 C112.687782,144.267745 110.910082,143.009999 110.282812,141.127306 L106.305744,129.612362 L94.1689373,135.57815 C93.9607193,135.682308 93.8539946,135.682308 93.6457766,135.786466 L69.1613297,141.963186 C64.9760436,143.009999 61.941188,146.673845 61.73297,150.965255 L61.2098093,160.493347 C90.71503,164.365509 111.537351,191.47849 107.667008,220.997571 C107.247956,222.778723 106.933014,224.453101 106.620687,226.127478 Z" id="Fill-31" fill="#231F20"></path>
                    <path d="M61.4893891,35.6990848 C61.4893891,35.4935423 61.3860743,35.3920462 61.3860743,35.1890539 C61.2827594,35.0875577 61.2827594,34.8820153 61.1794446,34.7805191 C61.0735339,34.679023 60.970219,34.4734805 60.8669042,34.3719844 C59.8285641,33.4534187 58.2710538,33.4534187 57.2327137,34.3719844 C57.1293989,34.4734805 57.026084,34.5775268 56.9201733,34.7805191 C56.7135436,35.0875577 56.6102288,35.3920462 56.5069139,35.6990848 C56.4010032,36.0035732 56.4010032,36.412108 56.5069139,36.7191466 C56.5069139,36.9221389 56.6102288,37.023635 56.6102288,37.2291775 C56.7135436,37.4321698 56.7135436,37.5336659 56.8168585,37.6377122 C56.9201733,37.7392084 57.026084,37.9422007 57.1293989,38.0436968 C58.167739,39.0637586 59.7252492,39.0637586 60.7635894,38.0436968 C60.8669042,37.9422007 60.970219,37.8407045 61.0735339,37.6377122 C61.1794446,37.5336659 61.2827594,37.3306736 61.2827594,37.2291775 C61.3860743,37.1276813 61.3860743,36.9221389 61.3860743,36.7191466 C61.592704,36.3106118 61.592704,36.0035732 61.4893891,35.6990848 Z" id="Fill-12" fill="#6DCC6D"></path>
                    <polygon id="Path-2" fill="#FFCD29" points="32.9805337 189.927788 41.3207797 186.913946 49.8320611 188.256267 55.6955442 192.945355 61.190864 202.098361 58.6259542 210.153005 54.2290076 215.475716 50.6998795 224.065574 50.6998795 232.120219 46.9251594 236.105283 43.6030534 237.471994 36.6412214 234.31694 36.6412214 228.459016 35.1755725 221.868852 30.1006472 211.983607 26.3343306 206.078645 28.457477 198.080119"></polygon>
                    <polygon id="Path-3" fill="#FFCD29" points="63.4380393 217.082599 71.3929133 217.082599 75.7587629 218.939891 78.1806833 221.868852 78.1806833 237.471994 78.1806833 247.131148 74.5998391 250.995863 65.9541985 250.995863 60.2700507 250.031283 57.5844468 245.651532 57.5844468 221.868852"></polygon>
                    <g id="Group-18" transform="translate(17.221374, 177.202186)">
                        <path d="M26.345347,10.6566583 C25.3651216,10.6566583 24.379673,10.7487051 23.3942244,10.9345355 C17.187291,12.0964098 12.1834406,17.2822942 11.2258492,23.5449529 C10.5450888,28.0048829 11.7446897,32.3362947 14.6052763,35.7437646 C18.6062673,40.5163065 20.7234149,46.0286967 20.7234149,51.6817621 L20.7234149,53.3021339 C20.7234149,56.390045 23.2427508,58.9030974 26.3383827,58.9030974 C29.5228094,58.9030974 32.0404042,56.390045 32.0404042,53.3021339 L32.0404042,51.7529682 C32.0404042,45.7629765 34.0617926,40.2505864 37.7337204,36.2335233 C40.3070297,33.4165425 41.7242649,29.7659301 41.7242649,25.9555381 C41.7242649,21.386194 39.7011355,17.0895168 36.1702348,14.1718056 C33.4019251,11.8793182 29.930221,10.6566583 26.345347,10.6566583 L26.345347,10.6566583 Z M26.4289186,61.5081967 C21.8011405,61.5081967 18.111802,57.8280598 18.111802,53.3021339 L18.111802,51.6817621 C18.111802,46.6469736 16.2070656,41.7129155 12.6012987,37.4162383 C9.25321092,33.4286997 7.84816317,28.3626499 8.64557565,23.1524513 C9.78249781,15.6983938 15.5175998,9.7587674 22.9119465,8.37285457 C28.2674941,7.37423316 33.7100954,8.7497256 37.8381849,12.1658792 C41.9662744,15.5820327 44.3358779,20.6081376 44.3358779,25.9555381 C44.3358779,30.4172049 42.6766331,34.6895677 39.6645729,37.9876235 C36.4331372,41.5253483 34.6520171,46.4142513 34.6520171,51.7529682 L34.6520171,53.3021339 C34.6520171,57.8280598 30.9626786,61.5081967 26.4289186,61.5081967 L26.4289186,61.5081967 Z" id="Fill-1" fill="#231F20"></path>
                        <path d="M33.4785054,49.7923497 L19.2848534,49.7923497 C18.5503319,49.7923497 17.9541985,49.1362623 17.9541985,48.3278689 C17.9541985,47.5194754 18.5503319,46.863388 19.2848534,46.863388 L33.4785054,46.863388 C34.2130269,46.863388 34.8091603,47.5194754 34.8091603,48.3278689 C34.8091603,49.1362623 34.2130269,49.7923497 33.4785054,49.7923497" id="Fill-3" fill="#231F20"></path>
                        <path d="M26.0144024,32.9508197 C25.682318,32.9508197 25.3502337,32.8219524 25.0977112,32.5624526 L19.7999282,27.1570891 C19.2931537,26.6398548 19.2931537,25.8013349 19.7999282,25.2841006 C20.3067028,24.7668663 21.1282656,24.7668663 21.6350401,25.2841006 L26.0144024,29.7538525 L30.3954942,25.2841006 C30.9039984,24.7668663 31.7255612,24.7668663 32.2306061,25.2841006 C32.7373807,25.8013349 32.7373807,26.6398548 32.2306061,27.1570891 L26.9310935,32.5624526 C26.6785711,32.8219524 26.3464867,32.9508197 26.0144024,32.9508197" id="Fill-5" fill="#231F20"></path>
                        <path d="M26.7480916,41.7377049 C25.9390534,41.7377049 25.2824427,41.1800306 25.2824427,40.4928962 L25.2824427,30.5344262 C25.2824427,29.8472918 25.9390534,29.2896175 26.7480916,29.2896175 C27.5571298,29.2896175 28.2137405,29.8472918 28.2137405,30.5344262 L28.2137405,40.4928962 C28.2137405,41.1800306 27.5571298,41.7377049 26.7480916,41.7377049" id="Fill-7" fill="#231F20"></path>
                        <path d="M33.4785054,54.9180328 L19.2848534,54.9180328 C18.5503319,54.9180328 17.9541985,54.2619454 17.9541985,53.4535519 C17.9541985,52.6451585 18.5503319,51.989071 19.2848534,51.989071 L33.4785054,51.989071 C34.2130269,51.989071 34.8091603,52.6451585 34.8091603,53.4535519 C34.8091603,54.2619454 34.2130269,54.9180328 33.4785054,54.9180328" id="Fill-9" fill="#231F20"></path>
                        <path d="M22.3653047,2.85316662 C21.7306042,2.85316662 21.1741545,2.39286723 21.0785147,1.75155123 C20.9707025,1.04644842 21.4610739,0.386168774 22.1740251,0.28273071 C23.3721309,0.103438065 24.5980593,0.00861983872 25.8205098,0 L25.8309432,0 C26.5473722,0 27.1299056,0.572357291 27.1351572,1.282632 C27.140339,1.99807861 26.5612835,2.58077971 25.8413766,2.58595161 C24.7406495,2.59457145 23.6364446,2.67732191 22.5600621,2.83765091 C22.4939837,2.84799471 22.4296442,2.85316662 22.3653047,2.85316662 M34.3428852,4.07373578 C34.1898616,4.07373578 34.0333601,4.04615229 33.8820753,3.98926136 C32.8561211,3.60654052 31.7988666,3.29967426 30.7363954,3.07383449 C30.0321387,2.92557326 29.5817622,2.2394341 29.733047,1.53950319 C29.8825928,0.839572291 30.5764161,0.386168774 31.2806728,0.544773807 C32.471823,0.796473097 33.6560176,1.14299061 34.8019563,1.57225858 C35.4766516,1.8222339 35.8157381,2.56871194 35.5618579,3.23761142 C35.3653616,3.75480174 34.8680347,4.07373578 34.3428852,4.07373578 M14.1854936,5.62013484 C13.7264226,5.62013484 13.2812628,5.38222729 13.0447716,4.95640726 C12.6935127,4.33233094 12.9195704,3.54447768 13.5507931,3.19796016 C14.6167421,2.6083632 15.7331194,2.09462081 16.8686247,1.66362887 C17.54332,1.41192958 18.296266,1.74293139 18.553624,2.41010691 C18.8092431,3.07728242 18.4718955,3.82376045 17.7989391,4.08063165 C16.7782016,4.46680042 15.7765921,4.92882378 14.8167163,5.45808188 C14.6167421,5.56841581 14.399379,5.62013484 14.1854936,5.62013484 M41.7454056,8.49916097 C41.4376194,8.49916097 41.1298331,8.39399894 40.8811696,8.17677901 C40.0551895,7.45443652 39.1753034,6.78898497 38.2693337,6.20111197 C37.6659335,5.81149526 37.4955208,5.00985026 37.8902523,4.41163346 C38.2849838,3.81341665 39.0935748,3.64446781 39.6952361,4.03753245 C40.7055402,4.69091623 41.6845439,5.43222236 42.6079027,6.2373153 C43.1469634,6.70795849 43.1991305,7.5251192 42.7226705,8.06127317 C42.4653125,8.35089975 42.1070979,8.49916097 41.7454056,8.49916097 M7.49244663,11.0540812 C7.19161599,11.0540812 6.89078535,10.9506431 6.64559969,10.743767 C6.09784448,10.2800197 6.03350498,9.46285894 6.50127054,8.92153307 C7.29247251,8.00265826 8.1567085,7.13377852 9.06963385,6.33730542 C9.60869453,5.86666223 10.4346746,5.91665729 10.9093958,6.45281126 C11.3875948,6.98896523 11.3336887,7.80612594 10.794628,8.27676914 C9.97212576,8.99566368 9.19657394,9.77662107 8.48536163,10.6006777 C8.22626472,10.900648 7.85935567,11.0540812 7.49244663,11.0540812 M47.162096,15.1916038 C46.703025,15.1916038 46.2578652,14.9519722 46.0196351,14.5261522 C45.4840523,13.5676261 44.8806521,12.6435794 44.2285626,11.7781476 C43.797314,11.2057903 43.9172985,10.3955255 44.4928762,9.96798149 C45.0736706,9.54216146 45.8874783,9.65939127 46.316988,10.2283006 C47.0403726,11.1885507 47.7081123,12.2125875 48.3010791,13.2728277 C48.6488601,13.896904 48.4210635,14.6830333 47.7915798,15.0295508 C47.5916056,15.1398847 47.3759814,15.1916038 47.162096,15.1916038 M3.13474964,18.4533507 C2.98694268,18.4533507 2.83739682,18.4274912 2.68958986,18.3740482 C2.01141674,18.1292448 1.66363566,17.3879387 1.91056023,16.7173152 C2.32789753,15.5863924 2.8304412,14.4727092 3.40601889,13.4090211 C3.74684435,12.7814968 4.53630741,12.5401414 5.17100789,12.879763 C5.80744728,13.2193847 6.04393841,14.00379 5.70485186,14.6313142 C5.18665804,15.5881163 4.73454263,16.5880176 4.36067797,17.6034346 C4.16765946,18.1275208 3.6668547,18.4533507 3.13474964,18.4533507 M50.0069453,23.2942521 C49.3809393,23.2942521 48.8297063,22.8477445 48.7218942,22.2150483 C48.5393091,21.1375685 48.2819511,20.0687085 47.9567758,19.0360518 C47.7411515,18.3533606 48.1237107,17.6275702 48.8123172,17.4155221 C49.4939682,17.1983022 50.2277863,17.581023 50.4451494,18.2637143 C50.8051029,19.4101528 51.0920223,20.5945187 51.2937353,21.7875043 C51.4137198,22.4926071 50.9337819,23.1580587 50.2243084,23.2770125 C50.1512744,23.2890802 50.0782404,23.2942521 50.0069453,23.2942521 M1.67059128,26.9007927 C0.950684435,26.9007927 0.366412214,26.3215395 0.366412214,25.6078169 L0.366412214,25.4285242 C0.366412214,24.2838096 0.444662958,23.1304752 0.595947729,21.9995524 C0.691587527,21.2910016 1.36280502,20.789327 2.061845,20.8910411 C2.77653513,20.9858593 3.27733989,21.6375191 3.18170009,22.3443459 C3.04432656,23.3614869 2.97477035,24.3975915 2.97477035,25.4285242 L2.97477035,25.6078169 C2.97477035,26.3215395 2.39049812,26.9007927 1.67059128,26.9007927 M50.3599431,31.8934033 C49.6400362,31.8934033 49.055764,31.3141501 49.055764,30.6004274 L49.055764,27.152492 C49.055764,26.4387693 49.6400362,25.8595161 50.3599431,25.8595161 C51.0798499,25.8595161 51.6641221,26.4387693 51.6641221,27.152492 L51.6641221,30.6004274 C51.6641221,31.3141501 51.0798499,31.8934033 50.3599431,31.8934033 M3.02172079,35.3568544 C2.50004917,35.3568544 2.00620003,35.0430923 1.8062259,34.5310739 C1.36106611,33.3949792 1.01328503,32.2088893 0.773316082,31.0072838 C0.632464743,30.3073529 1.09327468,29.6263857 1.79927028,29.4884682 C2.48961573,29.3488269 3.19213352,29.8039543 3.33124596,30.5056092 C3.54165351,31.5589535 3.84770087,32.5985061 4.23721568,33.5949594 C4.4997904,34.260411 4.16592056,35.008613 3.49296416,35.2689321 C3.33994048,35.327547 3.17996119,35.3568544 3.02172079,35.3568544 M50.3599431,40.513242 C49.6400362,40.513242 49.055764,39.9339888 49.055764,39.2202662 L49.055764,35.7723307 C49.055764,35.058608 49.6400362,34.4793549 50.3599431,34.4793549 C51.0798499,34.4793549 51.6641221,35.058608 51.6641221,35.7723307 L51.6641221,39.2202662 C51.6641221,39.9339888 51.0798499,40.513242 50.3599431,40.513242 M7.80892742,42.4699454 C7.4820132,42.4699454 7.15857679,42.3509916 6.9046966,42.1096361 C6.01611593,41.261444 5.19535257,40.3322254 4.4684901,39.3495637 C4.04419718,38.7720345 4.16939837,37.9634937 4.75019278,37.5411216 C5.3327261,37.1170255 6.14827274,37.2463231 6.57430457,37.8204044 C7.21074395,38.6841122 7.9306508,39.5012729 8.71141933,40.244303 C9.23135205,40.7408057 9.2487411,41.5579664 8.74967525,42.0734328 C8.49231725,42.3371998 8.15149178,42.4699454 7.80892742,42.4699454" id="Fill-11" fill="#231F20"></path>
                        <g id="Group-15" transform="translate(38.473282, 38.076503)">
                            <mask id="mask-2" fill="white">
                                <use xlink:href="#path-1"></use>
                            </mask>
                            <g id="Clip-14"></g>
                            <path d="M8.98773173,2.78869491 C5.49916031,2.78869491 2.66214395,5.54968475 2.66214395,8.94476924 L2.66214395,28.5982482 C2.66214395,31.9916049 5.49916031,34.7525947 8.98773173,34.7525947 L14.9795529,34.7525947 C18.4681243,34.7525947 21.3033653,31.9916049 21.3033653,28.5982482 L21.3033653,8.94476924 C21.3033653,5.54968475 18.4681243,2.78869491 14.9795529,2.78869491 L8.98773173,2.78869491 Z M14.9795529,37.3442623 L8.98773173,37.3442623 C4.03271756,37.3442623 0.000887677208,33.4204776 0.000887677208,28.5982482 L0.000887677208,8.94476924 C0.000887677208,4.12081203 4.03271756,0.197027358 8.98773173,0.197027358 L14.9795529,0.197027358 C19.9345671,0.197027358 23.9681723,4.12081203 23.9681723,8.94476924 L23.9681723,28.5982482 C23.9681723,33.4204776 19.9345671,37.3442623 14.9795529,37.3442623 L14.9795529,37.3442623 Z" id="Fill-13" fill="#231F20" mask="url(#mask-2)"></path>
                        </g>
                        <path d="M50.1984733,54.1857923 C49.3894351,54.1857923 48.7328244,53.6042603 48.7328244,52.8877298 L48.7328244,45.9647293 C48.7328244,45.2481987 49.3894351,44.6666667 50.1984733,44.6666667 C51.0075115,44.6666667 51.6641221,45.2481987 51.6641221,45.9647293 L51.6641221,52.8877298 C51.6641221,53.6042603 51.0075115,54.1857923 50.1984733,54.1857923" id="Fill-16" fill="#231F20"></path>
                    </g>
                </g>
            </g>
        </g>
    </g>
</svg>