<svg id="Capa_1" data-name="Capa 1" xmlns="http://www.w3.org/2000/svg" viewBox="0 0 200 200"><defs><style>.cls-1{fill:#d8dade;}.cls-2{fill:#eaf0fa;}.cls-3{fill:#dae2f2;}.cls-4{fill:#ffd989;}.cls-5{fill:#4e4b9a;}.cls-6{fill:#ecebe4;}.cls-7{fill:#f9c092;}.cls-8{fill:#60c3db;}.cls-9{fill:#a94f68;}.cls-10{fill:#c86377;}.cls-11{fill:#6fc2b6;}.cls-12{fill:#2e3b57;}.cls-13{fill:#6380bf;}</style></defs><title>icons people</title><path class="cls-1" d="M104.42,134.25c-.92,0-1.87-.05-2.83-.13l.12-1.34a29,29,0,0,0,3.94.09l.06,1.35Q105.07,134.25,104.42,134.25Zm5.39-.54-.27-1.32a21.78,21.78,0,0,0,3.73-1.13l.51,1.24A22.56,22.56,0,0,1,109.81,133.71Zm-12.29-.19c-1.29-.26-2.63-.6-4-1l.38-1.29c1.31.39,2.61.72,3.86,1Zm-7.83-2.32c-1.24-.47-2.51-1-3.77-1.58l.56-1.22c1.24.56,2.48,1.08,3.69,1.55Zm27.76-.63-.73-1.12a22.5,22.5,0,0,0,3.06-2.43l.92,1A22.5,22.5,0,0,1,117.45,130.57Zm-35.18-2.75c-1.19-.62-2.38-1.29-3.56-2l.69-1.16c1.15.69,2.33,1.34,3.49,1.95Zm41.19-2.89-1.07-.82a30.66,30.66,0,0,0,2.19-3.28l1.16.67A32.41,32.41,0,0,1,123.46,124.93Zm-48.2-1.26c-2.09-1.38-3.3-2.32-3.35-2.36l.83-1.06s1.22,1,3.26,2.3Zm52.34-5.82-1.22-.55c.52-1.15,1-2.4,1.46-3.69l1.27.45C128.64,115.38,128.14,116.66,127.6,117.85Zm2.72-7.69-1.3-.35c.34-1.25.66-2.55.94-3.88l1.32.28C131,107.56,130.67,108.89,130.32,110.16Zm1.71-7.94L130.7,102c.21-1.27.4-2.6.57-4l1.33.17Q132.35,100.29,132,102.22Zm1-8-1.34-.12c.11-1.29.21-2.63.29-4l1.34.07C133.24,91.51,133.14,92.86,133,94.17Zm.47-8.1-1.35,0v-.18c0-.55,0-1.12,0-1.67,0-.73,0-1.44,0-2.14l1.35,0c0,.72,0,1.45,0,2.19,0,.57,0,1.14,0,1.72Zm-1.67-8c-.16-1.32-.38-2.64-.64-3.92l1.31-.27c.28,1.31.5,2.67.66,4Zm-1.63-7.75c-.4-1.27-.85-2.52-1.36-3.73l1.24-.52a38.32,38.32,0,0,1,1.4,3.85Zm-3.08-7.29A36.3,36.3,0,0,0,125,59.68l1.1-.76a38.82,38.82,0,0,1,2.16,3.48ZM79.3,56.9l-.44-1.27a6.32,6.32,0,0,0,2.89-2.15l1,.83A7.59,7.59,0,0,1,79.3,56.9Zm-4.4-.14a8,8,0,0,1-3.57-2.49l1.06-.83a6.65,6.65,0,0,0,3,2.06Zm47.72-.21a38.94,38.94,0,0,0-2.73-2.88l.93-1a39.47,39.47,0,0,1,2.82,3Zm-5.73-5.47c-1-.81-2.12-1.59-3.23-2.31l.73-1.13c1.14.74,2.27,1.54,3.33,2.38Zm-32.1-.51-1.27-.44a17.08,17.08,0,0,0,.81-3.79l1.33.14A17.56,17.56,0,0,1,84.79,50.57Zm-13.2-.37-1.32-.27a8.28,8.28,0,0,1,2.08-3.81l1,.9A6.94,6.94,0,0,0,71.59,50.2Zm38.64-3.44c-1.16-.61-2.37-1.19-3.59-1.71l.53-1.24c1.25.54,2.49,1.13,3.69,1.76Zm-34-2.3-.79-1.09c.52-.37,1.08-.74,1.69-1.12a12.1,12.1,0,0,1,1.94-1l.5,1.25a11.15,11.15,0,0,0-1.73.86C77.3,43.75,76.76,44.11,76.27,44.46Zm26.65-.83c-1.26-.42-2.54-.79-3.82-1.11l.32-1.31c1.31.33,2.64.71,3.92,1.15ZM84.35,42.44c0-.35-.07-.69-.11-1l-.88.13-.22-1.32.89-.14c-.1-.5-.2-1-.33-1.5L85,38.24c.14.56.26,1.13.36,1.69.61-.06,1.23-.09,1.87-.11l0,1.34c-.58,0-1.15.05-1.71.1.05.36.09.71.12,1.07Zm10.85-.72c-1.33-.22-2.66-.38-4-.47l.1-1.34c1.33.1,2.69.26,4.06.48ZM82.47,34.83a28.85,28.85,0,0,0-1.74-3.53l1.17-.67a32.35,32.35,0,0,1,1.82,3.69ZM78.55,28A34.39,34.39,0,0,0,76,25l1-.92a35.52,35.52,0,0,1,2.66,3.13Zm-5.43-5.74c-.73-.62-1.5-1.23-2.29-1.81l.8-1.08c.81.6,1.61,1.23,2.36,1.87Z"/><path class="cls-2" d="M167.49,164.61c0,2.15-26.47,3.89-59.13,3.89s-59.12-1.74-59.12-3.89,26.47-3.89,59.12-3.89S167.49,162.47,167.49,164.61Z"/><path class="cls-3" d="M62.63,112.14a17.51,17.51,0,1,0,24.59,2.93A17.51,17.51,0,0,0,62.63,112.14Zm16.53,21A9.2,9.2,0,1,1,80.7,120.2,9.21,9.21,0,0,1,79.16,133.13Z"/><path class="cls-3" d="M68.35,112.82l-6.2,4.89s-5-4.11-4.73-6,4.27-5.32,6.2-4.88S68.35,112.82,68.35,112.82Z"/><path class="cls-3" d="M84.51,134.54l-6.2,4.88s2.83,5.78,4.73,6,6.17-2.91,6.2-4.88S84.51,134.54,84.51,134.54Z"/><path class="cls-3" d="M60.11,120.59l.07,7.89s-6.29,1.41-7.65.07-1.59-6.64-.07-7.89S60.11,120.59,60.11,120.59Z"/><path class="cls-3" d="M61.32,131.75l3.8,6.91s-4.86,4.22-6.69,3.69-4.55-5.09-3.81-6.92S61.32,131.75,61.32,131.75Z"/><path class="cls-3" d="M86.74,121.08l-4.63-6.39s4.31-4.79,6.2-4.49,5.14,4.49,4.62,6.4S86.74,121.08,86.74,121.08Z"/><path class="cls-3" d="M71.16,111.57l7.65,1.92s2.85-5.77,1.86-7.41S74.6,103,73,104.16,71.16,111.57,71.16,111.57Z"/><path class="cls-3" d="M75,141.36l-7.65-1.92s-2.84,5.77-1.86,7.41,6.08,3.11,7.65,1.92S75,141.36,75,141.36Z"/><path class="cls-3" d="M87.48,131.81l-.06-7.89s6.28-1.41,7.64-.07,1.59,6.64.07,7.89S87.48,131.81,87.48,131.81Z"/><path class="cls-3" d="M110.83,45.78a17.51,17.51,0,1,0,24.59,2.92A17.5,17.5,0,0,0,110.83,45.78Zm16.53,21a9.21,9.21,0,1,1,1.53-12.93A9.22,9.22,0,0,1,127.36,66.77Z"/><path class="cls-3" d="M116.54,46.46l-6.2,4.88s-5-4.11-4.73-6,4.28-5.32,6.2-4.88S116.54,46.46,116.54,46.46Z"/><path class="cls-3" d="M132.7,68.17l-6.2,4.89s2.83,5.78,4.73,6,6.18-2.91,6.2-4.88S132.7,68.17,132.7,68.17Z"/><path class="cls-3" d="M108.3,54.22l.07,7.9s-6.28,1.4-7.64.06-1.59-6.64-.07-7.89S108.3,54.22,108.3,54.22Z"/><path class="cls-3" d="M109.52,65.38l3.8,6.92s-4.86,4.21-6.7,3.68-4.55-5.09-3.8-6.91S109.52,65.38,109.52,65.38Z"/><path class="cls-3" d="M134.93,54.71l-4.62-6.39s4.31-4.79,6.19-4.48,5.15,4.49,4.63,6.39S134.93,54.71,134.93,54.71Z"/><path class="cls-3" d="M119.36,45.21,127,47.12s2.84-5.77,1.86-7.41-6.08-3.11-7.65-1.92S119.36,45.21,119.36,45.21Z"/><path class="cls-3" d="M123.16,75l-7.65-1.92s-2.85,5.78-1.86,7.42,6.07,3.1,7.65,1.91S123.16,75,123.16,75Z"/><path class="cls-3" d="M135.68,65.44l-.07-7.89s6.28-1.41,7.65-.07,1.59,6.64.06,7.89S135.68,65.44,135.68,65.44Z"/><path class="cls-4" d="M70,68.16a13.5,13.5,0,1,0,16.5,9.61A13.51,13.51,0,0,0,70,68.16Zm5.26,19.92a7.1,7.1,0,1,1,5.05-8.68A7.1,7.1,0,0,1,75.21,88.08Z"/><path class="cls-4" d="M73.78,70.39,67.9,72s-2.25-4.43-1.51-5.7,4.66-2.45,5.89-1.55S73.78,70.39,73.78,70.39Z"/><path class="cls-4" d="M78.56,90.72l-5.89,1.55s.23,5,1.51,5.7,5.26-.16,5.88-1.55S78.56,90.72,78.56,90.72Z"/><path class="cls-4" d="M65.57,73.37,63.2,79s-4.88-.93-5.43-2.29.91-5.19,2.37-5.61S65.57,73.37,65.57,73.37Z"/><path class="cls-4" d="M63,81.63l.57,6.06s-4.73,1.5-5.87.56-1.66-5-.57-6.06S63,81.63,63,81.63Z"/><path class="cls-4" d="M84.26,81.88,83,75.94s4.52-2.07,5.76-1.28S91,79.42,90,80.6,84.26,81.88,84.26,81.88Z"/><path class="cls-4" d="M76.15,70.38,81,74.08s3.78-3.21,3.59-4.68-3.35-4.06-4.82-3.7S76.15,70.38,76.15,70.38Z"/><path class="cls-4" d="M69.71,92.61l-4.82-3.7s-3.79,3.21-3.59,4.68,3.35,4.06,4.82,3.7S69.71,92.61,69.71,92.61Z"/><path class="cls-4" d="M81.5,89.7l2.37-5.61s4.88.93,5.43,2.3-.91,5.18-2.37,5.6S81.5,89.7,81.5,89.7Z"/><path class="cls-5" d="M135.83,161a4.52,4.52,0,0,1-4.5,4.54l-50.46.15a4.53,4.53,0,0,1-4.53-4.51l-.28-94a4.52,4.52,0,0,1,4.51-4.53L131,62.49a4.51,4.51,0,0,1,4.53,4.5Z"/><polygon class="cls-3" points="130.91 150.99 80.83 151.13 80.59 69.04 130.67 68.89 130.91 150.99"/><path class="cls-6" d="M110.32,157.92a4.24,4.24,0,1,1-4.25-4.23A4.25,4.25,0,0,1,110.32,157.92Z"/><rect class="cls-2" x="86.95" y="81.02" width="38.01" height="49"/><rect class="cls-3" x="90.17" y="112.8" width="29.76" height="14.23"/><rect class="cls-3" x="90.17" y="84.74" width="29.76" height="2.01"/><rect class="cls-3" x="90.17" y="89.26" width="29.76" height="2.01"/><rect class="cls-3" x="90.17" y="94.69" width="29.76" height="2.01"/><rect class="cls-3" x="90.17" y="99.22" width="29.76" height="2.01"/><path class="cls-4" d="M157.74,69.23c0,9.42-13,16.7-22.36,16.7a17,17,0,1,1,0-34.08C144.79,51.85,157.74,59.82,157.74,69.23Z"/><polygon class="cls-4" points="120.26 88.04 126.27 83.28 121.2 72.98 120.26 88.04"/><path class="cls-7" d="M107.07,98.38l11.74-3.66-2-16.33-1.38.11L115,91.29,104.76,95.1s-3.56,1-2.69,3.33A10.71,10.71,0,0,0,107.07,98.38Z"/><path class="cls-7" d="M115.58,78.8s-1.06-2.51-.69-3,2.06-1.43,1.78,2.85Z"/><polygon class="cls-8" points="102.96 170.52 103.84 170.59 103.99 171.94 104.31 172.53 106.74 174.51 102.36 173.08 102.96 170.52"/><polygon class="cls-8" points="99.82 168.16 100.51 168.71 99.89 169.91 99.83 170.58 100.77 173.57 97.89 169.97 99.82 168.16"/><polygon class="cls-9" points="98.69 122.06 101.16 149.21 102.05 171.6 104.16 171.6 106.28 148.33 108.92 122.06 98.69 122.06"/><polygon class="cls-10" points="118.09 122.06 117.39 146.83 100.81 169.49 98.69 168.43 110.15 147.97 106.1 123.47 106.1 122.06 118.09 122.06"/><polygon class="cls-11" points="98.61 122.06 118 122.06 115.89 108.48 115.89 94.9 108.16 93.34 101.93 94.69 98.69 108.83 98.61 122.06"/><path class="cls-12" d="M106.94,85.23a2.68,2.68,0,0,1,3.18,2.56c.45,4-1.44,4,0,7.13,0,0-5-4.76-3.4-8.75Z"/><path class="cls-7" d="M106,89.68l-.86,3.26s4,2.88,3.62,1.26a37.32,37.32,0,0,1-.58-4.52Z"/><path class="cls-12" d="M107,85.23a3.17,3.17,0,0,0-2.61.71c-1.5,1.5-2.12,5,2.83,9.2,0,0-2.76-7.8,0-9Z"/><path class="cls-7" d="M106,85.94c-.26.66-.79,2-.41,2.83s.94,2.45,1.94,2.82,1.26-.75,1.48-1.12.74-4.07-.87-5C106.94,84.85,106.22,85.43,106,85.94Z"/><path class="cls-12" d="M107.56,86.34s-.92,2-2.25,2.36c0,0-1.08-3.26,1.66-3.63.93-.12,2.78-.15,2.47,2.82C109.44,87.89,107.69,87.3,107.56,86.34Z"/><path class="cls-7" d="M116.65,98.43l12.28-.59,2.19-16.31-1.36-.23-3.64,12.26-10.89,1.12s-3.7.08-3.44,2.54A10.69,10.69,0,0,0,116.65,98.43Z"/><path class="cls-7" d="M129.8,81.62s-.39-2.69.09-3.09,2.36-.87,1,3.19Z"/><path class="cls-13" d="M110.93,96.77s0,3.64,7.64,1.82l-1.42-4.4S111.75,93.87,110.93,96.77Z"/></svg>