<?xml version="1.0" encoding="UTF-8"?>
<svg width="170px" height="186px" viewBox="0 0 170 186" version="1.1" xmlns="http://www.w3.org/2000/svg" xmlns:xlink="http://www.w3.org/1999/xlink">
    <!-- Generator: Sketch 64 (93537) - https://sketch.com -->
    <title>Group</title>
    <desc>Created with Sketch.</desc>
    <defs>
        <polygon id="path-1" points="0.0217021277 0.0724619565 169.782255 0.0724619565 169.782255 134 0.0217021277 134"></polygon>
        <polygon id="path-3" points="0.0217021277 0.214678633 169.710277 0.214678633 169.710277 89 0.0217021277 89"></polygon>
    </defs>
    <g id="Page-1" stroke="none" stroke-width="1" fill="none" fill-rule="evenodd">
        <g id="Desktop-HD-Copy-5" transform="translate(-973.000000, -2061.000000)">
            <g id="Group" transform="translate(973.000000, 2061.000000)">
                <path d="M160.40852,25 L160.40852,49.6341682 C160.40852,53.5585004 157.226967,56.7561717 153.324223,56.7561717 L151.009545,56.7561717 C150.286547,56.7561717 149.709233,57.3364105 149.709233,58.0630714 L149.709233,63.2238171 C149.709233,63.9504781 149.130111,64.6030196 148.335175,64.6030196 C147.901738,64.6030196 147.466493,64.3861113 147.250678,64.0227808 L142.479252,57.3364105 C142.261629,56.97308 141.828192,56.8284745 141.466693,56.8284745 L104.160353,56.8284745 C100.255802,56.8284745 97.0742489,53.6308032 97.0742489,49.7064709 L97.0742489,25 L10.3864163,25 C5.75886707,25 2,28.7797267 2,33.4307199 L2,146.571097 C2,151.22209 5.75886707,154.927697 10.3864163,155 L159.613584,155 C164.241133,155 167.928062,151.22209 168,146.571097 L168,33.3566005 C168,28.996635 164.67457,25.4374499 160.40852,25 Z" id="Fill-1" fill="#6D6C6B"></path>
                <path d="M160,49.7760898 L160,49.9199789 C160,53.8248675 156.814587,57.0066955 152.907109,57.0066955 L150.589623,57.0066955 C149.865748,57.0066955 149.287733,57.5840594 149.287733,58.30712 L149.287733,63.4422962 C149.287733,64.1653567 148.707909,64.8146651 147.912008,64.8146651 C147.478045,64.8146651 147.042272,64.5988315 146.826196,64.2373012 L142.048981,57.5840594 C141.831095,57.2225291 141.397132,57.0786401 141.035194,57.0786401 L103.683597,57.0786401 C99.7743091,57.0786401 96.5888964,53.896812 96.5888964,49.9919234 L96.5888964,33 L9.79590076,33 C9.36193759,33 9.07202558,33.3615303 9,33.7968127 L9,133 L159.927974,133 L160,49.7760898 Z" id="Fill-2" fill="#ACDEF9"></path>
                <path d="M97,33 L9.79963636,33 C9.36363636,33 9.07236364,33.3947195 9,33.8699618 L9,42 L97,42 L97,33 Z" id="Fill-3" fill="#55ACD5"></path>
                <path d="M103.617327,57.228621 C99.6717333,57.228621 96.4567378,54.0156977 96.4567378,50.0726476 L96.4567378,50 L83.1605888,50 C79.2149955,50 76,53.2129232 76,57.1559734 L76,90.9597518 C76,94.9028019 79.2149955,98.1157251 83.1605888,98.1157251 L85.4977711,98.1157251 C86.2283689,98.1157251 86.8135777,98.6987314 86.8135777,99.4288583 L86.8135777,104.614219 C86.8135777,105.344346 87.39696,106 88.2002523,106 C88.6400721,106 89.0780655,105.782057 89.296149,105.416994 L94.1195555,98.6987314 C94.3376389,98.333668 94.7756323,98.1883727 95.1409312,98.1883727 L132.841238,98.1883727 C136.785004,98.1883727 140,94.9754495 140,91.0323994 L140,57.228621 L103.617327,57.228621 Z" id="Fill-4" fill="#6DCC6D"></path>
                <path d="M153.841238,9 L104.160589,9 C100.214996,9 97,12.2192191 97,16.1699958 L97,50.0400143 C97,53.990791 100.214996,57.2100101 104.160589,57.2100101 L141.859069,57.2100101 C142.297062,57.2100101 142.662361,57.4283801 142.882271,57.7213689 L147.703851,64.4527959 C148.141844,65.0369447 149.017831,65.1843535 149.60304,64.7439559 C149.968339,64.4527959 150.188249,64.0870172 150.188249,63.6466195 L150.188249,58.4529265 C150.188249,57.7213689 150.771631,57.1372202 151.502229,57.1372202 L153.841238,57.1372202 C157.785004,57.1372202 161,53.918001 161,49.9672243 L161,16.1699958 C161,12.2192191 157.785004,9 153.841238,9 Z" id="Fill-5" fill="#EA4647"></path>
                <polygon id="Fill-6" fill="#E9E9EA" points="66 176 103 176 103 155 66 155"></polygon>
                <path d="M2,133 L2,146.521819 C2,151.200003 5.75886707,154.927275 10.3864163,155 L159.613584,155 C164.241133,155 167.928062,151.200003 168,146.521819 L168,133 L2,133 Z" id="Fill-7" fill="#E9E9EA"></path>
                <path d="M57.6807493,177 L112.319251,177 C114.340974,177 116,178.578885 116,180.500858 C116,182.421115 114.340974,184 112.319251,184 L57.6807493,184 C55.6590258,184 54,182.421115 54,180.500858 C54,178.578885 55.6590258,177 57.6807493,177 Z" id="Fill-8" fill="#E9E9EA"></path>
                <path d="M77,133 L75.6218099,107.821239 C75.4756876,105.466171 73.8810336,103.479198 71.5612071,102.88951 L61.0462075,100.166348 L54.7361199,97 L52.6327574,103.184354 C52.4884481,103.552448 52.1980166,103.772201 51.7632757,103.772201 L45.2367243,103.772201 C44.8741381,103.772201 44.5115519,103.552448 44.3672426,103.184354 L42.2638801,97 L35.9537925,100.166348 L25.4387929,102.81626 C23.1911211,103.404106 21.5243124,105.39292 21.3781901,107.747988 L20,132.926749 L77,132.926749 L77,133 Z" id="Fill-9" fill="#E9E9EA"></path>
                <path d="M33.4636126,70.4457316 C33.7525476,70.4457316 34.039679,70.4457316 34.3286139,70.5211528 L34.3286139,69.8553018 C34.3286139,69.4120174 34.6893318,69.1158782 35.0500496,69.1158782 L35.1954189,69.1158782 C37.6468572,69.6327353 44.8612138,70.5211528 49.7676977,64.160631 C49.9848499,63.8663404 50.4891334,63.7909192 50.7780684,64.0134857 L50.8498512,64.0870583 C52.0037875,65.1961937 54.961313,67.4880372 60.5174497,67.637031 C60.8781676,67.637031 61.2388854,67.9331702 61.2388854,68.3764546 L61.2388854,70.4457316 C62.9706917,70.151441 64.7742808,70.7418707 66,72 L66,61.6480696 C66,57.2851006 62.5363874,53.8087006 58.2813599,53.7351279 C56.9102714,53.7351279 55.539183,54.1048397 54.3852466,54.8442633 C53.0141582,52.4788472 50.4891334,51 47.8205429,51 L43.8526468,51 C36.2039859,51 30,57.3586733 30,65.1961937 L30,71.554867 C30.9385878,70.8908646 32.164307,70.4457316 33.4636126,70.4457316 Z" id="Fill-10" fill="#6D6C6B"></path>
                <path d="M62.7989324,70 C62.5320663,70 62.2668661,70 62,70.0714376 L62,80.9271498 C64.7979291,81.4167074 67.4632581,79.3852885 67.9306901,76.444441 C68.3964564,73.5018426 66.4637597,70.7003685 63.6658306,70.2108109 C63.3326645,70 63.0657984,70 62.7989324,70 Z" id="Fill-11" fill="#F9D0B4"></path>
                <path d="M35,80.1008885 L35,70.9938212 C35,70.7110895 35,70.4283578 35,70.0753844 C32.2335129,69.5819276 29.5325808,71.5592847 29.0704015,74.5937972 C28.6098694,77.5598328 30.4536451,80.4538619 33.2873343,80.9473187 C33.8806236,81.0175604 34.4067107,81.0175604 35,80.9473187 C35,80.664587 35,80.3836202 35,80.1008885 Z" id="Fill-12" fill="#F9D0B4"></path>
                <path d="M50.4905633,64.2791586 C45.5677194,70.4529925 38.2572853,69.5904003 35.8696952,69.0885677 C35.5077746,69.0171337 35.0720222,69.2314356 35,69.6636291 L35,80.5754381 C35,87.9708289 41.0806279,93.928566 48.4630841,94 C55.9193721,94 61.9279778,87.9708289 62,80.5754381 L62,68.586735 C62,68.5135062 62,68.4420722 62,68.3706383 C62,68.0116736 61.7101016,67.6527089 61.2761588,67.6527089 C55.7014959,67.5098409 52.734109,65.2828239 51.576325,64.2059298 C51.2864266,63.9201939 50.8524838,63.9201939 50.4905633,64.2791586 C50.5625855,64.2059298 50.5625855,64.2059298 50.4905633,64.2791586 Z" id="Fill-13" fill="#F9D0B4"></path>
                <g id="Group-17" transform="translate(0.000000, 23.000000)">
                    <mask id="mask-2" fill="white">
                        <use xlink:href="#path-1"></use>
                    </mask>
                    <g id="Clip-15"></g>
                    <path d="M48.2503404,71.0054348 C46.1539149,71.0054348 44.1276596,70.4963804 42.2471702,69.548913 L42.2471702,74.5742772 L44.3454043,80.6920326 C44.4893617,81.056163 44.7790851,81.2735489 45.212766,81.2735489 L51.7234043,81.2735489 C52.0851064,81.2735489 52.4468085,81.056163 52.590766,80.6920326 L54.689,74.5742772 L54.689,69.3297065 C52.7365319,70.4963804 50.4943404,71.0778967 48.2503404,71.0054348 Z" id="Fill-14" fill="#F9D0B4" mask="url(#mask-2)"></path>
                    <path d="M159.510638,134 L10.1996383,134 C4.55817021,134 0.0719787234,129.411228 0,123.731886 L0,10.3405761 C0,4.6612337 4.55817021,0.144923913 10.1996383,0.0724619565 L96.9361702,0.0724619565 C97.9492979,0.0724619565 98.7446809,0.873184783 98.7446809,1.89311413 L98.7446809,26.5815217 C98.7446809,29.4945652 101.132638,31.8985543 104.026255,31.8985543 L141.353553,31.8985543 C142.366681,31.8985543 143.306021,32.4076087 143.885468,33.2083315 L147.864191,38.74275 L147.864191,35.0289837 C147.864191,33.3550761 149.239021,31.9710163 150.973745,31.8985543 L153.289723,31.8985543 C156.18334,31.8985543 158.569489,29.4945652 158.569489,26.5815217 L158.569489,1.96557609 C158.569489,0.947467391 159.366681,0.144923913 160.378,0.144923913 L160.523766,0.144923913 C165.731553,0.655798913 169.782255,5.02536413 169.782255,10.3405761 L169.782255,123.731886 C169.710277,129.411228 165.153915,134 159.510638,134 Z M10.1996383,3.78622826 C6.58261702,3.78622826 3.61702128,6.77355435 3.61702128,10.4148587 L3.61702128,123.804348 C3.61702128,127.445652 6.58261702,130.431158 10.1996383,130.431158 L159.510638,130.431158 C163.12766,130.431158 166.093255,127.445652 166.093255,123.804348 L166.093255,10.3405761 C166.093255,7.71920109 164.502489,5.31703261 162.114532,4.29710326 L162.114532,26.6539837 C162.114532,31.6068859 158.135809,35.6123207 153.217745,35.6123207 L151.409234,35.6123207 L151.409234,40.2735543 C151.409234,42.0199239 149.962426,43.4764457 148.225894,43.4764457 C147.212766,43.4764457 146.271617,42.9673913 145.693979,42.1666685 L141.06383,35.6847826 L104.026255,35.6847826 C99.106383,35.6847826 95.1276596,31.6793478 95.1276596,26.7264457 L95.1276596,3.78622826 L10.1996383,3.78622826 Z" id="Fill-16" fill="#231F20" mask="url(#mask-2)"></path>
                </g>
                <path d="M160.126697,135 L9.80159945,135 C8.79234344,135 8,134.202043 8,133.185637 L8,33.6123195 C8,32.1608293 9.15266333,31.0722116 10.5939429,31 L96.9990126,31 C98.0082686,31 98.8006121,31.7979567 98.8006121,32.8143628 L98.8006121,49.7971612 C98.8006121,52.7001417 101.179444,55.0958263 104.062003,55.0958263 L141.246655,55.0958263 C142.255911,55.0958263 143.191662,55.6031221 143.768895,56.4010788 L147.732413,61.9163788 L147.732413,58.2154416 C147.732413,56.5473165 149.101989,55.1680379 150.830083,55.0958263 L153.137212,55.0958263 C156.019771,55.0958263 158.396801,52.7001417 158.396801,49.7971612 L158.396801,49.6527379 C158.396801,48.6363319 159.190946,47.8383752 160.198401,47.8383752 C161.207657,47.8383752 162,48.6363319 162,49.6527379 L162,133.185637 C161.928296,134.202043 161.135953,135 160.126697,135 Z M11.6031989,131.371274 L158.253394,131.371274 L158.253394,57.0546123 C156.740411,58.2154416 154.867107,58.7967635 152.992003,58.7967635 L151.263909,58.7967635 L151.263909,63.441895 C151.263909,65.1822318 149.822629,66.633722 148.092733,66.633722 C147.083477,66.633722 146.145925,66.1264262 145.570494,65.3284694 L140.958039,58.8689751 L104.062003,58.8689751 C99.160932,58.8689751 95.1974132,54.877377 95.1974132,49.9415845 L95.1974132,34.7009372 L11.6031989,34.7009372 L11.6031989,131.371274 Z" id="Fill-18" fill="#231F20"></path>
                <path d="M96.1944444,43 L8.80555556,43 C7.79408333,43 7,42.1955123 7,41.1707875 L7,33.6337002 C7,32.1703302 8.15519444,31.0728027 9.59963889,31 L96.1944444,31 C97.2059167,31 98,31.8044877 98,32.8292125 L98,41.0979848 C98,42.1955123 97.2059167,43 96.1944444,43 Z M10.6111111,39.341575 L94.3888889,39.341575 L94.3888889,34.7312277 L10.6111111,34.7312277 L10.6111111,39.341575 Z" id="Fill-19" fill="#231F20"></path>
                <path d="M84.1616971,3.16261627 L82.839222,3.16261627 L82.839222,1.83830288 C82.839222,0.808485606 82.0288981,0 81.0009192,0 C79.9711019,0 79.1626163,0.808485606 79.1626163,1.83830288 L79.1626163,3.16261627 L77.8383029,3.16261627 C76.8084856,3.16261627 76,3.97110188 76,5.00091915 C76,6.02889812 76.8084856,6.83922203 77.8383029,6.83922203 L79.1626163,6.83922203 L79.1626163,8.16169712 C79.1626163,9.19151439 79.9711019,10 81.0009192,10 C82.0288981,10 82.839222,9.19151439 82.839222,8.16169712 L82.839222,6.83922203 L84.1616971,6.83922203 C85.1915144,6.83922203 86,6.02889812 86,5.00091915 C86,3.97110188 85.1915144,3.16261627 84.1616971,3.16261627 Z" id="Fill-20" fill="#FFCD29"></path>
                <path d="M64,12.5715849 C64,12.4131927 63.9183694,12.3320068 63.9183694,12.1736146 C63.8346879,12.0944185 63.8346879,11.9340364 63.7530573,11.8548403 C63.6714267,11.7756442 63.5897962,11.617252 63.5081656,11.5360661 C62.687758,10.8213113 61.4571465,10.8213113 60.6367389,11.5360661 C60.5530573,11.617252 60.4714267,11.6964481 60.3897962,11.8548403 C60.2265351,12.0944185 60.1428535,12.3320068 60.0612229,12.5715849 C59.9795924,12.8111631 59.9795924,13.1279475 60.0612229,13.3675256 C60.0612229,13.5259178 60.1428535,13.6071038 60.1428535,13.765496 C60.2265351,13.9238882 60.2265351,14.0050741 60.3081656,14.0842702 C60.3897962,14.1634663 60.4714267,14.3218585 60.5530573,14.4030445 C61.3734649,15.1989852 62.6040764,15.1989852 63.424484,14.4030445 C63.5081656,14.3218585 63.5897962,14.2426624 63.6714267,14.0842702 C63.7530573,14.0050741 63.8346879,13.8446921 63.8346879,13.765496 C63.9183694,13.6862999 63.9183694,13.5259178 63.9183694,13.3675256 C64,13.0487514 64,12.8111631 64,12.5715849 Z" id="Fill-21" fill="#55ACD5"></path>
                <path d="M147,163.571585 C147,163.413193 146.918369,163.332007 146.918369,163.173615 C146.834688,163.094418 146.834688,162.934036 146.753057,162.85484 C146.671427,162.775644 146.589796,162.617252 146.508166,162.536066 C145.687758,161.821311 144.457147,161.821311 143.636739,162.536066 C143.553057,162.617252 143.471427,162.696448 143.389796,162.85484 C143.226535,163.094418 143.142853,163.332007 143.061223,163.571585 C142.979592,163.811163 142.979592,164.127947 143.061223,164.367526 C143.061223,164.525918 143.142853,164.607104 143.142853,164.765496 C143.226535,164.923888 143.226535,165.005074 143.308166,165.08427 C143.389796,165.163466 143.471427,165.321859 143.553057,165.403044 C144.373465,166.198985 145.604076,166.198985 146.424484,165.403044 C146.508166,165.321859 146.589796,165.242662 146.671427,165.08427 C146.753057,165.005074 146.834688,164.844692 146.834688,164.765496 C146.918369,164.6863 146.918369,164.525918 146.918369,164.367526 C147,164.048751 147,163.811163 147,163.571585 Z" id="Fill-22" fill="#6DCC6D"></path>
                <path d="M135.925556,173.890138 C133.518155,173.452515 131.620917,171.554931 131.10893,169.072633 C131.10893,169 131.03631,169 130.96369,169 C130.89107,169 130.89107,169.072633 130.89107,169.072633 C130.451702,171.482298 128.554465,173.379882 126.07262,173.890138 C126,173.890138 126,173.962771 126,174.037229 C126,174.109862 126.07262,174.109862 126.07262,174.109862 C128.481845,174.547485 130.379083,176.445069 130.89107,178.927367 C130.89107,179 130.96369,179 131.03631,179 C131.10893,179 131.10893,178.927367 131.10893,178.927367 C131.546473,176.517702 133.445535,174.620118 135.925556,174.109862 C136,174.109862 136,174.037229 136,173.962771 C136,173.890138 136,173.890138 135.925556,173.890138 Z" id="Fill-23" fill="#EA4647"></path>
                <path d="M88.8193673,107 C87.082495,107 85.635403,105.553913 85.635403,103.818246 L85.635403,99.1922132 L83.9003396,99.1922132 C78.9795031,99.1922132 75,95.2154731 75,90.2980533 L75,56.8941599 C75,51.9767401 78.9795031,48 83.9003396,48 L97.0681537,48 C98.0814799,48 98.8770188,48.7949865 98.8770188,49.8076091 L98.8770188,49.879552 C98.8770188,52.7717265 101.265444,55.1584936 104.159628,55.1584936 L140.191135,55.1584936 C141.204461,55.1584936 142,55.9534801 142,56.9661027 L142,90.3699961 C142,95.287416 138.020497,99.264156 133.101469,99.264156 L96.0548275,99.264156 L91.4237712,105.699606 C90.7740269,106.494592 89.8326935,107 88.8193673,107 Z M83.9003396,51.6152182 C81.0061555,51.6152182 78.6177301,54.0019853 78.6177301,56.8941599 L78.6177301,90.3699961 C78.6177301,93.2621707 81.0061555,95.6489378 83.9003396,95.6489378 L86.2149634,95.6489378 C87.8798428,95.6489378 89.2531331,97.0230822 89.3269348,98.7569409 L89.3269348,102.44591 L93.3064379,96.9493318 C93.8841894,96.1543453 94.8255228,95.6489378 95.838849,95.6489378 L133.173462,95.6489378 C136.067646,95.6489378 138.454263,93.2621707 138.454263,90.3699961 L138.454263,58.7737118 L104.231621,58.7737118 C99.9623378,58.7737118 96.3446077,55.735844 95.5490688,51.6152182 L83.9003396,51.6152182 Z" id="Fill-24" fill="#231F20"></path>
                <path d="M103.172971,178 L65.8270293,178 C64.8053545,178 64,177.210095 64,176.203946 L64,154.796054 C64,153.789905 64.8053545,153 65.8270293,153 L103.172971,153 C104.194645,153 105,153.789905 105,154.796054 L105,176.203946 C105,177.210095 104.194645,178 103.172971,178 Z M67.7286015,174.407891 L101.345941,174.407891 L101.345941,156.663592 L67.7286015,156.663592 L67.7286015,174.407891 Z" id="Fill-25" fill="#231F20"></path>
                <path d="M62.6460926,84 C62.2891414,84 61.861157,84 61.5042059,83.9257354 C60.575419,83.7808465 59.9343347,82.9803174 60.005368,82.0330793 C60.005368,81.7414814 60.005368,81.5241481 60.005368,81.2325502 L60.005368,71.7674498 C60.005368,71.4758519 60.005368,71.2585186 60.005368,70.9669207 C59.9343347,70.0196826 60.575419,69.2191535 61.5042059,69.0742646 C61.861157,69 62.2891414,69 62.6460926,69 C66.7164064,69 70,72.3506456 70,76.5 C70,80.6493544 66.7164064,84 62.6460926,84 Z M63.5748794,72.7146879 L63.5748794,80.1404233 C65.572735,79.6314921 66.7874397,77.5196826 66.2866373,75.4803174 C65.9296861,74.1708572 64.9316507,73.0787302 63.5748794,72.7146879 Z" id="Fill-26" fill="#231F20"></path>
                <path d="M33.3539074,84 C29.2835936,84 26,80.6493544 26,76.5 C26,72.3506456 29.2835936,69 33.3539074,69 C33.7108586,69 34.138843,69 34.4957941,69.0742646 C35.424581,69.2191535 36.0656653,70.0196826 35.994632,70.9669207 L35.994632,81.9606349 C36.0656653,82.907873 35.424581,83.7084021 34.4957941,83.8532909 C34.138843,83.9257354 33.7108586,84 33.3539074,84 Z M32.4251206,72.7146879 C30.427265,73.2236191 29.2125603,75.3354286 29.7133627,77.3729735 C30.0703139,78.7566984 31.0683493,79.7763809 32.4251206,80.1404233 L32.4251206,72.7146879 Z" id="Fill-27" fill="#231F20"></path>
                <path d="M48.5352584,96 C39.9618829,96 33.0729166,89.0747206 33,80.6189544 L33,69.6843028 C33,68.2988824 34.1721612,67.132884 35.5649042,67.132884 C35.7107373,67.132884 35.9313191,67.132884 36.0771522,67.2054172 C38.5691399,67.714972 44.798193,68.3714156 49.1222551,62.9766229 C50.000918,61.8831577 51.6142428,61.6655582 52.7134874,62.5396013 C52.786404,62.6121345 52.8593205,62.6864902 52.9322371,62.7590233 C53.8127321,63.6330665 56.3776363,65.6023973 61.5074447,65.7474637 C62.9001877,65.8199968 63.9994324,66.913462 63.9994324,68.2263492 L63.9994324,80.5464213 C64.072349,89.1472538 57.1104661,96 48.5352584,96 Z M36.7370654,70.9953675 L36.7370654,80.6189544 C36.7370654,87.1072123 42.0145391,92.3551161 48.6100071,92.3551161 C55.2054751,92.3551161 60.4082001,87.1072123 60.4082001,80.6189544 L60.4082001,69.3198144 C55.8635562,69.0278592 52.9322371,67.4248392 51.3207444,66.111952 C46.4115178,71.4342115 39.9618829,71.3598559 36.7370654,70.9953675 Z" id="Fill-28" fill="#231F20"></path>
                <path d="M67.1061309,74 C66.6693644,74 66.1582857,73.7837158 65.8683222,73.4959357 C64.9929679,72.6343917 63.8276501,72.2751156 62.5898414,72.4913998 C61.5695053,72.6343917 60.6941509,71.9873355 60.4766784,70.9810033 C60.4766784,70.9095073 60.4766784,70.7665155 60.4766784,70.6950195 L60.4766784,69.7601832 C55.9585675,69.4009072 53.0443623,67.8208111 51.442278,66.5266987 C46.5617129,71.7728477 40.0047512,71.6995554 36.871252,71.2687834 C36.5794673,72.0588315 35.7059342,72.5628958 34.9048921,72.4181075 C34.6855982,72.4181075 34.5406164,72.3466116 34.3213225,72.3466116 C33.4477895,72.3466116 32.5724351,72.6343917 31.9163747,73.2099519 C31.1153325,73.8552117 29.9500147,73.7122199 29.3664451,72.9221718 C29.0764817,72.6343917 29.0021695,72.2036197 29.0021695,71.7728477 L29.0021695,65.5918624 C28.8571878,57.0425293 35.997719,50 44.7403346,50 L48.7473668,50 C51.5147689,50 54.1371893,51.22082 55.9585675,53.3049805 C57.0513944,52.8742085 58.2185336,52.6579243 59.3838514,52.6579243 C64.7011831,52.6579243 68.9275091,56.8977411 69,62.1438901 L69,72.2036197 C68.9275091,73.2099519 68.126467,74 67.1061309,74 Z M64.1194349,68.8986392 C64.4837105,68.9701352 64.920477,69.0416311 65.2847527,69.113127 L65.2847527,62.1438901 C65.2847527,58.9104055 62.6623323,56.3239772 59.3838514,56.2506849 C58.2910245,56.2506849 57.2706884,56.538465 56.3228431,57.1140252 C55.4493101,57.6162932 54.3564832,57.328513 53.8472258,56.4669691 C52.7543989,54.6705888 50.8587084,53.5927606 48.7473668,53.5927606 L44.7403346,53.5927606 C38.0365698,53.5927606 32.5724351,58.9819015 32.4999443,65.6651547 L32.4999443,69.0416311 C32.8642199,68.9701352 33.2284956,68.8986392 33.5927712,68.8986392 C34.1020286,67.892307 35.2691677,67.3882427 36.3619947,67.6760228 C38.837612,68.1800871 45.030298,68.8253469 49.329115,63.5094984 C50.2044693,62.4316702 51.8065537,62.215386 52.8993806,63.07693 C52.9718715,63.1502223 53.0443623,63.2217182 53.1186745,63.2932142 C53.9922075,64.1547582 56.5421371,66.0959267 61.6419962,66.2389186 C63.0266079,66.3104145 64.1194349,67.3882427 64.1194349,68.6823551 L64.1194349,68.8986392 Z" id="Fill-29" fill="#231F20"></path>
                <path d="M48.0406081,114 C47.4700541,114 46.9786756,113.76037 46.570554,113.443518 C46.1624324,113.045462 46,112.566203 46,112.009721 C46,111.851295 46,111.770092 46.0812162,111.611666 C46.0812162,111.453239 46.1624324,111.372036 46.1624324,111.21361 C46.2456892,111.134397 46.2456892,110.97398 46.3269054,110.894767 C46.4081216,110.815554 46.4893378,110.657128 46.570554,110.575924 C47.0619325,110.098656 47.7137027,109.940229 48.3675135,110.019443 C48.5299459,110.019443 48.6111621,110.098656 48.7756351,110.098656 C48.9380675,110.177869 49.0192837,110.177869 49.1025406,110.259072 C49.3461892,110.417498 49.5106622,110.575924 49.6730946,110.815554 C49.7543108,110.894767 49.835527,111.055184 49.835527,111.134397 C49.9187838,111.292823 49.9187838,111.372036 49.9187838,111.532452 C49.9187838,111.690879 50,111.770092 50,111.930508 C50,112.088934 50,112.168147 49.9187838,112.328564 C49.9187838,112.48699 49.835527,112.566203 49.835527,112.72662 C49.7543108,112.885046 49.7543108,112.964259 49.6730946,113.045462 C49.5106622,113.283102 49.3461892,113.443518 49.1025406,113.601944 C49.0192837,113.681157 48.8568513,113.76037 48.7756351,113.76037 C48.6111621,113.841574 48.5299459,113.841574 48.3675135,113.841574 C48.2862973,114 48.2030405,114 48.0406081,114 Z" id="Fill-30" fill="#231F20"></path>
                <path d="M47.970589,121 C47.4196123,121 46.9450945,120.7592 46.5509767,120.4388 C46.4725472,120.3592 46.3941178,120.2796 46.3156884,120.1204 C46.2372589,120.0388 46.1568589,119.8796 46.1568589,119.8 C46.0784294,119.7204 46.0784294,119.5592 46.0784294,119.4 C46.0784294,119.2388 46.0784294,119.1592 46,119 C46,117.8796 46.866665,117 47.970589,117 L48.3647068,117 C48.6019657,117.0796 48.837254,117.1592 49.0745129,117.3204 C49.1529423,117.4 49.3098012,117.4796 49.3902012,117.5592 C49.4686307,117.6388 49.5470601,117.7204 49.6254896,117.8796 C49.784319,118.1204 49.8627485,118.3592 49.9411779,118.6 C50.0196074,118.8388 50.0196074,119.1592 49.9411779,119.4 C49.9411779,119.5592 49.8627485,119.6388 49.8627485,119.8 C49.784319,119.9592 49.784319,120.0388 49.703919,120.1204 C49.6254896,120.2 49.5470601,120.3592 49.4686307,120.4388 C49.3902012,120.5204 49.3098012,120.6 49.1529423,120.6796 C49.0745129,120.7592 48.9156834,120.8388 48.837254,120.8388 C48.6803951,120.9204 48.6019657,120.9204 48.4431362,120.9204 C48.2078479,121 48.1274478,121 47.970589,121 Z" id="Fill-31" fill="#231F20"></path>
                <path d="M48.0406081,128 C47.8781757,128 47.7949189,128 47.6324865,127.9204 C47.4700541,127.9204 47.3867973,127.8388 47.2243649,127.8388 C47.0619325,127.7592 46.9786756,127.7592 46.8974594,127.6796 C46.8162432,127.6 46.6538108,127.5204 46.570554,127.4388 C46.4893378,127.3592 46.4081216,127.2796 46.3269054,127.1204 C46.2456892,127.0388 46.1624324,126.8796 46.1624324,126.8 C46.0812162,126.6388 46.0812162,126.5592 46.0812162,126.4 C46.0812162,126.2388 46.0812162,126.1592 46,126 C46,124.8796 46.8974594,124 48.0406081,124 C48.2862973,124 48.5299459,124.0796 48.7756351,124.1592 C48.8568513,124.2388 49.0192837,124.2388 49.1025406,124.3204 C49.1837568,124.4 49.3461892,124.4796 49.4274054,124.5592 C49.5106622,124.6388 49.5918784,124.7204 49.6730946,124.8796 C49.7543108,124.9592 49.835527,125.1204 49.835527,125.2 C49.9187838,125.2796 49.9187838,125.4388 49.9187838,125.6 C49.9187838,125.7592 50,125.8388 50,126 C50,126.1592 50,126.2388 49.9187838,126.4 C49.835527,126.6388 49.7543108,126.8796 49.5918784,127.1204 C49.5106622,127.2 49.4274054,127.3592 49.3461892,127.4388 C49.264973,127.5204 49.1837568,127.6 49.0192837,127.6796 C48.7756351,127.8388 48.5299459,127.9204 48.2862973,128 C48.2862973,128 48.2030405,128 48.0406081,128 Z" id="Fill-32" fill="#231F20"></path>
                <path d="M52.1716744,107 L45.6848957,107 C44.532051,107 43.5226362,106.252993 43.1622596,105.132482 L41.0717149,98.8591157 C41,98.6342666 41,98.4856122 41,98.260763 L41,93.1060399 C41,92.0598564 41.7924681,91.238522 42.801883,91.238522 C43.0905446,91.238522 43.3792063,91.3128492 43.5943511,91.4633712 C45.1810892,92.2847055 46.9829722,92.7325364 48.7848552,92.7325364 C50.730168,92.7325364 52.6037659,92.2103783 54.333934,91.238522 C55.198117,90.716364 56.2792468,91.0898676 56.7848552,91.9855292 C56.9282851,92.2847055 57,92.5838819 57,92.8830583 L57,98.260763 C57,98.4856122 57,98.7085938 56.9282851,98.8591157 L54.8377404,105.132482 C54.333934,106.252993 53.3245191,107 52.1716744,107 Z M46.333934,103.264964 L51.5226362,103.264964 L53.3245191,97.8872594 L53.3245191,95.6462379 C50.4415064,96.5418995 47.4150637,96.6180942 44.532051,95.7948923 L44.532051,97.8872594 L46.333934,103.264964 Z" id="Fill-33" fill="#231F20"></path>
                <path d="M77.3400047,135 L20.8006174,135 C19.7919115,135 19,134.203904 19,133.189868 L19,133.117825 L20.3670288,108.354135 C20.5121585,105.241794 22.6728994,102.561713 25.6972165,101.83766 L35.9258038,99.2314323 L42.0479031,96.1911348 C42.9114792,95.7552551 43.9918497,96.1172815 44.4236377,96.9872308 C44.4236377,97.0592741 44.4953023,97.1313173 44.4953023,97.2033606 L46.3693849,102.70761 L51.5544428,102.70761 L53.4267249,97.2033606 C53.7868483,96.2631781 54.7955542,95.7552551 55.7325955,96.1172815 C55.8042601,96.1172815 55.8759247,96.1911348 55.9475892,96.1911348 L62.0696885,99.2314323 L72.2982759,101.83766 C75.3225929,102.561713 77.4833338,105.241794 77.626663,108.354135 L78.9954923,133.117825 C79.0671569,134.130051 78.2752454,135 77.2665395,135 L77.3400047,135 Z M22.6728994,131.379736 L75.3942575,131.379736 L74.0988933,108.500032 C74.0254281,106.978073 72.9450576,105.675864 71.4328991,105.313837 L60.989318,102.70761 C60.8459889,102.70761 60.7743243,102.633756 60.6291946,102.561713 L56.1643836,100.389555 L54.7238896,104.589785 C54.3637662,105.675864 53.3550603,106.399917 52.2030252,106.399917 L45.7208025,106.399917 C44.5687675,106.399917 43.5600616,105.675864 43.1999381,104.589785 L41.7594442,100.389555 L37.2928326,102.561713 C37.1495034,102.633756 37.0778389,102.633756 36.9327091,102.70761 L26.489128,105.313837 C24.9769695,105.675864 23.896599,106.978073 23.8249345,108.500032 L22.6728994,131.379736 Z" id="Fill-34" fill="#231F20"></path>
                <path d="M64,135 C62.8796,135 62,134.18891 62,133.155775 L62,118.844225 C62,117.81109 62.8796,117 64,117 C65.1184,117 66,117.81109 66,118.844225 L66,133.155775 C66,134.18891 65.1184,135 64,135 Z" id="Fill-35" fill="#231F20"></path>
                <path d="M32,135 C30.8816,135 30,134.18891 30,133.155775 L30,118.844225 C30,117.81109 30.8816,117 32,117 C33.1204,117 34,117.81109 34,118.844225 L34,133.155775 C34,134.18891 33.0408,135 32,135 Z" id="Fill-36" fill="#231F20"></path>
                <path d="M148.10864,66 C147.095314,66 146.155789,65.4945925 145.576229,64.699606 L140.945172,58.264156 L103.90034,58.264156 C98.9795031,58.264156 95,54.287416 95,49.3699961 L95,15.8941599 C95,10.9767401 98.9795031,7 103.90034,7 L153.101469,7 C158.020497,7 162,10.9767401 162,15.8941599 L162,49.3699961 C162,54.287416 158.020497,58.264156 153.101469,58.264156 L151.220611,58.264156 L151.220611,62.8919969 C151.220611,64.6258556 149.845512,66 148.10864,66 Z M103.828347,10.6152182 C100.934163,10.6152182 98.5457373,13.0019853 98.5457373,15.8941599 L98.5457373,49.3699961 C98.5457373,52.2621707 100.934163,54.6489378 103.828347,54.6489378 L141.16296,54.6489378 C142.176286,54.6489378 143.115811,55.1543453 143.695371,55.9493318 L147.674874,61.4459096 L147.674874,57.7569409 C147.674874,56.0950251 149.049973,54.7208806 150.785037,54.6489378 L153.101469,54.6489378 C155.995653,54.6489378 158.38227,52.2621707 158.38227,49.3699961 L158.38227,15.8941599 C158.38227,13.0019853 155.995653,10.6152182 153.101469,10.6152182 L103.828347,10.6152182 Z" id="Fill-37" fill="#231F20"></path>
                <path d="M128.992952,41 C127.971336,41 127.169288,40.1812018 127.169288,39.1424724 C127.169288,36.5419337 128.775207,34.2371134 131.18135,33.3462432 C134.463946,32.157797 136.215029,28.4427417 135.048248,25.0252624 C133.881468,21.6817126 130.234139,19.8981146 126.877137,21.0865608 C124.324006,21.977431 122.647329,24.4301105 122.647329,27.1785084 C122.647329,28.2190954 121.845281,29.036036 120.823665,29.036036 C119.802048,29.036036 119,28.2190954 119,27.1785084 C119,21.5319959 123.449377,17 128.992952,17 L129.430267,17 C134.610934,17.2975759 138.695578,21.4580663 138.987729,26.7330733 C139.205474,31.1911396 136.50718,35.2777004 132.348131,36.8376521 C131.400919,37.2091576 130.744035,38.1018854 130.744035,39.1424724 C130.816617,40.1072722 130.014569,40.9242129 128.992952,41 Z" id="Fill-38" fill="#231F20"></path>
                <path d="M129.040608,47 C128.470054,47 127.980716,46.7599457 127.572595,46.4378628 C127.489338,46.3578447 127.408122,46.2778266 127.326905,46.11578 C127.245689,46.0357619 127.164473,45.8757257 127.164473,45.7936971 C127.081216,45.6336609 127.081216,45.5536428 127.081216,45.3915961 C127.081216,45.2315599 127.081216,45.1515418 127,44.9894951 C127,44.4273579 127.245689,43.9452389 127.572595,43.5431379 C128.388838,42.818954 129.613203,42.818954 130.429446,43.5431379 C130.837568,43.9452389 131,44.4273579 131,44.9894951 C131,45.1515418 131,45.2315599 130.918784,45.3915961 C130.918784,45.5536428 130.837568,45.6336609 130.837568,45.7936971 C130.754311,45.9557438 130.754311,46.0357619 130.673095,46.11578 C130.591878,46.195798 130.510662,46.3578447 130.429446,46.4378628 C130.102541,46.7599457 129.613203,47 129.040608,47 Z" id="Fill-39" fill="#231F20"></path>
                <g id="Group-43" transform="translate(0.000000, 67.000000)">
                    <mask id="mask-4" fill="white">
                        <use xlink:href="#path-3"></use>
                    </mask>
                    <g id="Clip-41"></g>
                    <path d="M104.821638,16.6466032 C104.31417,16.6466032 103.808511,16.4314899 103.518787,16.071166 L97.8035319,9.87215385 C97.1539149,9.15150607 97.1539149,7.99882996 97.9492979,7.34988664 C98.6727021,6.70274494 99.8297872,6.70274494 100.481213,7.49509717 L104.893617,12.3227166 L116.540064,0.720647773 C117.263468,-2.77555756e-17 118.420553,0.0717044534 119.071979,0.792352227 C119.723404,1.513 119.723404,2.59397166 119.071979,3.31461943 L106.122681,16.2145749 C105.760979,16.4314899 105.327298,16.6466032 104.821638,16.6466032 Z" id="Fill-40" fill="#231F20" mask="url(#mask-4)"></path>
                    <path d="M159.510638,89 L10.1996383,89 C4.55817021,89 0.0719787234,84.4591984 0,78.8392267 L0,65.5072429 C0,64.4979757 0.795382979,63.7056235 1.80851064,63.7056235 L167.901766,63.7056235 C168.914894,63.7056235 169.710277,64.4979757 169.710277,65.5072429 L169.710277,78.8392267 C169.710277,84.4591984 165.153915,89 159.510638,89 Z M3.61702128,67.3088623 L3.61702128,78.8392267 C3.61702128,82.4424656 6.58261702,85.3967611 10.1996383,85.3967611 L159.510638,85.3967611 C163.12766,85.3967611 166.093255,82.4424656 166.093255,78.8392267 L166.093255,67.3088623 L3.61702128,67.3088623 Z" id="Fill-42" fill="#231F20" mask="url(#mask-4)"></path>
                </g>
                <path d="M84.5009045,150 C81.4606453,150 79,147.53895 79,144.5 C79,141.46105 81.4606453,139 84.5009045,139 C87.5393547,139 90,141.46105 90,144.5 C90,147.466939 87.5393547,150 84.5009045,150 Z M84.5009045,142.546648 C83.4154853,142.546648 82.618064,143.414402 82.618064,144.427989 C82.618064,145.441575 83.4874848,146.30933 84.5009045,146.30933 C85.5863237,146.30933 86.381936,145.441575 86.381936,144.427989 C86.381936,143.414402 85.5863237,142.546648 84.5009045,142.546648 Z" id="Fill-44" fill="#231F20"></path>
                <path d="M112.552846,186 L57.5177744,186 C54.4671883,186 52,183.53895 52,180.5 C52,177.459241 54.4671883,175 57.5177744,175 L112.480602,175 C115.531188,175 117.998376,177.459241 117.998376,180.5 C118.072436,183.53895 115.603432,186 112.552846,186 Z M57.5177744,178.544838 C56.4286684,178.544838 55.6303536,179.414402 55.6303536,180.427989 C55.6303536,181.513586 56.5009124,182.30933 57.5177744,182.30933 L112.480602,182.30933 C113.569708,182.30933 114.368023,181.439766 114.368023,180.427989 C114.368023,179.342391 113.497464,178.544838 112.480602,178.544838 L57.5177744,178.544838 Z" id="Fill-45" fill="#231F20"></path>
            </g>
        </g>
    </g>
</svg>