<svg id="Capa_1" data-name="Capa 1" xmlns="http://www.w3.org/2000/svg" viewBox="0 0 200 200"><defs><style>.cls-1{fill:#d8dade;}.cls-2{fill:#eaf0fa;}.cls-3{fill:#ffd989;}.cls-4{fill:#f0c542;}.cls-5{fill:#fbd77d;}.cls-6{fill:#fbd785;}.cls-7{fill:#dbab35;}.cls-8{fill:#4e4b9a;}.cls-9{fill:#6380bf;}.cls-10{fill:#dae2f2;}.cls-11{fill:#6fc2b6;}.cls-12{fill:#f9c092;}.cls-13{fill:#2e3b57;}.cls-14{fill:#bb5b72;}.cls-15{fill:#c86377;}</style></defs><title>icons people</title><path class="cls-1" d="M94.28,133h-.93V131.7h.92c1.89,0,3,0,3,0l0,1.31S96.21,133,94.28,133Zm-4.88-.08c-1.21,0-2.53-.09-4-.17l.07-1.3c1.41.07,2.72.13,3.92.17Zm-7.89-.43c-1.26-.1-2.58-.21-3.93-.35l.13-1.3c1.34.14,2.65.25,3.9.35Zm-7.86-.79c-1.28-.17-2.59-.35-3.91-.55l.2-1.29q2,.3,3.87.54Zm-7.81-1.21c-1.28-.23-2.58-.49-3.88-.77l.28-1.28c1.28.28,2.57.53,3.84.77Zm-7.73-1.68c-1.27-.32-2.55-.67-3.81-1l.37-1.25c1.25.37,2.51.71,3.77,1Zm-7.59-2.26c-1.28-.45-2.52-.92-3.71-1.4l.5-1.21c1.16.47,2.38.93,3.64,1.37Zm-7.34-3c-1.22-.58-2.4-1.2-3.52-1.84l.65-1.13c1.09.62,2.25,1.22,3.44,1.79Zm-6.89-4c-1.12-.77-2.19-1.58-3.17-2.41l.84-1A37.4,37.4,0,0,0,37,118.52Zm-6.08-5.15a30.38,30.38,0,0,1-2.55-3.08l1.06-.77a28.06,28.06,0,0,0,2.44,3ZM25.55,108A27.16,27.16,0,0,1,24,104.3l1.24-.43a26.31,26.31,0,0,0,1.52,3.49Zm-2.63-7.53a30.11,30.11,0,0,1-.5-4l1.31-.07a27.45,27.45,0,0,0,.47,3.79Zm.82-7.89-1.31-.07a39.88,39.88,0,0,1,.45-4l1.29.21A37.4,37.4,0,0,0,23.74,92.55ZM25,84.93l-1.26-.32c.31-1.24.68-2.52,1.11-3.81l1.24.41C25.62,82.47,25.26,83.72,25,84.93Zm2.4-7.39-1.23-.47c.48-1.23,1-2.46,1.51-3.65l1.19.52C28.31,75.12,27.81,76.33,27.35,77.54Zm3.13-7.12-1.17-.59c.59-1.18,1.22-2.36,1.87-3.49l1.13.65C31.68,68.1,31.06,69.25,30.48,70.42Zm3.86-6.74L33.24,63c.73-1.11,1.49-2.2,2.26-3.25l1,.78C35.79,61.51,35.05,62.59,34.34,63.68ZM39,57.44l-1-.84c.86-1,1.75-2,2.66-3l.94.91C40.67,55.48,39.8,56.45,39,57.44Zm42.28-1.3-.16-1.3a6.8,6.8,0,0,0,3.26-1.36l.81,1A8.15,8.15,0,0,1,81.24,56.14Zm-4.16-.79a10.78,10.78,0,0,1-3.34-2.47l1-.88a9.63,9.63,0,0,0,2.93,2.17ZM44.36,51.87l-.88-1c1-.89,2-1.75,3.05-2.55l.8,1C46.32,50.17,45.32,51,44.36,51.87Zm43-1.1L86,50.65c0-.11,0-.23,0-.34a5.48,5.48,0,0,0-1-2.93l1.09-.72a6.71,6.71,0,0,1,1.22,3.65C87.35,50.46,87.34,50.62,87.33,50.77Zm-15.8-1.39a12.16,12.16,0,0,1-.87-4l1.3-.06a10.9,10.9,0,0,0,.79,3.6Zm-21-2.24-.72-1.09c1.12-.73,2.27-1.42,3.41-2l.63,1.15C52.69,45.76,51.57,46.43,50.49,47.14Zm32-2.53a25.44,25.44,0,0,0-2.21-1.72c-.27-.18-.55-.36-.84-.53l.65-1.13c.32.18.64.38.94.59a28,28,0,0,1,2.32,1.8ZM57.28,43.46l-.52-1.2a39.43,39.43,0,0,1,3.73-1.41l.4,1.24C59.69,42.48,58.48,42.94,57.28,43.46ZM72.36,41.6l-1.27-.33a17.37,17.37,0,0,1,1.5-3.79l1.15.62q-.3.55-.54,1.11a20.1,20.1,0,0,1,3.12.53L76,41a19.8,19.8,0,0,0-3.3-.52A11.1,11.1,0,0,0,72.36,41.6Zm-7.74-.51-.27-1.28a32.86,32.86,0,0,1,4-.6l.12,1.3A32.4,32.4,0,0,0,64.62,41.09Zm11.22-6.16-1-.81a28.31,28.31,0,0,1,2.71-2.95l.9.94A29.18,29.18,0,0,0,75.84,34.93Zm5.53-5.32-.8-1c.85-.65,1.76-1.3,2.71-1.93L84,27.73C83.08,28.35,82.19,29,81.37,29.61Z"/><path class="cls-2" d="M180.2,160.38c0,2-38.44,3.66-85.85,3.66S8.51,162.4,8.51,160.38s38.43-3.65,85.84-3.65S180.2,158.37,180.2,160.38Z"/><path class="cls-3" d="M164.45,109a13.35,13.35,0,1,0,16.31,9.49A13.34,13.34,0,0,0,164.45,109Zm5.2,19.69a7,7,0,1,1,5-8.58A7,7,0,0,1,169.65,128.7Z"/><path class="cls-3" d="M168.24,111.21l-5.81,1.54s-2.23-4.38-1.49-5.64,4.6-2.42,5.81-1.53S168.24,111.21,168.24,111.21Z"/><path class="cls-3" d="M173,131.3l-5.81,1.54s.22,4.9,1.48,5.63,5.2-.16,5.82-1.53S173,131.3,173,131.3Z"/><path class="cls-3" d="M160.12,114.15l-2.34,5.54s-4.82-.92-5.37-2.27.9-5.12,2.35-5.54S160.12,114.15,160.12,114.15Z"/><path class="cls-3" d="M157.59,122.32l.57,6s-4.68,1.48-5.8.55-1.65-4.94-.57-6S157.59,122.32,157.59,122.32Z"/><path class="cls-3" d="M178.61,122.56l-1.3-5.87s4.46-2,5.69-1.26,2.23,4.7,1.29,5.88S178.61,122.56,178.61,122.56Z"/><path class="cls-3" d="M170.59,111.19l4.77,3.66s3.74-3.17,3.55-4.62-3.31-4-4.77-3.66S170.59,111.19,170.59,111.19Z"/><path class="cls-3" d="M164.22,133.18l-4.77-3.67s-3.74,3.18-3.55,4.63,3.31,4,4.77,3.66S164.22,133.18,164.22,133.18Z"/><path class="cls-3" d="M175.87,130.29l2.35-5.54s4.82.92,5.36,2.27-.89,5.13-2.34,5.54S175.87,130.29,175.87,130.29Z"/><path class="cls-3" d="M171.27,63.91a13.35,13.35,0,1,0,16.32,9.5A13.34,13.34,0,0,0,171.27,63.91Zm5.2,19.69a7,7,0,1,1,5-8.58A7,7,0,0,1,176.47,83.6Z"/><path class="cls-3" d="M175.07,66.12l-5.82,1.53S167,63.28,167.76,62s4.6-2.43,5.82-1.54S175.07,66.12,175.07,66.12Z"/><path class="cls-3" d="M179.79,86.21,174,87.74s.23,4.9,1.49,5.64,5.2-.17,5.81-1.54S179.79,86.21,179.79,86.21Z"/><path class="cls-3" d="M167,69.05l-2.35,5.54s-4.82-.92-5.36-2.27.89-5.12,2.34-5.54S167,69.05,167,69.05Z"/><path class="cls-3" d="M164.41,77.22l.57,6s-4.68,1.48-5.8.55-1.64-4.94-.57-6S164.41,77.22,164.41,77.22Z"/><path class="cls-3" d="M185.43,77.46l-1.3-5.87s4.46-2,5.69-1.26,2.24,4.7,1.3,5.88S185.43,77.46,185.43,77.46Z"/><path class="cls-3" d="M177.41,66.1l4.78,3.66s3.73-3.18,3.54-4.63-3.31-4-4.77-3.66S177.41,66.1,177.41,66.1Z"/><path class="cls-3" d="M171,88.08l-4.77-3.66s-3.74,3.18-3.55,4.62,3.32,4,4.78,3.66S171,88.08,171,88.08Z"/><path class="cls-3" d="M182.7,85.2,185,79.66s4.82.92,5.37,2.27-.9,5.12-2.35,5.54S182.7,85.2,182.7,85.2Z"/><polygon class="cls-4" points="79.91 30.51 76.87 29.62 80.35 26.02 93.17 30.44 79.91 30.51"/><polygon class="cls-5" points="79.65 35.49 93.17 30.44 80 28.72 79.65 35.49"/><polygon class="cls-6" points="93.17 30.44 80.21 26.95 81.18 20.79 93.17 30.44"/><polygon class="cls-7" points="76.87 29.62 80 28.72 79.91 30.51 76.87 29.62"/><rect class="cls-8" x="90.1" y="132.19" width="34.84" height="22.88"/><path class="cls-8" d="M160.84,60.77H54.56a5.39,5.39,0,0,0-5.39,5.4v62H166.24v-62A5.4,5.4,0,0,0,160.84,60.77Z"/><path class="cls-9" d="M160.84,148.92H54.56a5.39,5.39,0,0,1-5.39-5.39V128.21H166.24v15.32A5.39,5.39,0,0,1,160.84,148.92Z"/><rect class="cls-9" x="55.08" y="155.07" width="96.11" height="5.32"/><rect class="cls-2" x="53.15" y="66.45" width="108.1" height="61.76"/><rect class="cls-10" x="94.65" y="52.95" width="83.4" height="47.91"/><rect class="cls-2" x="96.6" y="54.37" width="77.83" height="4.22"/><rect class="cls-2" x="97.72" y="60.71" width="29.57" height="38.12"/><rect class="cls-10" x="100.23" y="85.43" width="23.15" height="11.07"/><rect class="cls-10" x="100.23" y="63.61" width="23.15" height="1.56"/><rect class="cls-10" x="100.23" y="67.13" width="23.15" height="1.57"/><rect class="cls-10" x="100.23" y="71.35" width="23.15" height="1.56"/><rect class="cls-10" x="100.23" y="74.87" width="23.15" height="1.57"/><rect class="cls-2" x="135.65" y="60.71" width="38.77" height="1.88"/><rect class="cls-2" x="135.65" y="64.23" width="38.77" height="1.88"/><rect class="cls-2" x="135.65" y="68.46" width="38.77" height="1.88"/><rect class="cls-2" x="135.65" y="72.92" width="38.77" height="24.81"/><rect class="cls-10" x="139" y="75.65" width="32.91" height="11.16"/><rect class="cls-10" x="97.72" y="55.43" width="42.26" height="2"/><rect class="cls-10" x="156.15" y="55.43" width="16.74" height="2"/><rect class="cls-10" x="61.43" y="90.62" width="83.4" height="47.91"/><rect class="cls-2" x="63.38" y="92.05" width="77.83" height="4.22"/><rect class="cls-2" x="64.5" y="98.39" width="29.57" height="38.12"/><rect class="cls-10" x="67.01" y="123.1" width="23.15" height="11.07"/><rect class="cls-10" x="67.01" y="101.28" width="23.15" height="1.56"/><rect class="cls-10" x="67.01" y="104.8" width="23.15" height="1.57"/><rect class="cls-10" x="67.01" y="109.02" width="23.15" height="1.56"/><rect class="cls-10" x="67.01" y="112.54" width="23.15" height="1.57"/><rect class="cls-2" x="102.44" y="98.39" width="38.77" height="1.88"/><rect class="cls-2" x="102.44" y="101.9" width="38.77" height="1.88"/><rect class="cls-2" x="102.44" y="106.13" width="38.77" height="1.88"/><rect class="cls-2" x="102.44" y="110.59" width="38.77" height="24.81"/><rect class="cls-10" x="105.79" y="113.33" width="32.91" height="11.16"/><rect class="cls-10" x="64.5" y="93.1" width="42.26" height="2"/><rect class="cls-10" x="122.94" y="93.1" width="16.74" height="2"/><path class="cls-11" d="M41.68,129.13c-1.2-.46,3.7-7.42-1.63-10.25-7-3.71.71-15.43-2.24-15.15-4.4.43-5.63,7.29-4.83,14.94,1,9.78-4,7.14-4.09,7.09-2.84-1.29-4.08,0-2.83,8.4s4.51,15,7.28,14.55a1.4,1.4,0,0,0,.49-.15,2.37,2.37,0,0,0,1.76-.18c3.49.18,3.7-1.3,6.63-8.86C45.43,131.24,45.2,130.49,41.68,129.13Z"/><polygon class="cls-3" points="41.72 160.65 29.3 160.65 27.94 146.4 43.08 146.4 41.72 160.65"/><path class="cls-8" d="M126.29,160.53c0,1.86-.89,3.36-2,3.36h0c-1.09,0-2-1.5-2-3.36V82.29c0-1.85.88-3.35,2-3.35h0c1.09,0,2,1.5,2,3.35Z"/><path class="cls-8" d="M141.21,160.53c0,1.86-.89,3.36-2,3.36h0c-1.09,0-2-1.5-2-3.36V82.29c0-1.85.88-3.35,2-3.35h0c1.09,0,2,1.5,2,3.35Z"/><path class="cls-8" d="M139.23,86c0,.55-1.2,1-2.68,1H127c-1.47,0-2.68-.44-2.68-1h0c0-.54,1.21-1,2.68-1h9.56c1.48,0,2.68.44,2.68,1Z"/><path class="cls-8" d="M139.23,92.79c0,.55-1.2,1-2.68,1H127c-1.47,0-2.68-.44-2.68-1h0c0-.54,1.21-1,2.68-1h9.56c1.48,0,2.68.44,2.68,1Z"/><path class="cls-8" d="M139.23,100.71c0,.55-1.2,1-2.68,1H127c-1.47,0-2.68-.44-2.68-1h0c0-.54,1.21-1,2.68-1h9.56c1.48,0,2.68.44,2.68,1Z"/><path class="cls-8" d="M139.23,107.5c0,.55-1.2,1-2.68,1H127c-1.47,0-2.68-.44-2.68-1h0c0-.54,1.21-1,2.68-1h9.56c1.48,0,2.68.44,2.68,1Z"/><path class="cls-8" d="M139.23,114.86c0,.54-1.2,1-2.68,1H127c-1.47,0-2.68-.44-2.68-1h0c0-.55,1.21-1,2.68-1h9.56c1.48,0,2.68.44,2.68,1Z"/><path class="cls-8" d="M139.23,121.65c0,.54-1.2,1-2.68,1H127c-1.47,0-2.68-.44-2.68-1h0c0-.55,1.21-1,2.68-1h9.56c1.48,0,2.68.44,2.68,1Z"/><path class="cls-8" d="M139.23,129.57c0,.54-1.2,1-2.68,1H127c-1.47,0-2.68-.44-2.68-1h0c0-.55,1.21-1,2.68-1h9.56c1.48,0,2.68.44,2.68,1Z"/><path class="cls-8" d="M139.23,136.36c0,.54-1.2,1-2.68,1H127c-1.47,0-2.68-.44-2.68-1h0c0-.55,1.21-1,2.68-1h9.56c1.48,0,2.68.44,2.68,1Z"/><path class="cls-8" d="M139.23,144.84c0,.55-1.2,1-2.68,1H127c-1.47,0-2.68-.44-2.68-1h0c0-.54,1.21-1,2.68-1h9.56c1.48,0,2.68.44,2.68,1Z"/><path class="cls-8" d="M139.23,151.63c0,.54-1.2,1-2.68,1H127c-1.47,0-2.68-.44-2.68-1h0c0-.54,1.21-1,2.68-1h9.56c1.48,0,2.68.44,2.68,1Z"/><path class="cls-8" d="M139.23,159c0,.54-1.2,1-2.68,1H127c-1.47,0-2.68-.44-2.68-1h0c0-.55,1.21-1,2.68-1h9.56c1.48,0,2.68.44,2.68,1Z"/><path class="cls-12" d="M121.08,73.2l-6.42,10.23-15-6,.45-1.28L112.36,79l6.19-8.78s1.84-3.12,3.82-1.73A10.6,10.6,0,0,1,121.08,73.2Z"/><path class="cls-12" d="M100.36,76.38S98.25,74.75,97.68,75s-1.88,1.6,2.25,2.4Z"/><path class="cls-12" d="M138.9,76.29l-6.41,10.23-15-6,.45-1.28,12.25,2.78,6.19-8.78s1.85-3.12,3.83-1.72A10.56,10.56,0,0,1,138.9,76.29Z"/><path class="cls-12" d="M118.19,79.47s-2.12-1.63-2.69-1.42-1.87,1.61,2.25,2.41Z"/><polygon class="cls-13" points="134.39 141.67 133.53 141.74 133.38 143.06 133.07 143.64 130.68 145.59 134.98 144.19 134.39 141.67"/><polygon class="cls-13" points="137.47 139.36 136.8 139.89 137.4 141.08 137.46 141.73 136.54 144.67 139.36 141.13 137.47 139.36"/><polygon class="cls-14" points="138.58 94.1 136.16 120.75 135.29 142.73 133.21 142.73 131.13 119.89 128.54 94.1 138.58 94.1"/><polygon class="cls-15" points="119.54 94.1 120.23 118.42 136.5 140.66 138.58 139.62 127.33 119.55 131.31 95.49 131.31 94.1 119.54 94.1"/><polygon class="cls-9" points="138.58 94.1 119.54 94.1 121.62 80.78 121.62 67.44 129.2 65.92 138.58 66.78 138.58 79.65 138.58 94.1"/><path class="cls-11" d="M122.4,67.51s3.1,1.77-2.11,7.42l-3.08-3.34S119.52,66.82,122.4,67.51Z"/><path class="cls-11" d="M138,66.74s3.53-.49,2.85,7.16l-4.48-.76S135.32,67.94,138,66.74Z"/><path class="cls-12" d="M130.79,66.73c0,.67-2.65.67-2.68,0a13.65,13.65,0,0,1,.26-3.37l2-.74S130.71,65.33,130.79,66.73Z"/><path class="cls-12" d="M128.72,64.44c-.19,0-1.87.3-2.12-.52a10.74,10.74,0,0,1,.21-4.59,2.2,2.2,0,0,1,2.3-.9c.6.25,2.24,2,1.34,5A3,3,0,0,1,128.72,64.44Z"/><path class="cls-13" d="M126.45,59.33s.15,1,.88,1,2-.31,2.12.26-.4,2.47,0,2.94,1.39,1,1.6.34.65-5-1.6-6C129.45,57.86,127.21,57.39,126.45,59.33Z"/></svg>