<?xml version="1.0" encoding="UTF-8"?>
<svg width="176px" height="195px" viewBox="0 0 176 195" version="1.1" xmlns="http://www.w3.org/2000/svg" xmlns:xlink="http://www.w3.org/1999/xlink">
    <!-- Generator: Sketch 64 (93537) - https://sketch.com -->
    <title>Group</title>
    <desc>Created with Sketch.</desc>
    <defs>
        <polygon id="path-1" points="0.0361182266 0.353732 155.976177 0.353732 155.976177 190.97708 0.0361182266 190.97708"></polygon>
    </defs>
    <g id="Page-1" stroke="none" stroke-width="1" fill="none" fill-rule="evenodd">
        <g id="Desktop-HD-Copy-5" transform="translate(-327.000000, -2061.000000)">
            <g id="Group" transform="translate(327.000000, 2061.000000)">
                <path d="M164.34046,21 L31.6580038,21 C26.3676616,21 22,25.2786906 22,30.6293508 L22,51.7234178 L145.484065,51.7234178 C150.774023,51.7234178 155.141685,56.0021084 155.141685,61.3527686 L155.141685,163 L164.34046,163 C169.630802,163 174,158.720161 174,153.370649 L174,30.5531644 C173.92167,25.2786906 169.630802,21 164.34046,21 Z" id="Fill-1" fill="#ACDEF9"></path>
                <path d="M12.6577418,51 L145.342258,51 C150.709078,51 155,55.2809874 155,60.63452 L155,183.365097 C155,188.71748 150.709078,193 145.342258,193 L12.6577418,193 C7.29284164,193 3,188.71748 3,183.365097 L3,60.63452 C3,55.2809874 7.29284164,51 12.6577418,51 Z" id="Fill-2" fill="#ACDEF9"></path>
                <path d="M112.725612,141.806683 L94.7511665,139.022394 C93.9133535,138.876316 93.1518441,139.462463 93,140.268461 L93,140.707061 L95.8941937,158.00041 C96.0460377,158.806041 96.8075472,159.391087 97.6453602,159.245009 C97.9490483,159.17197 98.254644,159.024057 98.4843177,158.806041 L103.357444,154.1165 L111.506663,161.955892 C113.031208,163.348036 115.391658,163.348036 116.914677,161.955892 C118.361774,160.563747 118.361774,158.218426 116.914677,156.826281 L108.76584,148.986889 L113.638966,144.298449 C114.248631,143.711935 114.248631,142.758759 113.638966,142.172245 C113.335278,142.026167 113.031208,141.88119 112.725612,141.806683 Z" id="Fill-3" fill="#E9E9EA"></path>
                <path d="M164.34046,21 L31.6580038,21 C26.3676616,21 22,25.2044987 22,30.4623792 L22,40 L174,40 L174,30.3875139 C173.92167,25.2044987 169.630802,21 164.34046,21 Z" id="Fill-4" fill="#55ACD5"></path>
                <path d="M115.271166,166 C113.737948,166 112.281525,165.388596 111.207927,164.315761 L104.3862,157.500174 L100.85976,161.022462 C99.4801323,162.400999 97.3337036,162.400999 95.953692,161.022462 C95.4184288,160.487771 95.1108636,159.873298 94.957657,159.107699 L92.0448111,141.038281 C91.7376299,139.123518 93.0423821,137.362949 94.957657,137.057247 C95.3416335,136.980918 95.7240741,136.980918 96.0301034,137.057247 L114.121925,139.965446 C116.037584,140.272682 117.3408,142.034402 117.033619,143.948014 C116.880412,144.637282 116.574383,145.325016 116.037584,145.862776 L112.511143,149.383913 L119.33287,156.199501 C121.55571,158.419965 121.55571,162.095296 119.33287,164.315761 C118.260424,165.388596 116.804001,166 115.271166,166 Z M104.3862,152.906202 C104.922999,152.906202 105.382235,153.137108 105.766212,153.442811 L113.967566,161.635401 C114.733983,162.400999 115.959636,162.400999 116.650794,161.635401 C117.3408,160.869802 117.417595,159.645459 116.650794,158.956574 L108.44944,150.763601 C107.683023,149.998003 107.683023,148.770975 108.44944,148.08324 L112.817173,143.717107 L95.8772807,140.961567 L98.6369199,157.88374 L103.006189,153.51914 C103.390165,153.060395 103.925812,152.906202 104.3862,152.906202 Z" id="Fill-5" fill="#231F20"></path>
                <path d="M133.251063,102 L25.8255109,102 C22.0670627,102 19,105.093124 19,108.882433 L19,138.11718 C19,141.906876 22.0670627,145 25.8255109,145 L94.3756112,145 L93.6857622,140.823276 C93.5325051,139.972512 94.1447653,139.199231 94.9878715,139.045039 L95.448411,139.045039 L113.545041,141.983972 C114.388148,142.139713 115.001944,142.912994 114.847151,143.763758 C114.772251,144.07214 114.619378,144.38091 114.388148,144.614134 L114.080481,144.922904 L133.174627,144.922904 C136.931539,144.922904 139.998601,141.829393 139.998601,138.040084 L139.998601,108.805337 C140.075038,105.093124 137.008359,102 133.251063,102 Z" id="Fill-6" fill="#EA4647"></path>
                <path d="M57.5902087,113.340905 C55.5931362,112.560209 53.3664311,113.498531 52.5986813,115.527325 L49.8342436,122.633384 L47.0709598,115.527325 C47.0709598,115.527325 47.0709598,115.527325 47.0709598,115.44949 C46.2266659,113.498531 43.9984222,112.482374 42.079817,113.340905 C41.1585942,113.730862 40.3908445,114.513124 40.0062003,115.44949 L40.0062003,115.527325 L37.2417626,122.633384 L34.4769403,115.527325 C33.7091905,113.498531 31.4824854,112.482374 29.4854128,113.26307 C27.4902635,114.043767 26.4909579,116.308022 27.2587077,118.338771 L27.2587077,118.416606 L33.6326463,134.579684 C34.2484616,136.061678 35.6293342,137 37.1648338,137 C38.7003333,137 40.1592887,135.983843 40.6974059,134.579684 L43.4618436,127.473625 L46.2266659,134.579684 C46.8397887,136.061678 48.2218152,137 49.7576994,137 C51.2931989,137 52.7536929,135.983843 53.2898869,134.579684 L59.7403697,118.416606 C60.5081194,116.386248 59.5088139,114.121993 57.5902087,113.340905 Z" id="Fill-7" fill="#FFCD29"></path>
                <path d="M93.6229154,113.340905 C91.6240785,112.560209 89.3949768,113.498531 88.6264007,115.527325 L85.8586027,122.633384 L83.0911897,115.527325 C82.4774069,114.043767 81.0919677,113.1074 79.5548155,113.1074 C78.0176633,113.1074 76.5571377,114.121993 76.0188264,115.527325 L73.2525686,122.633384 L70.4847705,115.527325 C69.7161944,113.498531 67.4870927,112.482374 65.4897961,113.26307 C63.4894189,114.043767 62.4905781,116.308022 63.2591541,118.338771 L63.2591541,118.416606 L69.6380276,134.579684 C70.2548908,136.061678 71.6387898,137 73.175942,137 C74.7130942,137 76.095453,136.061678 76.7119311,134.579684 C76.7119311,134.579684 76.7119311,134.579684 76.7119311,134.500285 L79.4781889,127.39579 L82.2456019,134.500285 C82.8609249,135.983843 84.2432837,136.922165 85.7804359,136.922165 C87.3191283,136.922165 88.7796539,135.906008 89.3183502,134.500285 L95.6972237,118.338771 C96.5424264,116.386248 95.5439706,114.121993 93.6229154,113.340905 Z" id="Fill-8" fill="#FFCD29"></path>
                <path d="M128.611928,113.340905 C126.613821,112.560209 124.385148,113.498531 123.616853,115.527325 L120.850451,122.633384 L118.085204,115.527325 C118.085204,115.527325 118.085204,115.527325 118.085204,115.44949 C117.24031,113.498531 115.012022,112.482374 113.090514,113.340905 C112.167097,113.730862 111.398802,114.513124 111.015424,115.44949 L111.015424,115.527325 L108.249022,122.633384 L105.482235,115.527325 C104.71394,113.498531 102.485652,112.482374 100.4887,113.26307 C98.4905935,114.043767 97.4905778,116.308022 98.2588731,118.338771 L98.2588731,118.416606 L104.637341,134.579684 C105.252054,136.061678 106.635448,137 108.172038,137 C109.709014,137 111.093562,136.061678 111.707121,134.579684 C111.707121,134.579684 111.707121,134.579684 111.707121,134.500285 L114.472368,127.39579 L117.24031,134.500285 C117.853868,135.983843 119.236877,136.922165 120.775392,136.922165 C122.311983,136.922165 123.771975,135.906008 124.30855,134.500285 L130.687018,118.338771 C131.531912,116.386248 130.608495,114.121993 128.611928,113.340905 Z" id="Fill-9" fill="#FFCD29"></path>
                <path d="M145.342258,52 L12.6577418,52 C7.36771679,52 3,56.1879968 3,61.4252411 L3,71 L155,71 L155,61.4252411 C154.925125,56.1879968 150.632283,52 145.342258,52 Z" id="Fill-10" fill="#55ACD5"></path>
                <path d="M164.411317,164 L155.202716,164 C154.130679,164 153.285427,163.1644 153.285427,162.099629 L153.285427,61.0266793 C153.285427,56.7706396 149.832154,53.3505805 145.534781,53.3505805 L21.9188268,53.3505805 C20.8437149,53.3505805 20,52.5149805 20,51.451732 L20,30.4768413 C20,24.1689184 25.217579,19 31.5871459,19 L164.411317,19 C170.780883,19 176,24.1689184 176,30.4768413 L176,152.448545 C176,158.831082 170.780883,163.924244 164.411317,164 Z M157.121927,160.20078 L164.411317,160.20078 C168.710226,160.20078 172.161962,156.78034 172.161962,152.524681 L172.161962,30.4768413 C172.161962,26.2196595 168.710226,22.7992197 164.411317,22.7992197 L31.5871459,22.7992197 C27.2897735,22.7992197 23.8365004,26.2196595 23.8365004,30.4768413 L23.8365004,49.5513607 L145.534781,49.5513607 C151.905502,49.5513607 157.121927,54.7187564 157.121927,61.0266793 L157.121927,160.20078 Z" id="Fill-11" fill="#231F20"></path>
                <g id="Group-15">
                    <path d="M8.91904717,30.62876 L7.52891509,30.62876 L7.52891509,29.26152 C7.52891509,28.2017 6.67990566,27.36608 5.59804717,27.36608 C4.51773585,27.36608 3.66833962,28.2017 3.66833962,29.26152 L3.66833962,30.62876 L2.27859434,30.62876 C1.19828302,30.62876 0.348886792,31.46286 0.348886792,32.5242 C0.348886792,33.58706 1.19828302,34.42116 2.27859434,34.42116 L3.66833962,34.42116 L3.66833962,35.78688 C3.66833962,36.84822 4.51773585,37.68384 5.59804717,37.68384 C6.67990566,37.68384 7.52891509,36.84822 7.52891509,35.78688 L7.52891509,34.42116 L8.91904717,34.42116 C10.0005189,34.42116 10.8499151,33.58706 10.8499151,32.5242 C10.8499151,31.46286 10.0005189,30.62876 8.91904717,30.62876 Z" id="Fill-12" fill="#FFCD29"></path>
                    <path d="M122.811245,1.49758 C122.811245,1.34634 122.733887,1.27072 122.733887,1.1191 C122.655368,1.04348 122.655368,0.89224 122.578396,0.8151 C122.501425,0.7391 122.426,0.58786 122.348642,0.51224 C121.576604,-0.17062 120.417774,-0.17062 119.645736,0.51224 C119.567217,0.58786 119.490245,0.66348 119.413274,0.8151 C119.335915,0.89224 119.258943,1.04348 119.258943,1.1191 C119.105,1.27072 119.027642,1.34634 119.027642,1.49758 C119.027642,1.65072 118.95067,1.72634 118.95067,1.87758 C118.95067,2.0292 118.95067,2.10482 119.027642,2.25644 C119.027642,2.4092 119.105,2.48482 119.105,2.63644 C119.181972,2.7892 119.181972,2.8633 119.258943,2.93892 C119.335915,3.01492 119.413274,3.16768 119.490245,3.2433 C120.262283,4.00178 121.421113,4.00178 122.193151,3.2433 C122.270123,3.16768 122.348642,3.09054 122.426,2.93892 C122.501425,2.8633 122.578396,2.71206 122.578396,2.63644 C122.655368,2.56044 122.655368,2.4092 122.655368,2.25644 C122.655368,2.10482 122.655368,2.0292 122.733887,1.87758 C122.888217,1.72634 122.811245,1.57358 122.811245,1.49758 Z" id="Fill-14" fill="#6DCC6D"></path>
                </g>
                <path d="M169,173.571311 C169,173.412216 168.916592,173.334463 168.916592,173.174172 C168.834827,173.094425 168.834827,172.935729 168.752651,172.856381 C168.670887,172.775438 168.589122,172.616343 168.505714,172.53859 C167.685601,171.82047 166.455843,171.82047 165.635731,172.53859 C165.553966,172.616343 165.472202,172.695691 165.390437,172.856381 C165.224853,173.094425 165.143088,173.334463 165.061324,173.571311 C164.979559,173.81095 164.979559,174.130336 165.061324,174.367184 C165.061324,174.527475 165.143088,174.606823 165.143088,174.765918 C165.224853,174.926209 165.224853,175.005557 165.308261,175.083709 C165.390437,175.163057 165.472202,175.323348 165.553966,175.403095 C166.374079,176.198968 167.603426,176.198968 168.423949,175.403095 C168.505714,175.323348 168.589122,175.244 168.670887,175.083709 C168.752651,175.005557 168.834827,174.846861 168.834827,174.765918 C168.916592,174.68657 168.916592,174.527475 168.916592,174.367184 C169,174.050988 169,173.81095 169,173.571311 Z" id="Fill-16" fill="#EA4647"></path>
                <g id="Group-20" transform="translate(1.000000, 4.000000)">
                    <mask id="mask-2" fill="white">
                        <use xlink:href="#path-1"></use>
                    </mask>
                    <g id="Clip-18"></g>
                    <path d="M101.669734,5.46451 C99.1391527,5.00611 97.144197,3.023148 96.6085714,0.42975 C96.6085714,0.353732 96.5305714,0.353732 96.4537241,0.353732 C96.3772611,0.353732 96.3772611,0.42975 96.3772611,0.42975 C95.9180985,2.94713 93.9231429,4.930092 91.3145616,5.46451 C91.2380985,5.46451 91.2380985,5.540528 91.2380985,5.616546 C91.2380985,5.692564 91.3145616,5.692564 91.3145616,5.692564 C93.8451429,6.149436 95.8416355,8.133926 96.3772611,10.724268 C96.3772611,10.801814 96.4537241,10.801814 96.5305714,10.801814 C96.6085714,10.801814 96.6085714,10.724268 96.6085714,10.724268 C97.067734,8.209944 99.0623054,6.226982 101.669734,5.692564 C101.746197,5.692564 101.746197,5.616546 101.746197,5.540528 C101.746197,5.540528 101.746197,5.46451 101.669734,5.46451 Z" id="Fill-17" fill="#55ACD5" mask="url(#mask-2)"></path>
                    <path d="M144.393369,191 L11.6185419,191 C5.25174384,191 0.0361182266,185.814732 0.0361182266,179.48461 L0.0361182266,57.091046 C0.0361182266,50.761306 5.25174384,45.576038 11.6185419,45.576038 L144.393369,45.576038 C150.761704,45.576038 155.976177,50.761306 155.976177,57.091046 L155.976177,179.48461 C155.976177,185.814732 150.761704,191 144.393369,191 Z M11.6185419,49.388398 C7.32316256,49.388398 3.87233498,52.820286 3.87233498,57.091046 L3.87233498,179.48461 C3.87233498,183.75537 7.32316256,187.18764 11.6185419,187.18764 L144.393369,187.18764 C148.689133,187.18764 152.141113,183.75537 152.141113,179.48461 L152.141113,57.091046 C152.141113,52.820286 148.689133,49.388398 144.393369,49.388398 L11.6185419,49.388398 Z" id="Fill-19" fill="#231F20" mask="url(#mask-2)"></path>
                </g>
                <path d="M15.0216649,63 C14.4322767,63 13.9273886,62.7591077 13.5048881,62.4380523 C13.4208105,62.3578892 13.3350429,62.2761147 13.2509653,62.1153856 C13.1664652,62.0352224 13.0840776,61.8732848 13.0840776,61.7943302 C13,61.6340039 13,61.5538407 13,61.3915003 C13,61.231174 13,61.1510109 13,60.9902817 C13,60.8299554 13,60.7497923 13,60.5874518 C13,60.4271256 13.0840776,60.3469624 13.0840776,60.184622 C13.1664652,60.025907 13.1664652,59.9457439 13.2509653,59.8635666 C13.3350429,59.7834034 13.4208105,59.6230771 13.5048881,59.542914 C14.3481991,58.8190287 15.6140106,58.8190287 16.4573216,59.542914 C16.5418217,59.6230771 16.6258993,59.7032403 16.7082869,59.8635666 C16.7940545,59.9457439 16.8785546,60.1060701 16.8785546,60.184622 C16.9626322,60.2651879 16.9626322,60.4271256 16.9626322,60.5874518 C16.9626322,60.7497923 17.0467098,60.8299554 16.9626322,60.9902817 L16.9626322,61.3915003 C16.9626322,61.5538407 16.8785546,61.6340039 16.8785546,61.7943302 C16.7940545,61.9550593 16.7940545,62.0352224 16.7082869,62.1153856 C16.6258993,62.1959516 16.5418217,62.3578892 16.4573216,62.4380523 C16.373244,62.5182155 16.2874764,62.5987814 16.1193212,62.6789446 C16.0348211,62.7591077 15.8649759,62.8392709 15.7825883,62.8392709 C15.6140106,62.919434 15.529933,62.919434 15.3600878,62.919434 C15.2760102,63 15.1915101,63 15.0216649,63 Z" id="Fill-21" fill="#231F20"></path>
                <path d="M22.0210526,63 C20.888664,63 20,62.1153856 20,60.9902817 C20,60.4271256 20.2437247,59.9457439 20.5647773,59.542914 C21.3728745,58.8190287 22.58583,58.8190287 23.3939271,59.542914 C24.2020243,60.3469624 24.2020243,61.6340039 23.3939271,62.3578892 C23.0712551,62.7591077 22.5052632,63 22.0210526,63 Z" id="Fill-22" fill="#231F20"></path>
                <path d="M29.1057049,63 C28.5157027,63 28.0117337,62.7591077 27.5900022,62.4380523 C27.1699578,62.0352224 27,61.5538407 27,60.9902817 C27,60.8299554 27,60.7497923 27,60.5874518 C27,60.4271256 27.0860332,60.3469624 27.0860332,60.184622 C27.1699578,60.025907 27.1699578,59.9457439 27.2538823,59.8635666 C27.3378069,59.7834034 27.4217314,59.6230771 27.5077646,59.542914 C28.3495405,58.8190287 29.6113609,58.8190287 30.4531368,59.542914 C30.5370614,59.6230771 30.6209859,59.7032403 30.7053322,59.8635666 C30.7892567,59.9457439 30.8748682,60.1060701 30.8748682,60.184622 C30.9587928,60.2651879 30.9587928,60.4271256 30.9587928,60.5874518 L30.9587928,60.9902817 C31.2093012,62.0352224 30.2836008,63 29.1057049,63 Z" id="Fill-23" fill="#231F20"></path>
                <path d="M174.081173,43 L21.9188268,43 C20.8437149,43 20,42.1319393 20,41.0273864 L20,30.9226853 C20,24.3697167 25.217579,19 31.5871459,19 L164.411317,19 C170.780883,19 176,24.3697167 176,30.9226853 L176,41.0273864 C176,42.1319393 175.077872,43 174.081173,43 Z M23.8365004,39.053191 L172.161962,39.053191 L172.161962,30.9226853 C172.161962,26.5001236 168.710226,22.946809 164.411317,22.946809 L31.5871459,22.946809 C27.2897735,22.946809 23.8365004,26.5001236 23.8365004,30.9226853 L23.8365004,39.053191 Z" id="Fill-24" fill="#231F20"></path>
                <path d="M34.019119,33 C33.4408622,33 32.9449181,32.761512 32.5329411,32.4420658 C32.4502149,32.3627027 32.3679022,32.2833397 32.283935,32.1242148 C32.2016224,32.0448517 32.1193097,31.8861256 32.1193097,31.8063638 C32.0365834,31.6460424 32.0365834,31.5666794 32.0365834,31.4075545 C32.0365834,31.2472332 31.9542707,31.1694653 32.0365834,31.0103404 C32.0365834,30.8500191 32.0365834,30.7706561 32.0365834,30.6115311 C32.0365834,30.4512098 32.1193097,30.3718468 32.1193097,30.2143171 C32.2016224,30.0539958 32.2016224,29.9746327 32.283935,29.8948708 C32.3679022,29.8155078 32.4502149,29.6551865 32.5329411,29.5758234 C33.0272307,29.0988475 33.6882138,28.9401214 34.3487832,29.0194844 C34.5138222,29.0194844 34.5961348,29.0988475 34.7607602,29.0988475 C34.9274536,29.1786094 35.0097663,29.1786094 35.092079,29.2579724 C35.1743916,29.3389307 35.3394306,29.4182937 35.4217432,29.4976568 C35.8353747,29.8948708 36,30.3718468 36,30.9309774 L36,31.3281914 C36,31.4873164 35.9176873,31.5666794 35.8353747,31.7270007 C35.753062,31.8861256 35.753062,31.9654887 35.6703357,32.0448517 C35.5863685,32.1242148 35.5040559,32.2833397 35.4217432,32.3627027 C35.3394306,32.4420658 35.2583588,32.5230241 35.092079,32.6027859 C35.0097663,32.682149 34.8447273,32.761512 34.7607602,32.761512 C34.5961348,32.8408751 34.5138222,32.8408751 34.3487832,32.8408751 C34.2664706,33 34.1841579,33 34.019119,33 Z" id="Fill-25" fill="#231F20"></path>
                <path d="M41.9993989,33 C41.839495,33 41.7597435,33 41.6002405,33 C41.4403366,33 41.3605851,32.9202965 41.199479,32.8409915 C41.0395752,32.7616865 40.9598237,32.7616865 40.8784691,32.6823815 C40.8003206,32.6030765 40.6404168,32.523373 40.5606653,32.442474 C40.4793107,32.363169 40.3995592,32.204559 40.3194069,32.1248555 C40.2396553,32.0455505 40.1599038,31.8869405 40.1599038,31.807237 C40.0785492,31.727932 40.0785492,31.5677279 40.0785492,31.4087194 C40.0785492,31.2485154 40,31.1708045 40,31.011796 C40,30.8515919 40,30.7722869 40.0785492,30.6132784 C40.1599038,30.3737694 40.2396553,30.1370499 40.3995592,29.8971424 C40.4793107,29.8178374 40.5606653,29.6576333 40.6404168,29.5783283 C40.7201683,29.5002189 40.8003206,29.4209139 40.9598237,29.3416089 C41.7597435,28.7828873 42.7993187,28.9430914 43.4397355,29.5783283 C43.519487,29.6576333 43.5992386,29.7385324 43.6789901,29.8971424 C43.7603447,29.9768459 43.8404969,30.1370499 43.8404969,30.2163549 C43.9202485,30.4530744 44,30.6929819 44,31.011796 C44,31.1708045 44,31.2485154 43.9202485,31.4087194 C43.9202485,31.5677279 43.8404969,31.6470329 43.8404969,31.807237 C43.7603447,31.8869405 43.7603447,32.0455505 43.6789901,32.1248555 C43.5992386,32.204559 43.519487,32.363169 43.4397355,32.442474 C43.3611863,32.523373 43.2798317,32.6030765 43.1203286,32.6823815 C43.0401763,32.7616865 42.8790702,32.8409915 42.7993187,32.8409915 C42.6394149,32.9202965 42.5596634,32.9202965 42.4001603,33 C42.2402565,33 42.0791504,33 41.9993989,33 Z" id="Fill-26" fill="#231F20"></path>
                <path d="M47.9991984,33 C47.4388778,33 46.959519,32.7583431 46.5587174,32.4346521 C46.4789579,32.3542345 46.3991984,32.2738168 46.3178357,32.1125775 C46.2392786,32.0321599 46.159519,31.8713247 46.159519,31.7905029 C46.0797595,31.7100853 46.0797595,31.5476337 46.0797595,31.3863943 C46.0797595,31.2239427 46.0797595,31.1451415 46,30.9839022 C46,30.4173419 46.2392786,29.9344321 46.5587174,29.5303235 C46.638477,29.4511182 46.7186373,29.3707006 46.8797595,29.290283 C46.959519,29.208249 47.1178357,29.1278314 47.1991984,29.1278314 C47.2789579,29.0470096 47.4388778,29.0470096 47.6,29.0470096 C48.6396794,28.8041404 49.7591182,29.5303235 49.9186373,30.5797936 C49.9186373,30.7410329 50,30.8214505 50,30.9839022 C50,31.1451415 50,31.2239427 49.9186373,31.3863943 C49.9186373,31.5476337 49.8388778,31.6280513 49.8388778,31.7905029 C49.7591182,31.9517423 49.7591182,32.0321599 49.6789579,32.1125775 C49.6008016,32.1933992 49.5194389,32.3542345 49.4396794,32.4346521 C49.0388778,32.8387607 48.559519,33 47.9991984,33 Z" id="Fill-27" fill="#231F20"></path>
                <path d="M140.085916,33 L69.9156192,33 C68.8426882,33 68,32.1199279 68,31.0006011 C68,29.8796714 68.8426882,29 69.9156192,29 L140.085916,29 C141.157695,29 142,29.8796714 142,31.0006011 C142,32.1199279 141.157695,33 140.085916,33 Z" id="Fill-28" fill="#231F20"></path>
                <path d="M121.085532,63 L50.9156192,63 C49.8423045,63 49,62.1199279 49,61.0006011 C49,59.8796714 49.8423045,59 50.9156192,59 L121.085532,59 C122.157312,59 123,59.8796714 123,61.0006011 C123,62.1199279 122.157312,63 121.085532,63 Z" id="Fill-29" fill="#231F20"></path>
                <path d="M133.252172,147 L114.144021,147 C113.071972,147 112.22671,146.166742 112.22671,145.104956 C112.22671,144.651314 112.38008,144.271698 112.609557,143.8936 L95.6516552,141.164919 L96.265902,144.726858 C96.4188871,145.787126 95.7281477,146.696307 94.6545611,146.924456 C94.5780685,146.924456 94.4250834,146.924456 94.3482065,146.924456 L25.7478282,146.924456 C20.9130368,146.924456 17,143.059963 17,138.28515 L17,109.638927 C17,104.864114 20.9130368,101 25.7478282,101 L133.252172,101 C138.087348,101 142,104.864114 142,109.638927 L142,138.28515 C142,143.134368 138.087348,147 133.252172,147 Z M116.753994,143.209911 L133.175679,143.209911 C135.937099,143.209911 138.087348,141.012313 138.087348,138.359554 L138.087348,109.71485 C138.087348,106.987687 135.860607,104.864114 133.175679,104.864114 L25.7478282,104.864114 C22.9848706,104.864114 20.8361598,107.063231 20.8361598,109.71485 L20.8361598,138.359554 C20.8361598,141.089375 23.0613632,143.209911 25.7478282,143.209911 L92.1230031,143.209911 L91.8154953,141.316385 C91.5076031,139.421341 92.8137425,137.678902 94.7314381,137.376348 C95.1158228,137.300805 95.49867,137.300805 95.8061778,137.376348 L113.916081,140.254599 C115.219145,140.482748 116.29427,141.391929 116.677117,142.604803 C116.677117,142.831813 116.753994,142.984419 116.753994,143.209911 Z" id="Fill-30" fill="#231F20"></path>
                <path d="M49.9744474,138 L49.8976702,138 C47.5870212,137.924452 45.509019,136.560036 44.5834476,134.436346 L43.5826422,132.011603 L42.5806794,134.436346 C41.7334286,136.560036 39.6538831,138 37.2664568,138 C37.1896796,138 37.1896796,138 37.1129023,138 C34.8026391,137.924452 32.7227078,136.560036 31.7986797,134.436346 L25.4057171,118.749737 C24.2498138,115.86981 25.6364347,112.536216 28.6415516,111.398823 C31.6451252,110.262569 34.9561937,111.625466 36.1105536,114.580942 L37.1129023,117.005684 L38.1137077,114.580942 C38.1137077,114.505394 38.1920282,114.505394 38.1920282,114.429846 C39.1156705,112.383222 41.1940585,111.020324 43.5043217,111.020324 C45.8149706,111.020324 47.8960594,112.383222 48.8200875,114.429846 C48.8200875,114.505394 48.8968648,114.505394 48.8968648,114.580942 L49.8976702,117.005684 L50.899633,114.580942 C52.0555362,111.701014 55.4422246,110.262569 58.3705641,111.398823 C61.2969746,112.536216 62.7592153,115.86981 61.6044696,118.749737 L55.2898274,134.436346 C54.4429624,136.560036 52.3614879,138 49.9744474,138 Z M43.5826422,124.963259 C44.3531158,124.963259 45.0444971,125.419963 45.3535353,126.177719 L48.1267771,133.073448 C48.434272,133.755656 49.1271966,134.28525 49.8976702,134.28525 C50.6677579,134.28525 51.3622258,133.831204 51.6697207,133.073448 L58.0615259,117.385321 C58.4473414,116.400543 57.9847486,115.339077 57.0607205,114.885031 C56.0599152,114.505394 54.9807892,114.960579 54.5197397,115.86981 L54.5197397,115.945358 L51.7468838,122.842606 C51.3622258,123.827385 50.2063225,124.28257 49.281137,123.902933 C48.8200875,123.675909 48.434272,123.296272 48.2035543,122.842606 L45.4303126,116.020905 C45.4303126,115.945358 45.4303126,115.945358 45.3535353,115.86981 C45.0444971,115.187602 44.3531158,114.732417 43.5826422,114.732417 C42.8125545,114.732417 42.1192441,115.187602 41.8105917,115.86981 C41.8105917,115.86981 41.8105917,115.945358 41.7334286,115.945358 L38.9621159,122.689992 C38.5763004,123.675909 37.4219405,124.129956 36.4963691,123.751837 C36.0337763,123.524814 35.6495041,123.145177 35.4172432,122.689992 L32.6459305,115.794262 C32.260115,114.809483 31.1809891,114.35278 30.181727,114.656869 C29.1793784,115.036506 28.7167856,116.096833 29.0258238,117.082751 L29.0258238,117.158298 L35.4172432,132.845286 C35.7262814,133.527494 36.4195918,134.058227 37.1896796,134.058227 C37.9597673,134.058227 38.6530777,133.603042 38.9621159,132.845286 L41.7334286,125.949557 C42.0424668,125.419963 42.8125545,124.963259 43.5826422,124.963259 Z" id="Fill-31" fill="#231F20"></path>
                <path d="M85.974028,138 L85.8957089,138 C83.5854891,137.924452 81.5071401,136.560036 80.5835151,134.436346 L79.5811853,132.011603 L78.5788555,134.436346 C78.5788555,134.513412 78.5036228,134.513412 78.5036228,134.58934 C77.5796121,136.634065 75.5768814,138 73.2666616,138 C73.1883426,138 73.1883426,138 73.1111809,138 C70.8009611,137.924452 68.722612,136.560036 67.7974439,134.436346 L61.4061444,118.749737 C60.249877,115.86981 61.6349287,112.536216 64.6399891,111.398823 C67.5667305,110.262569 70.956056,111.625466 72.1107801,114.580942 L73.1111809,117.005684 L74.1135107,114.580942 C74.9603599,112.459149 77.117028,111.020324 79.5044094,111.020324 C81.8914051,111.020324 83.9712974,112.459149 84.8964656,114.580942 L85.8957089,117.005684 L86.8980388,114.580942 C88.0539203,111.701014 91.4432458,110.262569 94.3684439,111.398823 C97.2951853,112.536216 98.7600993,115.86981 97.6042178,118.749737 L91.2109892,134.436346 C90.3641401,136.560036 88.2846336,138 85.8957089,138 L85.974028,138 Z M79.5811853,124.963259 C80.3512586,124.963259 81.044556,125.419963 81.3535884,126.177719 L84.1263923,133.073448 C84.4338815,133.755656 85.1256357,134.28525 85.8957089,134.28525 C86.6657822,134.28525 87.3606229,133.831204 87.668112,133.073448 L94.0609548,117.385321 C94.446763,116.400543 93.9826357,115.339077 93.0601682,114.885031 C92.0582241,114.505394 90.9806617,114.960579 90.5180776,115.86981 L90.5180776,115.945358 L87.7448879,122.842606 C87.3606229,123.827385 86.2047413,124.28257 85.2807306,123.902933 C84.8196897,123.675909 84.4338815,123.296272 84.2031681,122.842606 L81.4303642,115.945358 C81.1213318,115.26315 80.4280344,114.732417 79.6579611,114.732417 C78.8878879,114.732417 78.1945904,115.187602 77.8871013,115.945358 L75.1142974,122.842606 C74.7284891,123.827385 73.5741508,124.28257 72.65014,123.902933 C72.187556,123.675909 71.8032909,123.296272 71.5710344,122.842606 L68.7997737,115.945358 C68.4139654,114.960579 67.3348598,114.505394 66.3356164,114.809483 C65.3332866,115.187602 64.8707025,116.247928 65.1797349,117.234226 L65.1797349,117.309774 L71.5710344,132.9979 C71.8800668,133.67859 72.5733642,134.210841 73.3434375,134.210841 C74.1135107,134.210841 74.8068082,133.755656 75.1142974,133.073448 C75.1142974,133.073448 75.1142974,132.9979 75.1926164,132.9979 L77.9642629,126.177719 C78.1178146,125.419963 78.811112,124.963259 79.5811853,124.963259 Z" id="Fill-32" fill="#231F20"></path>
                <path d="M119.89899,138 C117.586819,137.924452 115.507292,136.560036 114.583272,134.436346 L113.581318,132.011603 L112.582065,134.436346 C112.582065,134.513412 112.504903,134.513412 112.504903,134.58934 C111.579725,136.634065 109.576975,138 107.266347,138 C107.18957,138 107.18957,138 107.112794,138 C104.802551,137.924452 102.722639,136.560036 101.798619,134.436346 L95.4057134,118.749737 C94.2498206,115.86981 95.636429,112.536216 98.6415189,111.398823 C101.566746,110.262569 104.956104,111.625466 106.111997,114.580942 L107.112794,117.005684 L108.11359,114.580942 C108.11359,114.505394 108.190367,114.505394 108.190367,114.429846 C109.423036,111.549918 112.889557,110.262569 115.816327,111.47437 C117.20255,112.079512 118.203346,113.140978 118.819874,114.429846 C118.819874,114.505394 118.896651,114.505394 118.896651,114.580942 L119.89899,117.005684 L120.897858,114.580942 C122.053751,111.701014 125.443495,110.262569 128.370265,111.398823 C131.295492,112.536216 132.760034,115.86981 131.604142,118.749737 L125.212779,134.436346 C124.364379,136.560036 122.286009,137.924452 119.974224,138 C120.051,138 119.974224,138 119.89899,138 Z M119.821828,134.210841 C119.436016,134.210841 119.051747,134.360798 118.819874,134.58934 C119.051747,134.360798 119.436016,134.28525 119.821828,134.210841 Z M113.581318,124.963259 C114.351399,124.963259 115.045861,125.419963 115.353353,126.177719 L118.12657,133.073448 C118.434062,133.755656 119.127366,134.210841 119.821828,134.28525 L119.89899,134.28525 C120.669071,134.28525 121.36199,133.831204 121.667939,133.073448 L128.06123,117.385321 C128.447042,116.400543 127.985611,115.339077 127.060433,114.885031 C126.059637,114.505394 124.980521,114.960579 124.519475,115.86981 L124.519475,115.945358 L121.746644,122.842606 C121.36199,123.827385 120.206097,124.28257 119.280919,123.902933 C118.819874,123.675909 118.434062,123.296272 118.203346,122.842606 L115.430515,116.020905 C115.430515,115.945358 115.430515,115.945358 115.353353,115.86981 C115.045861,115.187602 114.351399,114.732417 113.581318,114.732417 C112.810852,114.732417 112.119091,115.187602 111.811984,115.86981 C111.811984,115.86981 111.811984,115.945358 111.734822,115.945358 L108.960448,122.689992 C108.576179,123.675909 107.420286,124.129956 106.496266,123.751837 C106.035221,123.524814 105.649409,123.145177 105.41715,122.689992 L102.645862,115.794262 C102.26005,114.809483 101.182477,114.35278 100.181681,114.656869 C99.1793409,115.036506 98.7182955,116.096833 99.0257877,117.082751 L99.0257877,117.158298 L105.41715,132.845286 C105.726185,133.527494 106.41949,134.058227 107.18957,134.058227 C107.959651,134.058227 108.652955,133.603042 108.960448,132.920834 C108.960448,132.920834 108.960448,132.845286 109.038767,132.845286 L111.811984,126.025104 C112.119091,125.419963 112.810852,124.963259 113.581318,124.963259 Z" id="Fill-33" fill="#231F20"></path>
                <path d="M155.08077,74 L2.91884566,74 C1.8437232,74 1,73.1290259 1,72.0207658 L1,61.9611137 C1,55.3861517 6.21763042,50 12.5868757,50 L145.41274,50 C151.783523,50 157,55.3861517 157,61.9611137 L157,72.0997289 C157,73.1290259 156.155892,74 155.08077,74 Z M4.83769133,70.0395476 L153.163462,70.0395476 L153.163462,61.9611137 C153.163462,57.5248991 149.710155,53.9600556 145.41274,53.9600556 L12.5868757,53.9600556 C8.28984536,53.9600556 4.83769133,57.5248991 4.83769133,61.9611137 L4.83769133,70.0395476 Z" id="Fill-34" fill="#231F20"></path>
            </g>
        </g>
    </g>
</svg>